<?xml version="1.0" standalone="no"?>
<!DOCTYPE svg PUBLIC "-//W3C//DTD SVG 1.1//EN" "http://www.w3.org/Graphics/SVG/1.1/DTD/svg11.dtd" >
<svg xmlns="http://www.w3.org/2000/svg" xmlns:xlink="http://www.w3.org/1999/xlink" version="1.1">
<metadata>
Created by FontForge 20200427 at Wed Nov 13 00:41:02 2013
 By www
Copyright (c) 2013 by Marconi Lima/Typefolio Digital Foundry. All rights reserved.
</metadata>
<defs>
<font id="PetalaPro-Light" horiz-adv-x="518" >
  <font-face 
    font-family="Petala Pro Light"
    font-weight="300"
    font-stretch="normal"
    units-per-em="1000"
    panose-1="2 11 5 3 3 0 0 2 0 4"
    ascent="767"
    descent="-233"
    x-height="504"
    cap-height="661"
    bbox="-55 -264 1685 958"
    underline-thickness="50"
    underline-position="-150"
    unicode-range="U+0020-FB02"
  />
<missing-glyph horiz-adv-x="690" 
d="M345 372l-186 187l-39 -41l185 -186l-185 -185l40 -41l185 186l185 -186l40 41l-185 185l185 186l-39 41zM45 -53v773h600v-773h-600z" />
    <glyph glyph-name="f_f_b" unicode="ffb" horiz-adv-x="1268" 
d="M25 460v33l89 10v57q0 84 40 123.5t136 39.5q70 0 135 -15l4 -38q-75 11 -123 11q-85 0 -112 -28q-26 -29 -26 -94v-56h275v57q0 82 39 122q39 41 143 41q73 0 147 -12l54 12v-219q0 -44 -3 -72h7q74 83 174 83q94 0 151 -67q58 -65 58 -176q0 -125 -73 -204
q-74 -80 -190 -80q-92 0 -178 42v643q-72 8 -131 8q-95 0 -121 -32q-23 -28 -23 -90v-56h151l-13 -47l-138 7v-463h-54v463h-275v-463h-54v455zM826 375v-314q49 -26 124 -26q96 0 152 64t56 173q0 93 -44 144.5t-122 51.5q-47 0 -91.5 -24t-74.5 -69z" />
    <glyph glyph-name="f_f_h" unicode="ffh" horiz-adv-x="1272" 
d="M25 460v33l89 10v57q0 84 40 123.5t136 39.5q70 0 135 -15l4 -38q-75 11 -123 11q-85 0 -112 -28q-26 -29 -26 -94v-56h275v57q0 82 39 122q39 41 143 41q75 0 148 -12l54 12v-219q0 -44 -3 -72h6q71 83 175 83q78 0 125.5 -41t47.5 -117v-357h-54v355q0 53 -33 83
t-96 30q-54 0 -99 -25.5t-69 -67.5v-375h-54v673q-74 8 -132 8q-95 0 -121 -32q-23 -28 -23 -90v-56h151l-13 -47l-138 7v-463h-54v463h-275v-463h-54v455z" />
    <glyph glyph-name="f_f_i" unicode="ffi" horiz-adv-x="925" 
d="M25 460v33l89 10v57q0 84 40 123.5t136 39.5q70 0 135 -15l4 -38q-75 11 -123 11q-85 0 -112 -28q-26 -29 -26 -94v-56h275v57q0 85 40.5 124t140.5 39q74 0 140 -15l4 -38q-77 11 -128 11q-92 0 -120 -32q-23 -28 -23 -90v-56h278l51 13v-516h-54v456l-275 7v-463h-54
v463h-275v-463h-54v455z" />
    <glyph glyph-name="f_f_j" unicode="ffj" horiz-adv-x="925" 
d="M25 460v33l89 10v57q0 84 40 123.5t136 39.5q70 0 135 -15l4 -38q-75 11 -123 11q-85 0 -112 -28q-26 -29 -26 -94v-56h275v57q0 85 40.5 124t140.5 39q74 0 140 -15l4 -38q-77 11 -128 11q-92 0 -120 -32q-23 -28 -23 -90v-56h275l54 13v-531q0 -98 -43.5 -151.5
t-117.5 -53.5l-8 42q115 0 115 156v478l-275 7v-463h-54v463h-275v-463h-54v455z" />
    <glyph glyph-name="f_f_k" unicode="ffk" horiz-adv-x="1173" 
d="M25 460v33l89 10v57q0 84 40 123.5t136 39.5q70 0 135 -15l4 -38q-75 11 -123 11q-85 0 -112 -28q-26 -29 -26 -94v-56h275v57q0 82 39 122q39 41 143 41q73 0 147 -12l54 12v-723h-54v673q-72 8 -131 8q-95 0 -121 -32q-23 -28 -23 -90v-56h151l-13 -47l-138 7v-463h-54
v463h-275v-463h-54v455zM1089 0l-251 287l189 173l39 44h58l-40 -51l-180 -163l189 -213l58 -77h-62z" />
    <glyph glyph-name="f_f_l" unicode="ffl" horiz-adv-x="923" 
d="M25 460v33l89 10v57q0 84 40 123.5t136 39.5q70 0 135 -15l4 -38q-75 11 -123 11q-85 0 -112 -28q-26 -29 -26 -94v-56h275v57q0 82 39 122q39 41 143 41q75 0 148 -12l53 12v-625l13 -97l-48 -13l-19 87v598q-72 8 -131 8q-95 0 -121 -32q-23 -28 -23 -90v-56h151
l-13 -47l-138 7v-463h-54v463h-275v-463h-54v455z" />
    <glyph glyph-name="f_f_r" unicode="ffr" horiz-adv-x="1025" 
d="M25 460v33l89 10v57q0 84 40 123.5t136 39.5q70 0 135 -15l4 -38q-75 11 -123 11q-85 0 -112 -28q-26 -29 -26 -94v-56h275v57q0 84 40.5 123.5t139.5 39.5q69 0 133 -13l4 -38q-66 9 -121 9q-89 0 -116 -28q-26 -29 -26 -94v-56h278l34 7l9 -92h4q52 90 127 90
q36 0 62 -17l-14 -46l-44 8q-44 0 -77.5 -24.5t-48.5 -66.5v-362h-54v456l-276 7v-463h-54v463h-275v-463h-54v455z" />
    <glyph glyph-name="f_f_t" unicode="fft" horiz-adv-x="1042" 
d="M25 456v33l89 10v61q0 84 40 123.5t136 39.5q70 0 135 -15l4 -38q-75 11 -123 11q-85 0 -112 -28q-26 -29 -26 -94v-60h275v61q0 84 40.5 123.5t139.5 39.5q70 0 132 -13l4 -38q-65 9 -120 9q-89 0 -116 -28q-26 -29 -26 -94v-60h277l12 131l34 12h14l-6 -143h186
l-14 -47l-172 7v-298q0 -71 20.5 -98.5t77.5 -27.5q51 0 90 19l-3 -45q-51 -21 -102 -21q-77 0 -108 40.5t-31 125.5l1 297l-276 9v-460h-54v459h-275v-459h-54v451z" />
    <glyph glyph-name="f_f_y" unicode="ffy" horiz-adv-x="1192" 
d="M25 460v33l89 10v57q0 84 40 123.5t136 39.5q70 0 135 -15l4 -38q-75 11 -123 11q-85 0 -112 -28q-26 -29 -26 -94v-56h275v57q0 84 40.5 123.5t139.5 39.5q70 0 132 -13l4 -38q-65 9 -120 9q-89 0 -116 -28q-26 -29 -26 -94v-56h284l147 -391q13 -32 13 -54l4 -2
l167 447h56l-236 -592q-28 -68 -60.5 -99.5t-78.5 -31.5q-42 0 -75 15l-7 47q37 -15 74 -15q68 0 98 77l41 101l-10 6l-173 446l-244 6v-463h-54v463h-275v-463h-54v455z" />
    <glyph glyph-name="fb" unicode="fb" horiz-adv-x="940" 
d="M25 460v33l89 10v57q0 82 39 122q39 41 143 41q77 0 149 -12l53 12v-219q0 -44 -3 -72h7q74 83 174 83q94 0 151 -67q58 -65 58 -176q0 -125 -73 -204q-74 -80 -190 -80q-92 0 -178 42v643q-72 8 -132 8q-95 0 -121 -32q-23 -28 -23 -90v-56h151l-13 -47l-138 7v-463h-54
v455zM498 375v-314q49 -26 124 -26q96 0 152 64t56 173q0 93 -44 144.5t-122 51.5q-46 0 -90.5 -23.5t-75.5 -69.5z" />
    <glyph glyph-name="fh" unicode="fh" horiz-adv-x="943" 
d="M25 460v33l89 10v57q0 82 39 122q39 41 143 41q74 0 148 -12l54 12v-219q0 -44 -3 -72h6q71 83 175 83q78 0 125.5 -41t47.5 -117v-357h-54v355q0 53 -33 83t-96 30q-54 0 -99 -25.5t-69 -67.5v-375h-54v673q-74 8 -132 8q-95 0 -121 -32q-23 -28 -23 -90v-56h151
l-13 -47l-138 7v-463h-54v455z" />
    <glyph glyph-name="fj" unicode="fj" horiz-adv-x="596" 
d="M25 460v33l89 10v57q0 85 40.5 124t140.5 39q74 0 140 -15l4 -38q-77 11 -129 11q-89 0 -116 -28q-26 -29 -26 -94v-56h275l54 13v-531q0 -100 -43 -152.5t-119 -52.5l-7 42q115 0 115 156v478l-275 7v-463h-54v455z" />
    <glyph glyph-name="fk" unicode="fk" horiz-adv-x="845" 
d="M25 460v33l89 10v57q0 82 39 122q39 41 143 41q74 0 148 -12l54 12v-723h-54v673q-72 8 -132 8q-95 0 -121 -32q-23 -28 -23 -90v-56h151l-13 -47l-138 7v-463h-54v455zM761 0l-251 287l189 173l39 44h58l-40 -51l-180 -163l189 -213l58 -77h-62z" />
    <glyph glyph-name="fr" unicode="fr" horiz-adv-x="693" 
d="M25 460v33l89 10v57q0 84 40.5 123.5t139.5 39.5q69 0 131 -13l4 -38q-65 9 -120 9q-88 0 -115 -28q-26 -29 -26 -94v-56h275l35 7l9 -92h4q51 90 127 90q36 0 61 -17l-13 -46l-44 8q-42 0 -76 -24.5t-51 -66.5v-362h-54v456l-273 7v-463h-54v455z" />
    <glyph glyph-name="ft" unicode="ft" horiz-adv-x="713" 
d="M25 456v33l89 10v61q0 84 40.5 123.5t139.5 39.5q69 0 131 -13l4 -38q-65 9 -120 9q-88 0 -115 -28q-26 -29 -26 -94v-60h277l12 131l34 12h14l-6 -143h186l-14 -47l-172 7v-298q0 -71 20.5 -98.5t77.5 -27.5q51 0 90 19l-3 -45q-51 -21 -102 -21q-77 0 -108 40.5
t-31 125.5l1 297l-276 9v-460h-54v451z" />
    <glyph glyph-name="fy" unicode="fy" horiz-adv-x="863" 
d="M25 460v33l89 10v57q0 84 40.5 123.5t139.5 39.5q69 0 131 -13l4 -38q-65 9 -120 9q-88 0 -115 -28q-26 -29 -26 -94v-56h284l147 -391q13 -32 13 -54l4 -2l167 447h56l-236 -592q-28 -68 -60.5 -99.5t-78.5 -31.5q-42 0 -75 15l-7 47q38 -15 74 -15q68 0 98 77l41 101
l-10 6l-173 446l-244 6v-463h-54v455z" />
    <glyph glyph-name="ff" unicode="ff" horiz-adv-x="662" 
d="M25 460v33l89 10v57q0 84 40 123.5t136 39.5q70 0 135 -15l4 -38q-75 11 -123 11q-85 0 -112 -28q-26 -29 -26 -94v-56h275v57q0 83 31 123t103 40q48 0 91 -13l5 -38q-42 9 -80 9q-58 0 -77 -26.5t-19 -95.5v-56h151l-13 -47l-138 7v-463h-54v463h-275v-463h-54v455z
" />
    <glyph glyph-name="fi" unicode="fi" horiz-adv-x="596" 
d="M25 460v33l89 10v57q0 85 40.5 124t140.5 39q74 0 140 -15l4 -38q-77 11 -129 11q-89 0 -116 -28q-26 -29 -26 -94v-56h277l52 13v-516h-54v456l-275 7v-463h-54v455z" />
    <glyph glyph-name="fl" unicode="fl" horiz-adv-x="593" 
d="M25 460v33l89 10v57q0 82 39 122q39 41 143 41q75 0 147 -12l53 12v-625l13 -97l-47 -13l-19 87v598q-72 8 -131 8q-95 0 -121 -32q-23 -28 -23 -90v-56h151l-13 -47l-138 7v-463h-54v455z" />
    <glyph glyph-name=".notdef" horiz-adv-x="690" 
d="M345 372l-186 187l-39 -41l185 -186l-185 -185l40 -41l185 186l185 -186l40 41l-185 185l185 186l-39 41zM45 -53v773h600v-773h-600z" />
    <glyph glyph-name=".null" horiz-adv-x="0" 
 />
    <glyph glyph-name="nonmarkingreturn" horiz-adv-x="333" 
 />
    <glyph glyph-name="space" unicode=" " horiz-adv-x="246" 
 />
    <glyph glyph-name="exclam" unicode="!" horiz-adv-x="266" 
d="M113 192l-13 490h65l-13 -490h-39zM103 58q16 20 39.5 11.5t29.5 -30t-11 -39.5q-12 -12 -29 -12t-29 12t-12 29t12 29z" />
    <glyph glyph-name="quotedbl" unicode="&#x22;" horiz-adv-x="272" 
d="M46 485l-6 251h56l-5 -251h-45zM181 485l-5 251h56l-6 -251h-45z" />
    <glyph glyph-name="numbersign" unicode="#" horiz-adv-x="763" 
d="M269 461l25 200h46l-25 -200h180l25 200h46l-25 -200h146v-46h-152l-20 -163h134v-46h-140l-26 -206h-46l26 206h-180l-26 -206h-46l26 206h-161v46h167l20 163h-149v46h155zM489 415h-180l-20 -163h180z" />
    <glyph glyph-name="dollar" unicode="$" horiz-adv-x="525" 
d="M240 660l1 149h47l1 -149q89 -3 165 -39v-53q-85 43 -180 43q-77 0 -121 -29.5t-44 -85.5q0 -42 27 -70q13 -13 32.5 -24t35 -16.5t45 -15.5t44.5 -15q51 -18 89 -33q43 -18 69.5 -55t26.5 -87q0 -74 -52.5 -122t-136.5 -58l-1 -150h-47l-1 148q-104 1 -192 38v55
q102 -41 195 -41q83 0 130.5 34.5t47.5 92.5q0 43 -28 71q-13 14 -33.5 25.5t-32 16t-48 16t-43.5 13.5q-54 19 -88 33q-43 18 -69.5 55t-26.5 88q0 71 54 115q53 42 134 50z" />
    <glyph glyph-name="percent" unicode="%" horiz-adv-x="822" 
d="M773 155q0 -70 -39 -112.5t-107 -42.5t-107 42.5t-39 112.5t39 112t107 42t107 -42t39 -112zM627 272q-98 0 -98 -117t98 -117q97 0 97 117t-97 117zM341 506q0 -70 -39 -112t-107 -42t-107 42t-39 112t39 112.5t107 42.5t107 -42.5t39 -112.5zM195 624q-48 0 -73 -30.5
t-25 -87.5q0 -116 98 -116q97 0 97 116q0 118 -97 118zM208 2l380 688l37 -17l-380 -688z" />
    <glyph glyph-name="ampersand" unicode="&#x26;" horiz-adv-x="623" 
d="M485 648v-52q-72 39 -162 39q-62 0 -100 -31t-38 -87q0 -79 96 -181l94 -98q62 -62 90 -98q42 88 14 202v14h45q18 -63 11 -133t-39 -121q41 -55 61 -110q21 -51 12 -120t-50 -133l-13 1l-26 9q95 157 -13 314q-67 -75 -183 -75q-100 0 -162 58q-63 58 -63 147
q0 60 33.5 107.5t93.5 73.5q-54 74 -54 142q0 78 54 123q53 46 132 46q89 0 167 -37zM439 99q-33 42 -119 127q-82 82 -112 118q-94 -46 -94 -151q0 -73 48.5 -115t125.5 -42q98 0 151 63z" />
    <glyph glyph-name="quotesingle" unicode="'" horiz-adv-x="137" 
d="M46 485l-6 251h56l-5 -251h-45z" />
    <glyph glyph-name="parenleft" unicode="(" horiz-adv-x="239" 
d="M185 723h44q-58 -97 -92.5 -219.5t-34.5 -252.5q0 -133 34 -254q34 -124 88 -215h-45q-66 98 -102 220t-36 249q0 263 144 472z" />
    <glyph glyph-name="parenright" unicode=")" horiz-adv-x="240" 
d="M10 723h45q144 -209 144 -472q0 -126 -36.5 -248t-102.5 -221h-44q54 90 87 214q34 123 34 255q0 130 -34.5 253t-92.5 219z" />
    <glyph glyph-name="asterisk" unicode="*" horiz-adv-x="457" 
d="M49 570l18 55l141 -60l-8 147h57l-8 -147l141 60l18 -55l-146 -45l99 -125l-48 -33l-85 137l-85 -137l-47 33l99 125z" />
    <glyph glyph-name="plus" unicode="+" horiz-adv-x="616" 
d="M282 276v198h51v-198h197v-51h-197v-196h-51v196h-196v51h196z" />
    <glyph glyph-name="comma" unicode="," horiz-adv-x="179" 
d="M49 98l65 21q22 -33 14 -116q-8 -81 -48 -141l-35 19q24 41 28 85q11 83 -24 132z" />
    <glyph glyph-name="hyphen" unicode="-" horiz-adv-x="565" 
d="M92 229v44h382v-44h-382z" />
    <glyph glyph-name="period" unicode="." horiz-adv-x="194" 
d="M65 65q13 14 32 14t32 -14q14 -13 14 -32t-14 -32q-13 -13 -32 -13t-32 13t-13 32t13 32z" />
    <glyph glyph-name="slash" unicode="/" horiz-adv-x="346" 
d="M11 -218l267 941h57l-267 -941h-57z" />
    <glyph glyph-name="zero" unicode="0" horiz-adv-x="679" 
d="M339 671q89 0 153 -49q126 -94 126 -293q0 -140 -74 -241q-73 -100 -205 -100q-90 0 -154 49q-124 98 -124 292q0 141 74 242q73 100 204 100zM339 620q-105 0 -164 -83q-57 -83 -57 -208q0 -123 57 -207q59 -83 164 -83q107 0 164 83q58 83 58 207q0 126 -58 208
q-57 83 -164 83z" />
    <glyph glyph-name="one" unicode="1" horiz-adv-x="491" 
d="M98 548l-8 38l207 75v-661h-57v579z" />
    <glyph glyph-name="two" unicode="2" horiz-adv-x="535" 
d="M57 573l5 52q77 46 173 46q95 0 150 -53t55 -139q0 -107 -77 -202q-36 -43 -72 -78t-81 -75q-48 -44 -69 -68v-8l82 6h267l-10 -54h-422v40q21 21 92 89q76 70 92 86q37 37 71 78q73 88 73 185q0 67 -41 105t-119 38q-90 0 -169 -48z" />
    <glyph glyph-name="three" unicode="3" horiz-adv-x="521" 
d="M52 571l5 53q83 47 175 47t147 -40.5t55 -113.5q0 -55 -31 -93.5t-89 -54.5v-7q66 -10 106 -53t40 -108q0 -97 -73 -155q-71 -58 -194 -58q-75 0 -151 24l-4 50q68 -25 150 -25q96 0 155 44q60 45 60 118q0 74 -61.5 106t-194.5 32v42q233 0 233 134q0 108 -155 108
q-91 0 -173 -50z" />
    <glyph glyph-name="four" unicode="4" horiz-adv-x="591" 
d="M51 203l315 458h76v-457h108l-11 -48h-97v-156h-56v156h-335v47zM386 597h-8l-266 -384v-9h274v393z" />
    <glyph glyph-name="five" unicode="5" horiz-adv-x="537" 
d="M83 349l7 312h361l-5 -51h-307l-8 -203l5 -4q62 23 122.5 18t109 -27t78.5 -68t30 -106q0 -104 -78 -169q-76 -63 -200 -63q-71 0 -134 18l-5 49q65 -18 132 -18q107 0 167.5 48.5t60.5 132.5q0 57 -31.5 94.5t-81 50.5t-108 9.5t-115.5 -23.5z" />
    <glyph glyph-name="six" unicode="6" horiz-adv-x="591" 
d="M120 322l4 -2q36 44 86.5 67t103.5 23q98 0 158 -60q61 -58 61 -147q0 -93 -61 -154q-60 -61 -157 -61q-117 0 -185 80t-68 195q0 175 120 287q119 113 310 121l8 -46q-148 -5 -253 -83q-106 -79 -127 -220zM118 267q-5 -54 13 -105q19 -52 67 -91q50 -38 117 -38
q76 0 119 44t43 126q0 71 -44 114t-126 43q-117 0 -189 -93z" />
    <glyph glyph-name="seven" unicode="7" horiz-adv-x="509" 
d="M24 610l4 51h431v-53l-304 -623l-54 18l304 606l-1 6l-64 -5h-316z" />
    <glyph glyph-name="eight" unicode="8" horiz-adv-x="584" 
d="M355 357q90 47 90 144q0 60 -39 93.5t-108 33.5q-65 0 -105 -33t-40 -94q-5 -63 67 -103q18 -10 44 -18l44 -13q21 -4 47 -10zM286 330l-53 14q-117 -46 -117 -162q0 -72 52 -111q53 -38 127 -38q78 0 126 39t48 111q0 26 -11 50q-12 24 -26 37.5t-42 25.5q-28 13 -47 18
q-10 3 -57 16zM188 361v6q-41 21 -63.5 56.5t-22.5 77.5q0 77 57 124q58 46 140 46q87 0 143 -47q55 -46 55 -123q0 -46 -26 -87.5t-71 -65.5v-6q61 -21 92.5 -63.5t31.5 -97.5q0 -83 -64 -138q-62 -55 -166 -55q-96 0 -166 53q-68 54 -68 138q0 123 128 182z" />
    <glyph glyph-name="nine" unicode="9" horiz-adv-x="591" 
d="M99 -12l-8 46q147 5 252 83q108 80 127 220l-4 2q-36 -43 -87 -66.5t-103 -23.5q-97 0 -158 59q-60 60 -60 148q0 92 60 153q62 62 156 62q118 0 186 -80q69 -79 69 -195q0 -174 -120 -288q-120 -113 -310 -120zM473 392q5 55 -14 105q-18 53 -67 90q-48 39 -117 39
q-73 0 -117 -45t-44 -125q0 -71 44 -114t126 -43q118 0 189 93z" />
    <glyph glyph-name="colon" unicode=":" horiz-adv-x="194" 
d="M65 65q13 14 32 14t32 -14q14 -13 14 -32t-14 -32q-13 -13 -32 -13t-32 13t-13 32t13 32zM65 504q13 14 32 14t32 -14q14 -13 14 -32t-14 -32q-13 -13 -32 -13t-32 13t-13 32t13 32z" />
    <glyph glyph-name="semicolon" unicode=";" horiz-adv-x="184" 
d="M58 504q13 14 32 14t32 -14q14 -13 14 -32t-14 -32q-13 -13 -32 -13t-32 13t-13 32t13 32zM50 98l65 21q22 -33 14 -116q-7 -81 -48 -141l-35 19q24 41 28 85q11 83 -24 132z" />
    <glyph glyph-name="less" unicode="&#x3c;" horiz-adv-x="587" 
d="M86 247v47l415 241v-55l-357 -209l357 -210v-55z" />
    <glyph glyph-name="equal" unicode="=" horiz-adv-x="616" 
d="M86 321v49h444v-49h-444zM86 135v49h444v-49h-444z" />
    <glyph glyph-name="greater" unicode="&#x3e;" horiz-adv-x="587" 
d="M86 480v55l415 -241v-47l-415 -241v55l357 210z" />
    <glyph glyph-name="question" unicode="?" horiz-adv-x="456" 
d="M52 604l6 49q68 30 147 30q81 0 135 -39q55 -37 55 -120q0 -78 -71 -137q-2 -2 -24 -20.5t-27 -23.5t-22.5 -22t-23.5 -27.5t-16 -27.5t-13.5 -33.5t-3.5 -35.5l-48 -10q0 99 69 164q10 10 33.5 31t36 33.5t27.5 31t22 36.5t7 37q0 57 -38.5 85t-104.5 28q-71 0 -146 -29
zM140 58q16 20 39.5 11.5t29.5 -30t-11 -39.5q-12 -12 -29 -12t-29 12t-12 29t12 29z" />
    <glyph glyph-name="at" unicode="@" horiz-adv-x="962" 
d="M325 410l6 47q67 27 142 27q171 0 171 -128v-238l6 -59q97 11 152 83q57 74 57 183q0 73 -30.5 131t-83.5 93q-101 70 -237 70q-104 0 -197 -44q-89 -43 -148 -131q-57 -87 -57 -199q0 -169 105 -263q107 -96 261 -96q135 0 235 55l-8 -47q-104 -52 -230 -52
q-177 0 -295 109q-119 110 -119 294q0 118 62 216q63 96 166.5 149.5t224.5 53.5q152 0 270 -84q59 -41 94 -108t35 -147q0 -132 -83 -220q-83 -86 -214 -86l-14 72h-4q-64 -72 -149 -72q-72 0 -114 36t-42 99q0 65 49.5 102t128.5 37q50 0 126 -10v62q0 47 -29 70t-96 23
q-73 0 -141 -28zM591 141v103q-65 9 -124 9q-58 0 -92.5 -25.5t-34.5 -73.5q0 -45 30.5 -68t85.5 -23q41 0 77.5 21.5t57.5 56.5z" />
    <glyph glyph-name="A" unicode="A" horiz-adv-x="660" 
d="M31 0l268 661h63l267 -661h-64l-80 204h-312l-80 -204h-62zM331 607h-4q-2 -15 -10 -35l-126 -319h276l-126 319q-8 20 -10 35z" />
    <glyph glyph-name="B" unicode="B" horiz-adv-x="581" 
d="M259 613h-111v-248h115q188 0 188 130q0 63 -48.5 90.5t-143.5 27.5zM263 320h-115v-270h154q78 0 122 35.5t44 99.5q0 63 -54.5 99t-150.5 36zM92 0v661h175q242 0 242 -163q0 -57 -34 -96.5t-92 -52.5v-8q66 -11 106.5 -54t40.5 -103q0 -76 -57 -130t-158 -54h-223z
" />
    <glyph glyph-name="C" unicode="C" horiz-adv-x="627" 
d="M572 639v-51q-78 30 -164 30q-128 0 -208 -78q-79 -78 -79 -208q0 -144 80 -218q82 -74 212 -74q82 0 159 31v-52q-78 -31 -171 -31q-154 0 -246 91q-93 91 -93 252q0 147 96 243q96 97 247 97q86 0 167 -32z" />
    <glyph glyph-name="D" unicode="D" horiz-adv-x="711" 
d="M92 0v661h234q148 0 238 -93q91 -91 91 -233q0 -138 -91 -236q-90 -99 -233 -99h-239zM320 611h-172v-560h177q126 0 199 82t73 202q0 119 -75 197q-73 79 -202 79z" />
    <glyph glyph-name="E" unicode="E" 
d="M92 0v661h354v-50h-306l8 -48v-201h298v-50h-298v-261h319v-51h-375z" />
    <glyph glyph-name="F" unicode="F" horiz-adv-x="496" 
d="M92 0v661h354v-50h-306l8 -48v-210h277v-51h-277v-302h-56z" />
    <glyph glyph-name="G" unicode="G" horiz-adv-x="684" 
d="M570 640v-52q-75 30 -162 30q-128 0 -208 -78q-79 -76 -79 -208q0 -144 80 -218q82 -74 211 -74q84 0 151 26v223l55 12v-263q-97 -50 -216 -50q-155 0 -247 91q-93 91 -93 252q0 148 96 244t247 96q88 0 165 -31z" />
    <glyph glyph-name="H" unicode="H" horiz-adv-x="686" 
d="M92 0v661h56v-297h389v297h57v-661h-57v313h-389v-313h-56z" />
    <glyph glyph-name="I" unicode="I" horiz-adv-x="240" 
d="M92 0v661h56v-661h-56z" />
    <glyph glyph-name="J" unicode="J" horiz-adv-x="299" 
d="M151 188v473h56v-474q0 -76 -29 -129q-38 -70 -163 -70l-10 46q79 0 112.5 34t33.5 120z" />
    <glyph glyph-name="K" unicode="K" horiz-adv-x="549" 
d="M92 0v661h56v-661h-56zM404 602l47 59h66l-50 -65l-243 -256l257 -264l61 -76h-66l-322 335z" />
    <glyph glyph-name="L" unicode="L" horiz-adv-x="485" 
d="M92 0v661h56v-562l-8 -48h329v-51h-377z" />
    <glyph glyph-name="M" unicode="M" horiz-adv-x="900" 
d="M63 0l89 661h67l220 -559q7 -18 8 -35h6q1 17 8 35l220 559h68l88 -661h-62l-70 579h-5q-3 -21 -9 -36l-216 -543h-54l-215 543q-6 17 -8 36h-6l-68 -579h-61z" />
    <glyph glyph-name="N" unicode="N" horiz-adv-x="719" 
d="M92 0v661h71l385 -560q13 -17 18 -35h5v595h56v-661h-78l-379 552q-12 16 -17 35h-5v-587h-56z" />
    <glyph glyph-name="O" unicode="O" horiz-adv-x="758" 
d="M379 671q140 0 229 -95t89 -247q0 -147 -90 -244t-228 -97q-142 0 -230 94t-88 247q0 146 89 244q90 98 229 98zM121 329q0 -130 71 -210q70 -79 187 -79t187 79q71 80 71 210q0 131 -71 211t-187 80t-187 -80t-71 -211z" />
    <glyph glyph-name="P" unicode="P" horiz-adv-x="579" 
d="M92 0v661h205q105 0 165.5 -51t60.5 -143q0 -89 -63 -145q-62 -55 -162 -55h-150v-267h-56zM296 611h-148v-298h148q76 0 122 40.5t46 113.5q0 69 -44 106.5t-124 37.5z" />
    <glyph glyph-name="Q" unicode="Q" horiz-adv-x="758" 
d="M695 -158l-17 -44q-54 -14 -103 -17.5t-94.5 5.5t-77 31.5t-47 66.5t-7.5 105q-129 10 -209 103q-79 92 -79 237q0 146 89 244q90 98 229 98q140 0 229 -95t89 -247q0 -139 -82 -234t-210 -106q-14 -125 77 -152q77 -26 213 5zM121 329q0 -130 71 -210q70 -79 187 -79
t187 79q71 80 71 210q0 131 -71 211t-187 80t-187 -80t-71 -211z" />
    <glyph glyph-name="R" unicode="R" horiz-adv-x="576" 
d="M92 0v661h203q107 0 167 -47.5t60 -133.5q0 -81 -56 -131q-57 -51 -141 -55v-4l39 -39l126 -179l45 -72h-61l-207 291h-119v-291h-56zM297 611h-149v-276h153q74 0 118 38.5t44 106.5q0 64 -42.5 97.5t-123.5 33.5z" />
    <glyph glyph-name="S" unicode="S" horiz-adv-x="525" 
d="M454 631v-53q-85 43 -180 43q-77 0 -121 -29.5t-44 -85.5q0 -51 38 -83t92 -49t108.5 -36.5t92.5 -61t38 -106.5q0 -86 -68 -134t-163 -48q-105 0 -199 38v55q102 -41 195 -41q83 0 130.5 34.5t47.5 92.5q0 39 -20.5 66.5t-53 43t-71.5 28.5t-78.5 27.5t-72 34t-53 54.5
t-20.5 84q0 79 63 122q65 44 152 44q103 0 187 -40z" />
    <glyph glyph-name="T" unicode="T" horiz-adv-x="540" 
d="M18 611v50h504v-50h-224v-611h-56v611h-224z" />
    <glyph glyph-name="U" unicode="U" horiz-adv-x="669" 
d="M83 235v426h57v-426q0 -92 53 -143.5t142 -51.5q91 0 143.5 50.5t52.5 144.5v426h55v-425q0 -119 -70 -183q-71 -65 -181 -65q-115 0 -183.5 65.5t-68.5 181.5z" />
    <glyph glyph-name="V" unicode="V" horiz-adv-x="643" 
d="M290 0l-260 661h65l218 -569q8 -24 10 -35h4q2 14 9 35l216 569h61l-258 -661h-65z" />
    <glyph glyph-name="W" unicode="W" horiz-adv-x="945" 
d="M247 0l-223 661h62l183 -558q7 -21 7 -35h5q0 14 5 36l157 556h62l156 -556q6 -24 6 -36h4q0 16 6 35l185 558h59l-224 -661h-60l-156 552q-6 20 -6 36h-5q0 -16 -6 -36l-157 -552h-60z" />
    <glyph glyph-name="X" unicode="X" horiz-adv-x="594" 
d="M256 336l-223 325h68l161 -237q24 -36 32 -59l7 -2l195 298h65l-223 -325l239 -336h-69l-175 246q-22 31 -34 59l-6 1l-207 -306h-69z" />
    <glyph glyph-name="Y" unicode="Y" horiz-adv-x="566" 
d="M252 275l-247 386h64l191 -307q14 -21 20 -36h8q8 20 18 36l193 307h62l-251 -385v-276h-58v275z" />
    <glyph glyph-name="Z" unicode="Z" horiz-adv-x="587" 
d="M72 611v50h442v-55l-393 -552l4 -6q12 3 35 3h370v-51h-473v55l394 553l-3 5q-14 -2 -35 -2h-341z" />
    <glyph glyph-name="bracketleft" unicode="[" horiz-adv-x="250" 
d="M46 -218v941h193v-40h-137v-858h138v-43h-194z" />
    <glyph glyph-name="backslash" unicode="\" horiz-adv-x="346" 
d="M278 -218l-267 941h57l267 -941h-57z" />
    <glyph glyph-name="bracketright" unicode="]" horiz-adv-x="250" 
d="M11 683v40h193v-941h-194v43h138v858h-137z" />
    <glyph glyph-name="asciicircum" unicode="^" horiz-adv-x="665" 
d="M77 230l232 413h47l231 -414h-52l-203 360l-203 -359h-52z" />
    <glyph glyph-name="underscore" unicode="_" horiz-adv-x="600" 
d="M0 -96v49h600v-49h-600z" />
    <glyph glyph-name="grave" unicode="`" horiz-adv-x="261" 
d="M160 562l-114 133l46 33l97 -145z" />
    <glyph glyph-name="a" unicode="a" horiz-adv-x="547" 
d="M95 436l5 47q73 32 162 32q94 0 143 -35t49 -100v-285l12 -99l-45 -8l-16 79h-4q-70 -79 -172 -79q-77 0 -126 40.5t-49 109.5q0 79 53.5 120.5t145.5 41.5q39 0 147 -11v72q0 56 -33.5 82t-112.5 26q-86 0 -159 -33zM400 121v127q-83 11 -144 11q-148 0 -148 -118
q0 -53 35.5 -80.5t97.5 -27.5q104 0 159 88z" />
    <glyph glyph-name="b" unicode="b" horiz-adv-x="589" 
d="M93 30v681l54 12v-219q0 -44 -3 -72h7q74 83 174 83q94 0 151 -67q58 -65 58 -176q0 -125 -73 -204q-74 -80 -190 -80q-93 0 -178 42zM147 375v-314q49 -26 124 -26q96 0 152 64t56 173q0 93 -44 144.5t-122 51.5q-47 0 -91.5 -24t-74.5 -69z" />
    <glyph glyph-name="c" unicode="c" horiz-adv-x="482" 
d="M445 483l4 -51q-66 36 -143 36q-79 0 -138 -53q-57 -53 -57 -163q0 -105 56 -161t142 -56q79 0 137 34l-3 -49q-62 -32 -141 -32q-114 0 -181 72q-66 74 -66 192q0 116 69 189q71 74 177 74q77 0 144 -32z" />
    <glyph glyph-name="d" unicode="d" horiz-adv-x="594" 
d="M443 561v150l54 12v-620l13 -104l-43 -10l-16 80h-5q-62 -81 -167 -81q-101 0 -163 71q-61 71 -61 191q0 121 70 192q70 73 181 73q67 0 133 -24h6q-2 38 -2 70zM443 127v316q-54 25 -134 25q-86 0 -142 -53t-56 -165q0 -101 48.5 -158t129.5 -57q110 0 154 92z" />
    <glyph glyph-name="e" unicode="e" horiz-adv-x="526" 
d="M474 262h-366q0 -111 52 -169t154 -58q82 0 147 35l-5 -48q-68 -34 -151 -34q-113 0 -182 70q-68 71 -68 194q0 115 65 189q66 74 164 74q92 0 143 -56t51 -155q0 -22 -4 -42zM111 301l312 4q0 165 -143 165q-61 0 -110 -43q-48 -41 -59 -126z" />
    <glyph glyph-name="f" unicode="f" horiz-adv-x="332" 
d="M25 460v33l89 10v57q0 84 30.5 123.5t103.5 39.5q46 0 91 -13l4 -38q-41 9 -79 9q-57 0 -76.5 -27t-19.5 -95v-56h151l-13 -47l-138 7v-463h-54v455z" />
    <glyph glyph-name="g" unicode="g" horiz-adv-x="536" 
d="M357 495l118 12h34l-7 -49l-104 10q55 -46 55 -119q0 -67 -54 -117q-53 -48 -135 -48q-30 0 -62 8q-70 -10 -70 -54q0 -14 8 -24t16.5 -14t26.5 -11q12 -4 34 -5q16 -1 35 -1h39q209 0 209 -126q0 -66 -64 -121q-65 -56 -184 -56q-55 0 -101 13q-50 14 -84 48t-34 80
q0 43 28 78.5t87 52.5v5q-32 7 -49.5 25.5t-17.5 42.5q0 57 78 79v3q-41 18 -63.5 56.5t-22.5 85.5q0 73 52 119q53 47 137 47q52 0 95 -20zM202 43q-117 -30 -117 -116q0 -72 73 -92q52 -14 100 -14q91 0 140 37t49 96q0 44 -38 65t-128 21q-35 0 -79 3zM125 349
q0 -56 35.5 -91.5t101.5 -35.5q67 0 102.5 35.5t35.5 91.5q0 58 -35 92t-103 34q-67 0 -102 -34t-35 -92z" />
    <glyph glyph-name="h" unicode="h" horiz-adv-x="592" 
d="M93 0v711l54 12v-219q0 -44 -3 -72h6q71 83 175 83q78 0 125.5 -41t47.5 -117v-357h-54v355q0 53 -33 83t-96 30q-53 0 -98.5 -25.5t-69.5 -67.5v-375h-54z" />
    <glyph glyph-name="i" unicode="i" horiz-adv-x="252" 
d="M99 0v503l54 13v-516h-54zM97 630q-12 12 -12 29t12 29t29 12t29 -12t12 -29t-12 -29t-29 -12t-29 12z" />
    <glyph glyph-name="j" unicode="j" horiz-adv-x="252" 
d="M99 -22v525l54 13v-531q0 -100 -43 -152.5t-119 -52.5l-7 42q115 0 115 156zM97 630q-12 12 -12 29t12 29t29 12t29 -12t12 -29t-12 -29t-29 -12t-29 12z" />
    <glyph glyph-name="k" unicode="k" horiz-adv-x="494" 
d="M93 0v711l54 12v-723h-54zM410 0l-251 287l189 173l39 44h58l-40 -51l-180 -163l189 -213l58 -77h-62z" />
    <glyph glyph-name="l" unicode="l" horiz-adv-x="244" 
d="M93 75v636l54 12v-625l13 -97l-48 -13z" />
    <glyph glyph-name="m" unicode="m" horiz-adv-x="893" 
d="M99 384l-13 106l48 10l11 -68h5q62 83 165 83t146 -84h6q71 84 176 84q63 0 109 -41q46 -40 46 -117v-357h-54v356q0 52 -28.5 82t-81.5 30q-51 0 -93.5 -24t-65.5 -66v-378h-54v356q0 53 -30 82.5t-87 29.5q-51 0 -90.5 -24t-60.5 -66v-378h-54v384z" />
    <glyph glyph-name="n" unicode="n" horiz-adv-x="598" 
d="M99 384l-13 106l48 10l11 -68h5q80 83 182 83q77 0 124.5 -41t47.5 -117v-357h-54v355q0 53 -32.5 83t-95.5 30q-52 0 -97 -25t-72 -65v-378h-54v384z" />
    <glyph glyph-name="o" unicode="o" horiz-adv-x="586" 
d="M293 515q105 0 171 -73q67 -71 67 -191q0 -118 -67 -191q-66 -72 -171 -72q-103 0 -171 72q-67 73 -67 191q0 120 67 191q67 73 171 73zM111 251q0 -96 50 -157q50 -59 132 -59t132 59q50 61 50 157q0 97 -50 158q-49 61 -132 61t-132 -61q-50 -61 -50 -158z" />
    <glyph glyph-name="p" unicode="p" horiz-adv-x="596" 
d="M99 398l-13 93l43 10l15 -68h6q66 82 173 82q101 0 159 -72q59 -73 59 -190q0 -119 -69 -192t-181 -73q-67 0 -134 24h-7q3 -30 3 -76v-144l-54 -12v618zM153 376v-316q51 -25 134 -25q93 0 145.5 55.5t52.5 162.5q0 101 -46 158t-126 57q-53 0 -96 -25t-64 -67z" />
    <glyph glyph-name="q" unicode="q" horiz-adv-x="589" 
d="M496 473v-681l-54 -12v219q0 33 2 71h-6q-72 -82 -174 -82q-94 0 -152 66q-57 66 -57 178q0 124 72 204q73 79 191 79q94 0 178 -42zM442 128v316q-54 25 -124 25q-96 0 -152 -64t-56 -172q0 -94 44 -146t122 -52q104 0 166 93z" />
    <glyph glyph-name="r" unicode="r" horiz-adv-x="351" 
d="M99 383l-13 108l46 9l12 -82h4q54 90 127 90q36 0 62 -17l-14 -46l-44 8q-43 0 -77 -24.5t-49 -66.5v-362h-54v383z" />
    <glyph glyph-name="s" unicode="s" horiz-adv-x="453" 
d="M384 483l3 -49q-67 37 -147 37q-56 0 -90 -21t-34 -61q0 -70 101 -101q91 -28 120 -46q65 -39 65 -111q0 -66 -50.5 -104.5t-137.5 -38.5q-84 0 -160 27l-4 50q71 -31 158 -31q142 0 142 95q0 68 -101 99q-92 28 -123 49q-62 39 -62 110q0 63 51 95q51 33 123 33
q73 0 146 -32z" />
    <glyph glyph-name="t" unicode="t" horiz-adv-x="380" 
d="M112 498l12 132l34 12h14l-6 -143h186l-14 -47l-172 7v-298q0 -71 20.5 -98.5t77.5 -27.5q51 0 90 19l-3 -45q-51 -21 -102 -21q-78 0 -108.5 40.5t-30.5 125.5l2 296l-90 6v33z" />
    <glyph glyph-name="u" unicode="u" horiz-adv-x="592" 
d="M94 152v351l54 13v-365q0 -116 128 -116q53 0 97.5 25t69.5 66v377l54 13v-520l-34 -7l-14 82h-4q-77 -83 -178 -83q-80 0 -126.5 42.5t-46.5 121.5z" />
    <glyph glyph-name="v" unicode="v" horiz-adv-x="490" 
d="M219 0l-196 504h57l155 -408q10 -24 10 -36h6q1 9 10 36l151 408h55l-197 -504h-51z" />
    <glyph glyph-name="w" unicode="w" horiz-adv-x="773" 
d="M196 0l-172 504h58l135 -409q7 -20 8 -36h5q1 17 7 36l125 409h56l124 -409q6 -19 7 -36h5q1 14 7 36l132 409h56l-171 -504h-58l-123 404q-6 16 -6 35h-5q0 -19 -6 -35l-126 -404h-58z" />
    <glyph glyph-name="x" unicode="x" horiz-adv-x="469" 
d="M199 260l-164 244h60l116 -176q17 -26 21 -42l4 -1l142 219h56l-165 -244l176 -260h-61l-131 197q-12 18 -17 34l-4 2l-151 -233h-57z" />
    <glyph glyph-name="y" unicode="y" horiz-adv-x="494" 
d="M216 11l-191 493h58l147 -392q13 -32 13 -54l4 -2l167 448h56l-236 -593q-27 -67 -60 -99t-79 -32q-41 0 -75 15l-7 47q37 -15 74 -15q68 0 98 77l41 101z" />
    <glyph glyph-name="z" unicode="z" horiz-adv-x="494" 
d="M70 460v44h358v-43l-306 -418l3 -4q11 6 38 6h271v-45h-372v44l306 418l-3 4q-13 -6 -39 -6h-256z" />
    <glyph glyph-name="braceleft" unicode="{" horiz-adv-x="355" 
d="M345 723v-40q-98 0 -138 -34q-39 -35 -39 -119q0 -5 5 -77q6 -65 6 -72q0 -57 -14 -88t-49 -37v-7q35 -6 49 -37t14 -89q0 -1 -0.5 -8.5t-2 -25.5t-2.5 -36q-5 -72 -5 -78q0 -85 39 -119q38 -34 137 -34v-40q-125 0 -181 41t-56 153q0 6 6 74t6 87q0 96 -80 96v39
q80 0 80 95q0 21 -6 87q-6 68 -6 75q0 112 56 153t181 41z" />
    <glyph glyph-name="bar" unicode="|" horiz-adv-x="245" 
d="M97 -264v1001h52v-1001h-52z" />
    <glyph glyph-name="braceright" unicode="}" horiz-adv-x="355" 
d="M10 683v40q124 0 180 -41t56 -153q0 -7 -6 -75q-6 -66 -6 -87q0 -95 80 -95v-39q-80 0 -80 -96q0 -19 6 -87t6 -74q0 -112 -56 -153t-180 -41v40q99 0 137 34q39 34 39 119q0 6 -5 78q-1 18 -2.5 36t-2 25.5t-0.5 8.5q0 58 14 89t48 37v7q-35 6 -48.5 36.5t-13.5 88.5
l5 72q6 65 6 77q0 85 -40 119q-38 34 -137 34z" />
    <glyph glyph-name="asciitilde" unicode="~" horiz-adv-x="604" 
d="M80 205v56q38 42 116 42q41 0 113 -28q75 -27 100 -27q75 0 115 49v-56q-42 -42 -115 -42q-37 0 -114 27t-100 27q-77 0 -115 -48z" />
    <glyph glyph-name="exclamdown" unicode="&#xa1;" horiz-adv-x="266" 
d="M100 -205l13 490h39l13 -490h-65zM103 476q16 20 39.5 11.5t29.5 -30t-11 -39.5q-12 -12 -29 -12t-29 12t-12 29t12 29z" />
    <glyph glyph-name="cent" unicode="&#xa2;" horiz-adv-x="482" 
d="M265 654l1 131h44l1 -129q71 -1 134 -32l4 -50q-65 35 -143 35q-79 0 -138 -53q-57 -52 -57 -162q0 -104 56 -162q56 -56 142 -56q79 0 137 34l-3 -48q-55 -28 -132 -33l-1 -129h-44l-1 132q-100 11 -155 81t-55 180q0 105 58 176t152 85z" />
    <glyph glyph-name="sterling" unicode="&#xa3;" horiz-adv-x="544" 
d="M79 308v35l75 6q-26 86 -26 135q0 87 49.5 139.5t145.5 52.5q77 0 149 -28l3 -49q-75 27 -145 27q-144 0 -144 -138q0 -63 23 -138h242l-9 -48h-220q9 -39 9 -74q2 -73 -104 -177v-8l95 10h268v-53h-417v56q50 43 77 89q22 40 24.5 80t-8.5 76z" />
    <glyph glyph-name="currency" unicode="&#xa4;" horiz-adv-x="582" 
d="M85 529l43 43l64 -75q41 34 99 34q56 0 99 -34l64 76l43 -44l-75 -64q34 -44 34 -99q0 -56 -34 -99l76 -65l-43 -43l-66 76q-42 -33 -98 -33q-57 0 -99 33l-64 -75l-44 43l76 64q-33 42 -33 99q0 53 32 99zM176 366q2 -48 34 -82q33 -33 80 -33q46 0 81 33q34 34 34 82
t-34 81q-34 34 -81 34t-81 -34q-33 -33 -33 -81z" />
    <glyph glyph-name="yen" unicode="&#xa5;" horiz-adv-x="566" 
d="M174 396l-169 265h64l191 -307q14 -21 20 -36h8q8 20 18 36l193 307h62l-173 -265h107v-44h-136l-49 -76v-67h185v-44h-185v-165h-58v165h-187v44h187v66l-50 77h-137v44h109z" />
    <glyph glyph-name="brokenbar" unicode="&#xa6;" horiz-adv-x="244" 
d="M97 270v337h50v-337h-50zM97 -219v338h50v-338h-50z" />
    <glyph glyph-name="section" unicode="&#xa7;" horiz-adv-x="537" 
d="M464 710v-53q-84 45 -180 45q-79 0 -123.5 -30t-44.5 -86q0 -92 132 -134q114 -33 156 -58q87 -51 86 -144q0 -81 -75 -137q63 -48 63 -129q0 -77 -65 -130q-64 -52 -169 -52q-99 0 -196 38v54q99 -41 194 -41q83 0 131 35t48 93q0 39 -20.5 67t-53.5 43.5t-73 28
t-79.5 27t-72.5 33.5t-53.5 54t-20.5 84q0 82 80 132q-69 48 -69 134q0 80 64 123q65 44 154 44q97 0 187 -41zM162 431q-58 -31 -58 -112q0 -42 28 -73.5t68 -45.5l94 -32q58 -18 89 -34q49 39 49 113q0 72 -64 105q-32 16 -63 27q-3 1 -30 10.5t-44 14.5q-42 14 -69 27z
" />
    <glyph glyph-name="dieresis" unicode="&#xa8;" horiz-adv-x="360" 
d="M56 613q-12 13 -12 31t12 30q13 13 31 13t30 -13q13 -12 13 -30t-13 -31q-12 -12 -30 -12t-31 12zM242 613q-12 13 -12 31t12 30q13 13 31 13t30 -13q13 -12 13 -30t-13 -31q-12 -12 -30 -12t-31 12z" />
    <glyph glyph-name="copyright" unicode="&#xa9;" horiz-adv-x="779" 
d="M59 348q0 136 97 233t234 97q134 0 232 -98t98 -232q0 -133 -98 -233q-98 -98 -232 -98q-136 0 -234 98q-97 97 -97 233zM93 347q0 -120 88 -208t209 -88q120 0 208 88t88 209q0 118 -89 207t-207 89q-122 0 -210 -88q-87 -88 -87 -209zM505 538v-33q-49 18 -100 18
q-82 0 -131 -46.5t-49 -127.5q0 -86 49 -131.5t133 -45.5q50 0 98 18v-34q-48 -19 -106 -19q-99 0 -156 56t-57 155q0 92 59 151q61 59 156 59q50 0 104 -20z" />
    <glyph glyph-name="ordfeminine" unicode="&#xaa;" horiz-adv-x="392" 
d="M77 545l4 36q42 19 98 19q62 0 93.5 -23t31.5 -64v-163l7 -60l-36 -5l-10 47h-4q-38 -47 -99 -47q-48 0 -78.5 24.5t-30.5 65.5q0 95 119 95q16 0 90 -6v38q0 33 -20 48t-66 15q-51 0 -99 -20zM262 370v64q-49 7 -87 7q-81 0 -81 -65q0 -27 19.5 -42.5t52.5 -15.5
q62 0 96 52z" />
    <glyph glyph-name="guillemotleft" unicode="&#xab;" horiz-adv-x="597" 
d="M49 189l182 186h60l-177 -186l176 -183h-60zM296 189l182 186h60l-177 -186l176 -183h-60z" />
    <glyph glyph-name="logicalnot" unicode="&#xac;" horiz-adv-x="597" 
d="M64 313v51h444v-226h-51v175h-393z" />
    <glyph glyph-name="registered" unicode="&#xae;" horiz-adv-x="635" 
d="M134 634q76 76 183 76t183 -76t76 -183t-76 -183q-76 -75 -183 -75t-183 75q-75 76 -75 183t75 183zM477 611q-66 67 -160 67t-160 -67q-66 -66 -66 -160t66 -160t160 -66t160 66q67 66 67 160t-67 160zM216 298v307h104q52 0 81.5 -22t29.5 -64q0 -36 -21.5 -58
t-59.5 -28v-1l18 -19l55 -81l19 -34h-32l-87 133h-76v-133h-31zM319 578h-72v-123h74q78 0 78 64q0 59 -80 59z" />
    <glyph glyph-name="overscore" unicode="&#xaf;" horiz-adv-x="433" 
d="M56 620v47h320v-47h-320z" />
    <glyph glyph-name="degree" unicode="&#xb0;" horiz-adv-x="337" 
d="M168 627q45 0 77 -32q33 -31 33 -78q0 -45 -32.5 -77t-77.5 -32q-46 0 -77.5 31.5t-31.5 77.5t31.5 78t77.5 32zM168 588q-30 2 -50.5 -20.5t-19.5 -50.5t20 -50q22 -19 50 -20t50.5 19.5t20.5 50.5q0 29 -21 50t-50 21z" />
    <glyph glyph-name="plusminus" unicode="&#xb1;" horiz-adv-x="609" 
d="M280 360v198h51v-198h197v-51h-197v-196h-51v196h-197v51h197zM83 0v50h445v-50h-445z" />
    <glyph glyph-name="twosuperior" unicode="&#xb2;" horiz-adv-x="378" 
d="M67 744l4 41q50 31 110 31q53 0 85.5 -30t32.5 -76q0 -69 -66 -133l-57 -53q-33 -30 -47 -47v-5l71 5h129l-5 -45h-257v37q20 23 74 71q58 51 83.5 87.5t25.5 74.5q0 72 -84 72q-48 0 -99 -30z" />
    <glyph glyph-name="threesuperior" unicode="&#xb3;" horiz-adv-x="379" 
d="M76 750l5 40q47 26 105 26q54 0 88 -24t34 -63q0 -69 -71 -90v-5q38 -6 60 -29t22 -58q0 -54 -43 -87.5t-112 -33.5q-48 0 -93 14l-5 39q42 -15 94 -15q53 0 83 21.5t30 58.5q0 72 -142 72v34q132 0 132 73q0 25 -21.5 39t-60.5 14q-55 0 -105 -26z" />
    <glyph glyph-name="acute" unicode="&#xb4;" horiz-adv-x="263" 
d="M46 583l97 145l45 -33l-114 -133z" />
    <glyph glyph-name="mu" unicode="&#xb5;" horiz-adv-x="593" 
d="M95 -211v714l54 12v-364q0 -116 128 -116q53 0 97.5 25t69.5 66v377l54 12v-520l-34 -6l-14 82h-4q-80 -83 -173 -83q-76 0 -120 47h-4v-255z" />
    <glyph glyph-name="paragraph" unicode="&#xb6;" horiz-adv-x="545" 
d="M260 699h188v-683l10 -88l-45 -8l-20 104v621h-133v-364q-86 0 -143 57q-56 59 -56 151q0 93 56 152q57 58 143 58z" />
    <glyph glyph-name="middot" unicode="&#xb7;" horiz-adv-x="268" 
d="M84 201q-21 21 -21 50t21 50t50 21t50 -21t21 -50t-21 -50t-50 -21t-50 21z" />
    <glyph glyph-name="cedilla" unicode="&#xb8;" horiz-adv-x="200" 
d="M49 -71l17 101h31l2 -71q42 -3 66.5 -26t24.5 -55q0 -98 -172 -98l-8 33q133 4 133 61q0 25 -25 39.5t-69 15.5z" />
    <glyph glyph-name="onesuperior" unicode="&#xb9;" horiz-adv-x="339" 
d="M95 722l-7 28l162 60v-378h-48v306z" />
    <glyph glyph-name="ordmasculine" unicode="&#xba;" horiz-adv-x="408" 
d="M203 600q68 0 108.5 -42.5t40.5 -115.5q0 -66 -42 -112q-40 -45 -107 -45q-68 0 -108 42t-40 115q0 64 41 111q42 47 107 47zM203 563q-47 0 -76 -34t-29 -87q0 -54 28.5 -87.5t76.5 -33.5t76.5 33.5t28.5 87.5q0 52 -29 86.5t-76 34.5z" />
    <glyph glyph-name="guillemotright" unicode="&#xbb;" horiz-adv-x="597" 
d="M483 189l-177 186h60l182 -186l-181 -183h-60zM235 189l-177 186h61l182 -186l-181 -183h-61z" />
    <glyph glyph-name="onequarter" unicode="&#xbc;" horiz-adv-x="771" 
d="M198 0l380 661h45l-380 -661h-45zM95 573l-7 28l162 60v-378h-48v306zM445 126l162 253h68v-254h75l-11 -39h-64v-86h-47v86h-183v40zM628 332h-9l-127 -200v-7h136v207z" />
    <glyph glyph-name="onehalf" unicode="&#xbd;" horiz-adv-x="853" 
d="M197 0l381 661h46l-381 -661h-46zM95 573l-7 28l162 60v-378h-48v306zM542 312l4 41q50 31 110 31q53 0 85.5 -30t32.5 -76q0 -69 -66 -133l-57 -53q-33 -30 -47 -47v-5l71 5h129l-5 -45h-257v37q20 23 74 71q58 51 83.5 87.5t25.5 74.5q0 72 -84 72q-48 0 -99 -30z" />
    <glyph glyph-name="threequarters" unicode="&#xbe;" horiz-adv-x="788" 
d="M211 0l380 661h45l-380 -661h-45zM462 126l162 253h68v-254h75l-11 -39h-64v-86h-47v86h-183v40zM645 332h-9l-127 -200v-7h136v207zM76 601l5 40q47 26 105 26q54 0 88 -24t34 -63q0 -69 -71 -90v-5q38 -6 60 -29t22 -58q0 -54 -43 -87.5t-112 -33.5q-48 0 -93 14l-5 39
q42 -15 94 -15q53 0 83 21.5t30 58.5q0 72 -142 72v34q132 0 132 73q0 25 -21.5 39t-60.5 14q-55 0 -105 -26z" />
    <glyph glyph-name="questiondown" unicode="&#xbf;" horiz-adv-x="456" 
d="M261 277l49 10q0 -98 -69 -163q-7 -7 -41 -38t-45.5 -43.5t-25.5 -38.5t-14 -50q0 -57 38.5 -85t104.5 -28q71 0 146 29l-7 -49q-67 -30 -147 -30q-81 0 -135 39q-54 38 -54 120q0 78 70 137q3 2 19 15.5t20.5 17.5t19 16.5t19.5 19t16 19.5t15.5 23t10.5 23t8 27t2 29z
M256 473q16 20 39.5 11.5t29.5 -30t-11 -39.5q-12 -12 -29 -12t-29 12t-12 29t12 29z" />
    <glyph glyph-name="Agrave" unicode="&#xc0;" horiz-adv-x="660" 
d="M31 0l268 661h63l267 -661h-64l-80 204h-312l-80 -204h-62zM331 607h-4q-2 -15 -10 -35l-126 -319h276l-126 319q-8 20 -10 35zM221 800l37 44l129 -121l-23 -27z" />
    <glyph glyph-name="Aacute" unicode="&#xc1;" horiz-adv-x="660" 
d="M297 696l-23 27l129 121l36 -44zM31 0l268 661h63l267 -661h-64l-80 204h-312l-80 -204h-62zM331 607h-4q-2 -15 -10 -35l-126 -319h276l-126 319q-8 20 -10 35z" />
    <glyph glyph-name="Acircumflex" unicode="&#xc2;" horiz-adv-x="660" 
d="M31 0l268 661h63l267 -661h-64l-80 204h-312l-80 -204h-62zM331 607h-4q-2 -15 -10 -35l-126 -319h276l-126 319q-8 20 -10 35zM201 713l106 126h46l106 -126l-34 -13l-78 72l-14 18h-6l-14 -18l-78 -72z" />
    <glyph glyph-name="Atilde" unicode="&#xc3;" horiz-adv-x="660" 
d="M177 725h-7l-3 41q38 50 97 50q24 0 78 -23t72 -23q46 0 70 45h7l2 -41q-38 -50 -95 -50q-23 0 -77 23t-71 23q-49 0 -73 -45zM31 0l268 661h63l267 -661h-64l-80 204h-312l-80 -204h-62zM331 607h-4q-2 -15 -10 -35l-126 -319h276l-126 319q-8 20 -10 35z" />
    <glyph glyph-name="Adieresis" unicode="&#xc4;" horiz-adv-x="660" 
d="M31 0l268 661h63l267 -661h-64l-80 204h-312l-80 -204h-62zM331 607h-4q-2 -15 -10 -35l-126 -319h276l-126 319q-8 20 -10 35zM211 740q-12 13 -12 30t12 29q13 13 30 13t29 -13q13 -12 13 -29t-13 -30q-12 -12 -29 -12t-30 12zM389 740q-12 13 -12 30t12 29
q13 13 30 13t29 -13q13 -12 13 -29t-13 -30q-12 -12 -29 -12t-30 12z" />
    <glyph glyph-name="Aring" unicode="&#xc5;" horiz-adv-x="660" 
d="M31 0l268 661h7q-33 8 -54.5 35t-21.5 62q0 41 29.5 70.5t70.5 29.5t70.5 -29.5t29.5 -70.5q0 -35 -21.5 -62t-54.5 -35h8l267 -661h-64l-80 204h-312l-80 -204h-62zM331 607h-4q-2 -15 -10 -35l-126 -319h276l-126 319q-8 20 -10 35zM285 802q-18 -18 -18 -44t18 -45
q19 -18 45 -18t44 18q19 19 19 45t-19 44q-18 19 -44 19t-45 -19z" />
    <glyph glyph-name="AE" unicode="&#xc6;" horiz-adv-x="903" 
d="M31 0l374 661h426v-50h-305l8 -48v-201h297v-50h-297v-261h318v-51h-375v204h-268l-115 -204h-63zM408 558l-171 -305h240v358h-51q-2 -23 -18 -53z" />
    <glyph glyph-name="Ccedilla" unicode="&#xc7;" horiz-adv-x="627" 
d="M572 639v-51q-78 30 -164 30q-128 0 -208 -78q-79 -78 -79 -208q0 -144 80 -218q82 -74 212 -74q82 0 159 31v-52q-78 -31 -171 -31h-9l1 -30q42 -3 66.5 -26t24.5 -55q0 -99 -169 -99l-8 30q136 4 136 64q0 26 -26 42t-71 17l10 59q-136 14 -215 103t-79 238
q0 147 96 243q96 97 247 97q86 0 167 -32z" />
    <glyph glyph-name="Egrave" unicode="&#xc8;" 
d="M169 800l37 44l128 -121l-22 -27zM92 0v661h354v-50h-306l8 -48v-201h298v-50h-298v-261h319v-51h-375z" />
    <glyph glyph-name="Eacute" unicode="&#xc9;" 
d="M228 696l-22 27l129 121l36 -44zM92 0v661h354v-50h-306l8 -48v-201h298v-50h-298v-261h319v-51h-375z" />
    <glyph glyph-name="Ecircumflex" unicode="&#xca;" 
d="M140 713l106 126h46l106 -126l-34 -13l-78 72l-14 18h-6l-14 -18l-78 -72zM92 0v661h354v-50h-306l8 -48v-201h298v-50h-298v-261h319v-51h-375z" />
    <glyph glyph-name="Edieresis" unicode="&#xcb;" 
d="M92 0v661h354v-50h-306l8 -48v-201h298v-50h-298v-261h319v-51h-375zM150 740q-12 13 -12 30t12 29q13 13 30 13t29 -13q13 -12 13 -29t-13 -30q-12 -12 -29 -12t-30 12zM328 740q-12 13 -12 30t12 29q13 13 30 13t29 -13q13 -12 13 -29t-13 -30q-12 -12 -29 -12t-30 12z
" />
    <glyph glyph-name="Igrave" unicode="&#xcc;" horiz-adv-x="240" 
d="M11 800l36 44l129 -121l-23 -27zM92 0v661h56v-661h-56z" />
    <glyph glyph-name="Iacute" unicode="&#xcd;" horiz-adv-x="240" 
d="M86 696l-22 27l129 121l36 -44zM92 0v661h56v-661h-56z" />
    <glyph glyph-name="Icircumflex" unicode="&#xce;" horiz-adv-x="240" 
d="M-9 713l106 126h46l106 -126l-34 -13l-78 72l-14 18h-6l-14 -18l-78 -72zM92 0v661h56v-661h-56z" />
    <glyph glyph-name="Idieresis" unicode="&#xcf;" horiz-adv-x="240" 
d="M1 740q-12 13 -12 30t12 29q13 13 30 13t29 -13q13 -12 13 -29t-13 -30q-12 -12 -29 -12t-30 12zM179 740q-12 13 -12 30t12 29q13 13 30 13t29 -13q13 -12 13 -29t-13 -30q-12 -12 -29 -12t-30 12zM92 0v661h56v-661h-56z" />
    <glyph glyph-name="Eth" unicode="&#xd0;" horiz-adv-x="719" 
d="M100 355v306h234q148 0 238 -93q91 -91 91 -233q0 -138 -91 -236q-90 -99 -233 -99h-239v310h-122v45h122zM328 611h-172v-256h191v-45h-191v-259h177q126 0 199 82t73 202q0 119 -75 197q-73 79 -202 79z" />
    <glyph glyph-name="Ntilde" unicode="&#xd1;" horiz-adv-x="719" 
d="M207 725h-7l-2 41q36 50 96 50q25 0 79 -23t71 -23q46 0 70 45h7l2 -41q-36 -50 -95 -50q-22 0 -77 23q-54 23 -71 23q-49 0 -73 -45zM92 0v661h71l385 -560q13 -17 18 -35h5v595h56v-661h-78l-379 552q-12 16 -17 35h-5v-587h-56z" />
    <glyph glyph-name="Ograve" unicode="&#xd2;" horiz-adv-x="758" 
d="M283 800l37 44l128 -121l-22 -27zM379 671q140 0 229 -95t89 -247q0 -147 -90 -244t-228 -97q-142 0 -230 94t-88 247q0 146 89 244q90 98 229 98zM121 329q0 -130 71 -210q70 -79 187 -79t187 79q71 80 71 210q0 131 -71 211t-187 80t-187 -80t-71 -211z" />
    <glyph glyph-name="Oacute" unicode="&#xd3;" horiz-adv-x="758" 
d="M331 696l-22 27l128 121l37 -44zM379 671q140 0 229 -95t89 -247q0 -147 -90 -244t-228 -97q-142 0 -230 94t-88 247q0 146 89 244q90 98 229 98zM121 329q0 -130 71 -210q70 -79 187 -79t187 79q71 80 71 210q0 131 -71 211t-187 80t-187 -80t-71 -211z" />
    <glyph glyph-name="Ocircumflex" unicode="&#xd4;" horiz-adv-x="758" 
d="M379 671q140 0 229 -95t89 -247q0 -147 -90 -244t-228 -97q-142 0 -230 94t-88 247q0 146 89 244q90 98 229 98zM121 329q0 -130 71 -210q70 -79 187 -79t187 79q71 80 71 210q0 131 -71 211t-187 80t-187 -80t-71 -211zM250 713l106 126h46l106 -126l-34 -13l-78 72
l-14 18h-6l-14 -18l-78 -72z" />
    <glyph glyph-name="Otilde" unicode="&#xd5;" horiz-adv-x="758" 
d="M225 725h-7l-2 41q36 50 97 50q24 0 78 -23t71 -23q46 0 70 45h8l2 -41q-38 -50 -95 -50q-23 0 -77 23t-71 23q-49 0 -74 -45zM379 671q140 0 229 -95t89 -247q0 -147 -90 -244t-228 -97q-142 0 -230 94t-88 247q0 146 89 244q90 98 229 98zM121 329q0 -130 71 -210
q70 -79 187 -79t187 79q71 80 71 210q0 131 -71 211t-187 80t-187 -80t-71 -211z" />
    <glyph glyph-name="Odieresis" unicode="&#xd6;" horiz-adv-x="758" 
d="M379 671q140 0 229 -95t89 -247q0 -147 -90 -244t-228 -97q-142 0 -230 94t-88 247q0 146 89 244q90 98 229 98zM121 329q0 -130 71 -210q70 -79 187 -79t187 79q71 80 71 210q0 131 -71 211t-187 80t-187 -80t-71 -211zM260 740q-12 13 -12 30t12 29q13 13 30 13t29 -13
q13 -12 13 -29t-13 -30q-12 -12 -29 -12t-30 12zM438 740q-12 13 -12 30t12 29q13 13 30 13t29 -13q13 -12 13 -29t-13 -30q-12 -12 -29 -12t-30 12z" />
    <glyph glyph-name="multiply" unicode="&#xd7;" horiz-adv-x="615" 
d="M81 446l36 37l191 -192l190 190l36 -36l-190 -190l189 -188l-36 -37l-189 190l-190 -191l-36 37l190 190z" />
    <glyph glyph-name="Oslash" unicode="&#xd8;" horiz-adv-x="758" 
d="M539 631l70 116l32 -17l-72 -119q128 -95 128 -282q0 -147 -90 -244t-228 -97q-90 0 -160 40l-69 -115l-33 18l70 117q-126 93 -126 281q0 146 89 244q90 98 229 98q90 0 160 -40zM541 564l-295 -490q58 -34 133 -34q117 0 187 79q71 80 71 210q0 155 -96 235zM216 95
l295 490q-56 35 -132 35q-116 0 -187 -80t-71 -211q0 -154 95 -234z" />
    <glyph glyph-name="Ugrave" unicode="&#xd9;" horiz-adv-x="669" 
d="M221 800l37 44l128 -121l-22 -27zM83 235v426h57v-426q0 -92 53 -143.5t142 -51.5q91 0 143.5 50.5t52.5 144.5v426h55v-425q0 -119 -70 -183q-71 -65 -181 -65q-115 0 -183.5 65.5t-68.5 181.5z" />
    <glyph glyph-name="Uacute" unicode="&#xda;" horiz-adv-x="669" 
d="M307 696l-22 27l128 121l37 -44zM83 235v426h57v-426q0 -92 53 -143.5t142 -51.5q91 0 143.5 50.5t52.5 144.5v426h55v-425q0 -119 -70 -183q-71 -65 -181 -65q-115 0 -183.5 65.5t-68.5 181.5z" />
    <glyph glyph-name="Ucircumflex" unicode="&#xdb;" horiz-adv-x="669" 
d="M206 713l106 126h46l106 -126l-34 -13l-78 72l-14 18h-6l-14 -18l-78 -72zM83 235v426h57v-426q0 -92 53 -143.5t142 -51.5q91 0 143.5 50.5t52.5 144.5v426h55v-425q0 -119 -70 -183q-71 -65 -181 -65q-115 0 -183.5 65.5t-68.5 181.5z" />
    <glyph glyph-name="Udieresis" unicode="&#xdc;" horiz-adv-x="669" 
d="M83 235v426h57v-426q0 -92 53 -143.5t142 -51.5q91 0 143.5 50.5t52.5 144.5v426h55v-425q0 -119 -70 -183q-71 -65 -181 -65q-115 0 -183.5 65.5t-68.5 181.5zM216 740q-12 13 -12 30t12 29q13 13 30 13t29 -13q13 -12 13 -29t-13 -30q-12 -12 -29 -12t-30 12zM394 740
q-12 13 -12 30t12 29q13 13 30 13t29 -13q13 -12 13 -29t-13 -30q-12 -12 -29 -12t-30 12z" />
    <glyph glyph-name="Yacute" unicode="&#xdd;" horiz-adv-x="566" 
d="M268 696l-22 27l128 121l37 -44zM252 275l-247 386h64l191 -307q14 -21 20 -36h8q8 20 18 36l193 307h62l-251 -385v-276h-58v275z" />
    <glyph glyph-name="Thorn" unicode="&#xde;" horiz-adv-x="585" 
d="M92 0v661h56v-123h156q108 0 166.5 -52.5t58.5 -151.5t-58 -151.5t-166 -52.5h-157v-130h-56zM299 488h-151v-309h152q169 0 169 155q0 154 -170 154z" />
    <glyph glyph-name="germandbls" unicode="&#xdf;" horiz-adv-x="626" 
d="M147 545v-545h-54v548q0 92 58.5 145.5t164.5 53.5q78 0 126 -34.5t48 -91.5q0 -33 -18.5 -61.5t-45 -50t-53 -42t-45 -45.5t-18.5 -53q0 -58 93 -85q33 -9 48 -14t43.5 -18t42.5 -27t26 -38.5t12 -55.5q0 -64 -48.5 -103.5t-129.5 -39.5q-79 0 -150 27l-4 50
q72 -31 149 -31q130 0 130 95q0 68 -93 97q-87 26 -113 43q-58 34 -58 99q0 33 19 62t46 50.5t53.5 42t45.5 45.5t19 52q0 41 -34 62.5t-91 21.5q-89 0 -129 -40t-40 -119z" />
    <glyph glyph-name="agrave" unicode="&#xe0;" horiz-adv-x="547" 
d="M95 436l5 47q73 32 162 32q94 0 143 -35t49 -100v-285l12 -99l-45 -8l-16 79h-4q-70 -79 -172 -79q-77 0 -126 40.5t-49 109.5q0 79 53.5 120.5t145.5 41.5q39 0 147 -11v72q0 56 -33.5 82t-112.5 26q-86 0 -159 -33zM400 121v127q-83 11 -144 11q-148 0 -148 -118
q0 -53 35.5 -80.5t97.5 -27.5q104 0 159 88zM318 562l-114 133l46 33l97 -145z" />
    <glyph glyph-name="aacute" unicode="&#xe1;" horiz-adv-x="547" 
d="M95 436l5 47q73 32 162 32q94 0 143 -35t49 -100v-285l12 -99l-45 -8l-16 79h-4q-70 -79 -172 -79q-77 0 -126 40.5t-49 109.5q0 79 53.5 120.5t145.5 41.5q39 0 147 -11v72q0 56 -33.5 82t-112.5 26q-86 0 -159 -33zM400 121v127q-83 11 -144 11q-148 0 -148 -118
q0 -53 35.5 -80.5t97.5 -27.5q104 0 159 88zM205 583l97 145l45 -33l-114 -133z" />
    <glyph glyph-name="acircumflex" unicode="&#xe2;" horiz-adv-x="547" 
d="M151 574l101 148h49l102 -148l-33 -12l-78 89l-12 19h-7l-12 -19l-77 -89zM95 436l5 47q73 32 162 32q94 0 143 -35t49 -100v-285l12 -99l-45 -8l-16 79h-4q-70 -79 -172 -79q-77 0 -126 40.5t-49 109.5q0 79 53.5 120.5t145.5 41.5q39 0 147 -11v72q0 56 -33.5 82
t-112.5 26q-86 0 -159 -33zM400 121v127q-83 11 -144 11q-148 0 -148 -118q0 -53 35.5 -80.5t97.5 -27.5q104 0 159 88z" />
    <glyph glyph-name="atilde" unicode="&#xe3;" horiz-adv-x="547" 
d="M124 599h-7l-2 41q34 49 95 49q23 0 77 -23q51 -22 71 -22q46 0 69 45h7l2 -41q-34 -49 -94 -49q-25 0 -76 22q-54 23 -70 23q-50 0 -72 -45zM95 436l5 47q73 32 162 32q94 0 143 -35t49 -100v-285l12 -99l-45 -8l-16 79h-4q-70 -79 -172 -79q-77 0 -126 40.5t-49 109.5
q0 79 53.5 120.5t145.5 41.5q39 0 147 -11v72q0 56 -33.5 82t-112.5 26q-86 0 -159 -33zM400 121v127q-83 11 -144 11q-148 0 -148 -118q0 -53 35.5 -80.5t97.5 -27.5q104 0 159 88z" />
    <glyph glyph-name="adieresis" unicode="&#xe4;" horiz-adv-x="547" 
d="M153 613q-12 13 -12 31t12 30q13 13 31 13t30 -13q13 -12 13 -30t-13 -31q-12 -12 -30 -12t-31 12zM339 613q-12 13 -12 31t12 30q13 13 31 13t30 -13q13 -12 13 -30t-13 -31q-12 -12 -30 -12t-31 12zM95 436l5 47q73 32 162 32q94 0 143 -35t49 -100v-285l12 -99l-45 -8
l-16 79h-4q-70 -79 -172 -79q-77 0 -126 40.5t-49 109.5q0 79 53.5 120.5t145.5 41.5q39 0 147 -11v72q0 56 -33.5 82t-112.5 26q-86 0 -159 -33zM400 121v127q-83 11 -144 11q-148 0 -148 -118q0 -53 35.5 -80.5t97.5 -27.5q104 0 159 88z" />
    <glyph glyph-name="aring" unicode="&#xe5;" horiz-adv-x="547" 
d="M95 436l5 47q73 32 162 32q94 0 143 -35t49 -100v-285l12 -99l-45 -8l-16 79h-4q-70 -79 -172 -79q-77 0 -126 40.5t-49 109.5q0 79 53.5 120.5t145.5 41.5q39 0 147 -11v72q0 56 -33.5 82t-112.5 26q-86 0 -159 -33zM400 121v127q-83 11 -144 11q-148 0 -148 -118
q0 -53 35.5 -80.5t97.5 -27.5q104 0 159 88zM205 591q-29 29 -29 70t29 70q30 30 71 30t70 -30q30 -29 30 -70t-30 -70q-29 -29 -70 -29t-71 29zM320 705q-18 19 -44 19t-44 -19q-18 -18 -18 -44t18 -44t44 -18t44 18q19 18 19 44t-19 44z" />
    <glyph glyph-name="ae" unicode="&#xe6;" horiz-adv-x="872" 
d="M95 436l5 47q73 32 162 32q162 0 186 -101q66 101 182 101q92 0 143 -56t51 -155q0 -29 -4 -42h-366q0 -111 52 -169t154 -58q82 0 147 35l-5 -48q-67 -34 -151 -34q-152 0 -215 117q-74 -117 -207 -117q-77 0 -126 40.5t-49 109.5q0 79 53.5 120.5t145.5 41.5
q39 0 147 -11v72q0 56 -33.5 82t-112.5 26q-86 0 -159 -33zM400 121v127q-83 11 -144 11q-148 0 -148 -118q0 -53 35.5 -80.5t97.5 -27.5q104 0 159 88zM457 301l312 4q0 165 -143 165q-61 0 -110 -43q-48 -41 -59 -126z" />
    <glyph glyph-name="ccedilla" unicode="&#xe7;" horiz-adv-x="482" 
d="M445 483l4 -51q-66 36 -143 36q-79 0 -138 -53q-57 -53 -57 -163q0 -105 56 -161t142 -56q79 0 137 34l-3 -49q-62 -32 -141 -32h-14l1 -30q42 -3 66.5 -26t24.5 -55q0 -99 -169 -99l-8 30q136 4 136 64q0 26 -26 42t-71 17l10 61q-92 16 -144.5 85.5t-52.5 174.5
q0 116 69 189q71 74 177 74q77 0 144 -32z" />
    <glyph glyph-name="egrave" unicode="&#xe8;" horiz-adv-x="526" 
d="M323 562l-114 133l45 33l97 -145zM474 262h-366q0 -111 52 -169t154 -58q82 0 147 35l-5 -48q-68 -34 -151 -34q-113 0 -182 70q-68 71 -68 194q0 115 65 189q66 74 164 74q92 0 143 -56t51 -155q0 -22 -4 -42zM111 301l312 4q0 165 -143 165q-61 0 -110 -43
q-48 -41 -59 -126z" />
    <glyph glyph-name="eacute" unicode="&#xe9;" horiz-adv-x="526" 
d="M474 262h-366q0 -111 52 -169t154 -58q82 0 147 35l-5 -48q-68 -34 -151 -34q-113 0 -182 70q-68 71 -68 194q0 115 65 189q66 74 164 74q92 0 143 -56t51 -155q0 -22 -4 -42zM111 301l312 4q0 165 -143 165q-61 0 -110 -43q-48 -41 -59 -126zM214 583l97 145l45 -33
l-114 -133z" />
    <glyph glyph-name="ecircumflex" unicode="&#xea;" horiz-adv-x="526" 
d="M474 262h-366q0 -111 52 -169t154 -58q82 0 147 35l-5 -48q-68 -34 -151 -34q-113 0 -182 70q-68 71 -68 194q0 115 65 189q66 74 164 74q92 0 143 -56t51 -155q0 -22 -4 -42zM111 301l312 4q0 165 -143 165q-61 0 -110 -43q-48 -41 -59 -126zM159 574l102 149h49
l102 -149l-34 -12l-77 90l-12 19h-7l-12 -19l-77 -90z" />
    <glyph glyph-name="edieresis" unicode="&#xeb;" horiz-adv-x="526" 
d="M164 613q-12 13 -12 31t12 30q13 13 31 13t30 -13q13 -12 13 -30t-13 -31q-12 -12 -30 -12t-31 12zM350 613q-12 13 -12 31t12 30q13 13 31 13t30 -13q13 -12 13 -30t-13 -31q-12 -12 -30 -12t-31 12zM474 262h-366q0 -111 52 -169t154 -58q82 0 147 35l-5 -48
q-68 -34 -151 -34q-113 0 -182 70q-68 71 -68 194q0 115 65 189q66 74 164 74q92 0 143 -56t51 -155q0 -22 -4 -42zM111 301l312 4q0 165 -143 165q-61 0 -110 -43q-48 -41 -59 -126z" />
    <glyph glyph-name="igrave" unicode="&#xec;" horiz-adv-x="252" 
d="M158 562l-114 133l45 33l97 -145zM99 0v503l54 13v-516h-54z" />
    <glyph glyph-name="iacute" unicode="&#xed;" horiz-adv-x="252" 
d="M99 0v503l54 13v-516h-54zM66 583l97 145l45 -33l-114 -133z" />
    <glyph glyph-name="icircumflex" unicode="&#xee;" horiz-adv-x="252" 
d="M-1 574l102 149h49l102 -149l-34 -12l-77 90l-12 19h-7l-12 -19l-77 -90zM99 0v503l54 13v-516h-54z" />
    <glyph glyph-name="idieresis" unicode="&#xef;" horiz-adv-x="252" 
d="M2 613q-12 13 -12 31t12 30q13 13 31 13t30 -13q13 -12 13 -30t-13 -31q-12 -12 -30 -12t-31 12zM188 613q-12 13 -12 31t12 30q13 13 31 13t30 -13q13 -12 13 -30t-13 -31q-12 -12 -30 -12t-31 12zM99 0v503l54 13v-516h-54z" />
    <glyph glyph-name="eth" unicode="&#xf0;" horiz-adv-x="586" 
d="M49 749l14 39q111 -38 194 -90l73 83l24 -22l-70 -79q124 -88 186 -204q61 -115 61 -225q0 -119 -66 -191q-65 -72 -172 -72q-105 0 -172 69q-66 71 -66 184t66 183q66 71 169 71q84 0 145 -55q-53 116 -181 207l-74 -84l-24 20l72 82q-87 55 -179 84zM111 241
q0 -92 50 -150q50 -56 132 -56t132 56q50 58 50 150q0 94 -50 151t-132 57t-132 -57t-50 -151z" />
    <glyph glyph-name="ntilde" unicode="&#xf1;" horiz-adv-x="598" 
d="M151 599h-7l-2 41q34 49 96 49q23 0 77 -23q51 -22 70 -22q47 0 70 45h7l2 -41q-34 -49 -94 -49q-25 0 -76 22q-54 23 -70 23q-49 0 -73 -45zM99 384l-13 106l48 10l11 -68h5q80 83 182 83q77 0 124.5 -41t47.5 -117v-357h-54v355q0 53 -32.5 83t-95.5 30q-52 0 -97 -25
t-72 -65v-378h-54v384z" />
    <glyph glyph-name="ograve" unicode="&#xf2;" horiz-adv-x="586" 
d="M332 562l-113 133l45 33l97 -145zM293 515q105 0 171 -73q67 -71 67 -191q0 -118 -67 -191q-66 -72 -171 -72q-103 0 -171 72q-67 73 -67 191q0 120 67 191q67 73 171 73zM111 251q0 -96 50 -157q50 -59 132 -59t132 59q50 61 50 157q0 97 -50 158q-49 61 -132 61
t-132 -61q-50 -61 -50 -158z" />
    <glyph glyph-name="oacute" unicode="&#xf3;" horiz-adv-x="586" 
d="M228 583l97 145l46 -33l-114 -133zM293 515q105 0 171 -73q67 -71 67 -191q0 -118 -67 -191q-66 -72 -171 -72q-103 0 -171 72q-67 73 -67 191q0 120 67 191q67 73 171 73zM111 251q0 -96 50 -157q50 -59 132 -59t132 59q50 61 50 157q0 97 -50 158q-49 61 -132 61
t-132 -61q-50 -61 -50 -158z" />
    <glyph glyph-name="ocircumflex" unicode="&#xf4;" horiz-adv-x="586" 
d="M167 574l102 149h49l102 -149l-34 -12l-77 90l-12 19h-7l-12 -19l-77 -90zM293 515q105 0 171 -73q67 -71 67 -191q0 -118 -67 -191q-66 -72 -171 -72q-103 0 -171 72q-67 73 -67 191q0 120 67 191q67 73 171 73zM111 251q0 -96 50 -157q50 -59 132 -59t132 59
q50 61 50 157q0 97 -50 158q-49 61 -132 61t-132 -61q-50 -61 -50 -158z" />
    <glyph glyph-name="otilde" unicode="&#xf5;" horiz-adv-x="586" 
d="M142 599h-8l-2 41q34 49 96 49q23 0 77 -23q51 -22 71 -22q46 0 69 45h7l2 -41q-34 -49 -94 -49q-25 0 -76 22q-54 23 -70 23q-50 0 -72 -45zM293 515q105 0 171 -73q67 -71 67 -191q0 -118 -67 -191q-66 -72 -171 -72q-103 0 -171 72q-67 73 -67 191q0 120 67 191
q67 73 171 73zM111 251q0 -96 50 -157q50 -59 132 -59t132 59q50 61 50 157q0 97 -50 158q-49 61 -132 61t-132 -61q-50 -61 -50 -158z" />
    <glyph glyph-name="odieresis" unicode="&#xf6;" horiz-adv-x="586" 
d="M169 613q-12 13 -12 31t12 30q13 13 31 13t30 -13q13 -12 13 -30t-13 -31q-12 -12 -30 -12t-31 12zM355 613q-12 13 -12 31t12 30q13 13 31 13t30 -13q13 -12 13 -30t-13 -31q-12 -12 -30 -12t-31 12zM293 515q105 0 171 -73q67 -71 67 -191q0 -118 -67 -191
q-66 -72 -171 -72q-103 0 -171 72q-67 73 -67 191q0 120 67 191q67 73 171 73zM111 251q0 -96 50 -157q50 -59 132 -59t132 59q50 61 50 157q0 97 -50 158q-49 61 -132 61t-132 -61q-50 -61 -50 -158z" />
    <glyph glyph-name="divide" unicode="&#xf7;" horiz-adv-x="606" 
d="M81 230v51h444v-51h-444zM272 393q-12 13 -12 31t12 30q13 13 31 13t30 -13q13 -12 13 -30t-13 -31q-12 -12 -30 -12t-31 12zM272 56q-12 13 -12 31t12 30q13 13 31 13t30 -13q13 -12 13 -30t-13 -31q-12 -12 -30 -12t-31 12z" />
    <glyph glyph-name="oslash" unicode="&#xf8;" horiz-adv-x="586" 
d="M416 482l54 87l28 -16l-55 -90q88 -75 88 -212q0 -118 -67 -191q-66 -72 -171 -72q-66 0 -122 32l-53 -87l-30 17l55 90q-88 72 -88 211q0 120 67 191q67 73 171 73q67 0 123 -33zM170 84l221 356q-43 30 -98 30q-83 0 -132 -61q-50 -61 -50 -158q0 -105 59 -167z
M416 419l-219 -357q43 -27 96 -27q82 0 132 59q50 61 50 157q0 106 -59 168z" />
    <glyph glyph-name="ugrave" unicode="&#xf9;" horiz-adv-x="592" 
d="M307 562l-114 133l46 33l96 -145zM94 152v351l54 13v-365q0 -116 128 -116q53 0 97.5 25t69.5 66v377l54 13v-520l-34 -7l-14 82h-4q-77 -83 -178 -83q-80 0 -126.5 42.5t-46.5 121.5z" />
    <glyph glyph-name="uacute" unicode="&#xfa;" horiz-adv-x="592" 
d="M94 152v351l54 13v-365q0 -116 128 -116q53 0 97.5 25t69.5 66v377l54 13v-520l-34 -7l-14 82h-4q-77 -83 -178 -83q-80 0 -126.5 42.5t-46.5 121.5zM255 583l97 145l45 -33l-114 -133z" />
    <glyph glyph-name="ucircumflex" unicode="&#xfb;" horiz-adv-x="592" 
d="M168 573l102 149h49l102 -149l-34 -12l-77 90l-12 19h-7l-12 -19l-77 -90zM94 152v351l54 13v-365q0 -116 128 -116q53 0 97.5 25t69.5 66v377l54 13v-520l-34 -7l-14 82h-4q-77 -83 -178 -83q-80 0 -126.5 42.5t-46.5 121.5z" />
    <glyph glyph-name="udieresis" unicode="&#xfc;" horiz-adv-x="592" 
d="M172 613q-12 13 -12 31t12 30q13 13 31 13t30 -13q13 -12 13 -30t-13 -31q-12 -12 -30 -12t-31 12zM358 613q-12 13 -12 31t12 30q13 13 31 13t30 -13q13 -12 13 -30t-13 -31q-12 -12 -30 -12t-31 12zM94 152v351l54 13v-365q0 -116 128 -116q53 0 97.5 25t69.5 66v377
l54 13v-520l-34 -7l-14 82h-4q-77 -83 -178 -83q-80 0 -126.5 42.5t-46.5 121.5z" />
    <glyph glyph-name="yacute" unicode="&#xfd;" horiz-adv-x="494" 
d="M214 583l96 145l46 -33l-114 -133zM216 11l-191 493h58l147 -392q13 -32 13 -54l4 -2l167 448h56l-236 -593q-27 -67 -60 -99t-79 -32q-41 0 -75 15l-7 47q37 -15 74 -15q68 0 98 77l41 101z" />
    <glyph glyph-name="thorn" unicode="&#xfe;" horiz-adv-x="596" 
d="M99 653l-18 101l44 9l21 -88v-242h6q63 82 171 82q101 0 159 -72q59 -73 59 -190q0 -119 -69 -192t-181 -73q-67 0 -134 24h-7q3 -30 3 -76v-144l-54 -12v873zM153 376v-316q51 -25 134 -25q93 0 145.5 55.5t52.5 162.5q0 101 -46 158t-126 57q-53 0 -96 -25t-64 -67z
" />
    <glyph glyph-name="ydieresis" unicode="&#xff;" horiz-adv-x="494" 
d="M125 613q-12 13 -12 31t12 30q13 13 31 13t30 -13q13 -12 13 -30t-13 -31q-12 -12 -30 -12t-31 12zM311 613q-12 13 -12 31t12 30q13 13 31 13t30 -13q13 -12 13 -30t-13 -31q-12 -12 -30 -12t-31 12zM216 11l-191 493h58l147 -392q13 -32 13 -54l4 -2l167 448h56
l-236 -593q-27 -67 -60 -99t-79 -32q-41 0 -75 15l-7 47q37 -15 74 -15q68 0 98 77l41 101z" />
    <glyph glyph-name="Amacron" unicode="&#x100;" horiz-adv-x="660" 
d="M31 0l268 661h63l267 -661h-64l-80 204h-312l-80 -204h-62zM331 607h-4q-2 -15 -10 -35l-126 -319h276l-126 319q-8 20 -10 35zM170 746v47h320v-47h-320z" />
    <glyph glyph-name="amacron" unicode="&#x101;" horiz-adv-x="547" 
d="M95 436l5 47q73 32 162 32q94 0 143 -35t49 -100v-285l12 -99l-45 -8l-16 79h-4q-70 -79 -172 -79q-77 0 -126 40.5t-49 109.5q0 79 53.5 120.5t145.5 41.5q39 0 147 -11v72q0 56 -33.5 82t-112.5 26q-86 0 -159 -33zM400 121v127q-83 11 -144 11q-148 0 -148 -118
q0 -53 35.5 -80.5t97.5 -27.5q104 0 159 88zM116 620v47h320v-47h-320z" />
    <glyph glyph-name="Abreve" unicode="&#x102;" horiz-adv-x="660" 
d="M179 843l38 12q19 -106 113 -106q93 0 115 106l37 -12q-10 -65 -52 -104t-100 -39q-56 0 -98 39t-53 104zM31 0l268 661h63l267 -661h-64l-80 204h-312l-80 -204h-62zM331 607h-4q-2 -15 -10 -35l-126 -319h276l-126 319q-8 20 -10 35z" />
    <glyph glyph-name="abreve" unicode="&#x103;" horiz-adv-x="547" 
d="M120 716l40 12q20 -116 116 -116q97 0 117 116l40 -12q-10 -71 -52.5 -112t-104.5 -41q-61 0 -103.5 41t-52.5 112zM95 436l5 47q73 32 162 32q94 0 143 -35t49 -100v-285l12 -99l-45 -8l-16 79h-4q-70 -79 -172 -79q-77 0 -126 40.5t-49 109.5q0 79 53.5 120.5
t145.5 41.5q39 0 147 -11v72q0 56 -33.5 82t-112.5 26q-86 0 -159 -33zM400 121v127q-83 11 -144 11q-148 0 -148 -118q0 -53 35.5 -80.5t97.5 -27.5q104 0 159 88z" />
    <glyph glyph-name="Aogonek" unicode="&#x104;" horiz-adv-x="660" 
d="M31 0l268 661h63l267 -661q-109 -44 -109 -119q0 -30 19.5 -45.5t43.5 -14t46 10.5l-3 -41q-33 -13 -70 -13t-62.5 26.5t-25.5 70.5q0 78 95 128l-78 201h-312l-80 -204h-62zM331 607h-4q-2 -15 -10 -35l-126 -319h276l-126 319q-8 20 -10 35z" />
    <glyph glyph-name="aogonek" unicode="&#x105;" horiz-adv-x="547" 
d="M95 436l5 47q73 32 162 32q94 0 143 -35t49 -100v-285l12 -99q-43 -13 -80 -43q-36 -30 -36 -76q0 -44 41.5 -55.5t74.5 7.5l-3 -37q-90 -32 -137 13q-27 25 -27 69q0 42 33.5 79t83.5 56l-11 58h-4q-70 -79 -172 -79q-77 0 -126 40.5t-49 109.5q0 79 53.5 120.5
t145.5 41.5q39 0 147 -11v72q0 56 -33.5 82t-112.5 26q-86 0 -159 -33zM400 121v127q-83 11 -144 11q-148 0 -148 -118q0 -53 35.5 -80.5t97.5 -27.5q104 0 159 88z" />
    <glyph glyph-name="Cacute" unicode="&#x106;" horiz-adv-x="627" 
d="M363 696l-22 27l128 121l37 -44zM572 639v-51q-78 30 -164 30q-128 0 -208 -78q-79 -78 -79 -208q0 -144 80 -218q82 -74 212 -74q82 0 159 31v-52q-78 -31 -171 -31q-154 0 -246 91q-93 91 -93 252q0 147 96 243q96 97 247 97q86 0 167 -32z" />
    <glyph glyph-name="cacute" unicode="&#x107;" horiz-adv-x="482" 
d="M249 583l97 145l46 -33l-114 -133zM445 483l4 -51q-66 36 -143 36q-79 0 -138 -53q-57 -53 -57 -163q0 -105 56 -161t142 -56q79 0 137 34l-3 -49q-62 -32 -141 -32q-114 0 -181 72q-66 74 -66 192q0 116 69 189q71 74 177 74q77 0 144 -32z" />
    <glyph glyph-name="Ccircumflex" unicode="&#x108;" horiz-adv-x="627" 
d="M572 639v-51q-78 30 -164 30q-128 0 -208 -78q-79 -78 -79 -208q0 -144 80 -218q82 -74 212 -74q82 0 159 31v-52q-78 -31 -171 -31q-154 0 -246 91q-93 91 -93 252q0 147 96 243q96 97 247 97q86 0 167 -32zM263 713l106 126h46l106 -126l-34 -13l-78 72l-14 18h-6
l-14 -18l-78 -72z" />
    <glyph glyph-name="ccircumflex" unicode="&#x109;" horiz-adv-x="482" 
d="M166 574l102 149h49l102 -149l-34 -12l-77 90l-12 19h-7l-12 -19l-77 -90zM445 483l4 -51q-66 36 -143 36q-79 0 -138 -53q-57 -53 -57 -163q0 -105 56 -161t142 -56q79 0 137 34l-3 -49q-62 -32 -141 -32q-114 0 -181 72q-66 74 -66 192q0 116 69 189q71 74 177 74
q77 0 144 -32z" />
    <glyph glyph-name="Cdotaccent" unicode="&#x10a;" horiz-adv-x="627" 
d="M572 639v-51q-78 30 -164 30q-128 0 -208 -78q-79 -78 -79 -208q0 -144 80 -218q82 -74 212 -74q82 0 159 31v-52q-78 -31 -171 -31q-154 0 -246 91q-93 91 -93 252q0 147 96 243q96 97 247 97q86 0 167 -32zM361 740q-12 13 -12 31t12 30q13 13 31 13t30 -13
q13 -12 13 -30t-13 -31q-12 -12 -30 -12t-31 12z" />
    <glyph glyph-name="cdotaccent" unicode="&#x10b;" horiz-adv-x="482" 
d="M265 684q16 20 39.5 11.5t29.5 -30t-11 -39.5q-12 -12 -29 -12t-29 12t-12 29t12 29zM445 483l4 -51q-66 36 -143 36q-79 0 -138 -53q-57 -53 -57 -163q0 -105 56 -161t142 -56q79 0 137 34l-3 -49q-62 -32 -141 -32q-114 0 -181 72q-66 74 -66 192q0 116 69 189
q71 74 177 74q77 0 144 -32z" />
    <glyph glyph-name="Ccaron" unicode="&#x10c;" horiz-adv-x="627" 
d="M369 700l-106 126l34 13l78 -72l14 -18h6l14 18l78 72l34 -13l-106 -126h-46zM572 639v-51q-78 30 -164 30q-128 0 -208 -78q-79 -78 -79 -208q0 -144 80 -218q82 -74 212 -74q82 0 159 31v-52q-78 -31 -171 -31q-154 0 -246 91q-93 91 -93 252q0 147 96 243
q96 97 247 97q86 0 167 -32z" />
    <glyph glyph-name="ccaron" unicode="&#x10d;" horiz-adv-x="482" 
d="M267 562l-102 149l34 12l77 -90l12 -19h7l12 19l77 90l34 -12l-102 -149h-49zM445 483l4 -51q-66 36 -143 36q-79 0 -138 -53q-57 -53 -57 -163q0 -105 56 -161t142 -56q79 0 137 34l-3 -49q-62 -32 -141 -32q-114 0 -181 72q-66 74 -66 192q0 116 69 189q71 74 177 74
q77 0 144 -32z" />
    <glyph glyph-name="Dcaron" unicode="&#x10e;" horiz-adv-x="711" 
d="M301 700l-106 126l34 13l78 -72l14 -18h6l14 18l78 72l34 -13l-106 -126h-46zM92 0v661h234q148 0 238 -93q91 -91 91 -233q0 -138 -91 -236q-90 -99 -233 -99h-239zM320 611h-172v-560h177q126 0 199 82t73 202q0 119 -75 197q-73 79 -202 79z" />
    <glyph glyph-name="dcaron" unicode="&#x10f;" horiz-adv-x="654" 
d="M595 545v178h58l-19 -178h-39zM443 561v150l54 12v-620l13 -104l-43 -10l-16 80h-5q-62 -81 -167 -81q-101 0 -163 71q-61 71 -61 191q0 121 70 192q70 73 181 73q67 0 133 -24h6q-2 38 -2 70zM443 127v316q-54 25 -134 25q-86 0 -142 -53t-56 -165q0 -101 48.5 -158
t129.5 -57q110 0 154 92z" />
    <glyph glyph-name="Dcroat" unicode="&#x110;" horiz-adv-x="719" 
d="M100 355v306h234q148 0 238 -93q91 -91 91 -233q0 -138 -91 -236q-90 -99 -233 -99h-239v310h-122v45h122zM328 611h-172v-256h191v-45h-191v-259h177q126 0 199 82t73 202q0 119 -75 197q-73 79 -202 79z" />
    <glyph glyph-name="dslash" unicode="&#x111;" horiz-adv-x="594" 
d="M258 621v41h185v49l54 12v-61h86v-41h-86v-518l13 -104l-43 -10l-16 80h-5q-62 -81 -167 -81q-101 0 -163 71q-61 71 -61 191q0 121 70 192q70 73 181 73q67 0 133 -24h6q-2 38 -2 70v60h-185zM443 127v316q-54 25 -134 25q-86 0 -142 -53t-56 -165q0 -101 48.5 -158
t129.5 -57q110 0 154 92z" />
    <glyph glyph-name="Emacron" unicode="&#x112;" 
d="M92 0v661h354v-50h-306l8 -48v-201h298v-50h-298v-261h319v-51h-375zM109 746v47h320v-47h-320z" />
    <glyph glyph-name="emacron" unicode="&#x113;" horiz-adv-x="526" 
d="M474 262h-366q0 -111 52 -169t154 -58q82 0 147 35l-5 -48q-68 -34 -151 -34q-113 0 -182 70q-68 71 -68 194q0 115 65 189q66 74 164 74q92 0 143 -56t51 -155q0 -22 -4 -42zM111 301l312 4q0 165 -143 165q-61 0 -110 -43q-48 -41 -59 -126zM131 620v47h320v-47h-320z
" />
    <glyph glyph-name="Ebreve" unicode="&#x114;" 
d="M118 843l38 12q19 -106 113 -106q93 0 115 106l37 -12q-10 -65 -52 -104t-100 -39q-57 0 -98.5 39t-52.5 104zM92 0v661h354v-50h-306l8 -48v-201h298v-50h-298v-261h319v-51h-375z" />
    <glyph glyph-name="ebreve" unicode="&#x115;" horiz-adv-x="526" 
d="M124 716l41 12q20 -116 115 -116q97 0 117 116l40 -12q-10 -71 -52.5 -112t-104.5 -41q-61 0 -103.5 41t-52.5 112zM474 262h-366q0 -111 52 -169t154 -58q82 0 147 35l-5 -48q-68 -34 -151 -34q-113 0 -182 70q-68 71 -68 194q0 115 65 189q66 74 164 74q92 0 143 -56
t51 -155q0 -22 -4 -42zM111 301l312 4q0 165 -143 165q-61 0 -110 -43q-48 -41 -59 -126z" />
    <glyph glyph-name="Edotaccent" unicode="&#x116;" 
d="M92 0v661h354v-50h-306l8 -48v-201h298v-50h-298v-261h319v-51h-375zM238 740q-12 13 -12 31t12 30q13 13 31 13t30 -13q13 -12 13 -30t-13 -31q-12 -12 -30 -12t-31 12z" />
    <glyph glyph-name="edotaccent" unicode="&#x117;" horiz-adv-x="526" 
d="M256 684q16 20 39.5 11.5t29.5 -30t-11 -39.5q-12 -12 -29 -12t-29 12t-12 29t12 29zM474 262h-366q0 -111 52 -169t154 -58q82 0 147 35l-5 -48q-68 -34 -151 -34q-113 0 -182 70q-68 71 -68 194q0 115 65 189q66 74 164 74q92 0 143 -56t51 -155q0 -22 -4 -42zM111 301
l312 4q0 165 -143 165q-61 0 -110 -43q-48 -41 -59 -126z" />
    <glyph glyph-name="Eogonek" unicode="&#x118;" 
d="M92 0v661h354v-50h-306l8 -48v-201h298v-50h-298v-261h319v-51q-42 -11 -79 -42q-38 -32 -38 -78q0 -43 43 -55t74 7l-3 -41q-35 -13 -73 -13t-65.5 27t-27.5 70q0 80 84 125h-290z" />
    <glyph glyph-name="eogonek" unicode="&#x119;" horiz-adv-x="526" 
d="M474 262h-366q0 -111 52 -169t154 -58q82 0 147 35l-5 -48l-14 -6q-123 -60 -123 -139q0 -44 41.5 -55.5t74.5 7.5l-3 -37q-35 -13 -73 -13q-37 0 -64 26.5t-27 68.5q0 66 66 115q-7 -1 -29 -1q-113 0 -182 70q-68 71 -68 194q0 115 65 189q66 74 164 74q92 0 143 -56
t51 -155q0 -22 -4 -42zM111 301l312 4q0 165 -143 165q-61 0 -110 -43q-48 -41 -59 -126z" />
    <glyph glyph-name="Ecaron" unicode="&#x11a;" 
d="M246 700l-106 126l34 13l78 -72l14 -18h6l14 18l78 72l34 -13l-106 -126h-46zM92 0v661h354v-50h-306l8 -48v-201h298v-50h-298v-261h319v-51h-375z" />
    <glyph glyph-name="ecaron" unicode="&#x11b;" horiz-adv-x="526" 
d="M261 562l-102 149l34 12l77 -90l12 -19h7l12 19l77 90l34 -12l-102 -149h-49zM474 262h-366q0 -111 52 -169t154 -58q82 0 147 35l-5 -48q-68 -34 -151 -34q-113 0 -182 70q-68 71 -68 194q0 115 65 189q66 74 164 74q92 0 143 -56t51 -155q0 -22 -4 -42zM111 301l312 4
q0 165 -143 165q-61 0 -110 -43q-48 -41 -59 -126z" />
    <glyph glyph-name="Gcircumflex" unicode="&#x11c;" horiz-adv-x="684" 
d="M368 700l-105 126l34 13l77 -72l15 -18h6l15 18l78 72l33 -13l-105 -126h-48zM570 640v-52q-75 30 -162 30q-128 0 -208 -78q-79 -76 -79 -208q0 -144 80 -218q82 -74 211 -74q84 0 151 26v223l55 12v-263q-97 -50 -216 -50q-155 0 -247 91q-93 91 -93 252q0 148 96 244
t247 96q88 0 165 -31z" />
    <glyph glyph-name="gcircumflex" unicode="&#x11d;" horiz-adv-x="536" 
d="M357 495l118 12h34l-7 -49l-104 10q55 -46 55 -119q0 -67 -54 -117q-53 -48 -135 -48q-30 0 -62 8q-70 -10 -70 -54q0 -14 8 -24t16.5 -14t26.5 -11q12 -4 34 -5q16 -1 35 -1h39q209 0 209 -126q0 -66 -64 -121q-65 -56 -184 -56q-55 0 -101 13q-50 14 -84 48t-34 80
q0 43 28 78.5t87 52.5v5q-32 7 -49.5 25.5t-17.5 42.5q0 57 78 79v3q-41 18 -63.5 56.5t-22.5 85.5q0 73 52 119q53 47 137 47q52 0 95 -20zM202 43q-117 -30 -117 -116q0 -72 73 -92q52 -14 100 -14q91 0 140 37t49 96q0 44 -38 65t-128 21q-35 0 -79 3zM125 349
q0 -56 35.5 -91.5t101.5 -35.5q67 0 102.5 35.5t35.5 91.5q0 58 -35 92t-103 34q-67 0 -102 -34t-35 -92zM135 574l102 149h49l102 -149l-34 -12l-77 90l-12 19h-7l-12 -19l-77 -90z" />
    <glyph glyph-name="Gbreve" unicode="&#x11e;" horiz-adv-x="684" 
d="M231 843l38 12q19 -106 113 -106q93 0 115 106l37 -12q-10 -65 -52 -104t-100 -39q-56 0 -98 39t-53 104zM570 640v-52q-75 30 -162 30q-128 0 -208 -78q-79 -76 -79 -208q0 -144 80 -218q82 -74 211 -74q84 0 151 26v223l55 12v-263q-97 -50 -216 -50q-155 0 -247 91
q-93 91 -93 252q0 148 96 244t247 96q88 0 165 -31z" />
    <glyph glyph-name="gbreve" unicode="&#x11f;" horiz-adv-x="536" 
d="M106 716l40 12q20 -116 116 -116q97 0 117 116l40 -12q-10 -71 -52.5 -112t-104.5 -41q-61 0 -103.5 41t-52.5 112zM357 495l118 12h34l-7 -49l-104 10q55 -46 55 -119q0 -67 -54 -117q-53 -48 -135 -48q-30 0 -62 8q-70 -10 -70 -54q0 -14 8 -24t16.5 -14t26.5 -11
q12 -4 34 -5q16 -1 35 -1h39q209 0 209 -126q0 -66 -64 -121q-65 -56 -184 -56q-55 0 -101 13q-50 14 -84 48t-34 80q0 43 28 78.5t87 52.5v5q-32 7 -49.5 25.5t-17.5 42.5q0 57 78 79v3q-41 18 -63.5 56.5t-22.5 85.5q0 73 52 119q53 47 137 47q52 0 95 -20zM202 43
q-117 -30 -117 -116q0 -72 73 -92q52 -14 100 -14q91 0 140 37t49 96q0 44 -38 65t-128 21q-35 0 -79 3zM125 349q0 -56 35.5 -91.5t101.5 -35.5q67 0 102.5 35.5t35.5 91.5q0 58 -35 92t-103 34q-67 0 -102 -34t-35 -92z" />
    <glyph glyph-name="Gdotaccent" unicode="&#x120;" horiz-adv-x="684" 
d="M570 640v-52q-75 30 -162 30q-128 0 -208 -78q-79 -76 -79 -208q0 -144 80 -218q82 -74 211 -74q84 0 151 26v223l55 12v-263q-97 -50 -216 -50q-155 0 -247 91q-93 91 -93 252q0 148 96 244t247 96q88 0 165 -31zM360 740q-12 13 -12 31t12 30q13 13 31 13t30 -13
q13 -12 13 -30t-13 -31q-12 -12 -30 -12t-31 12z" />
    <glyph glyph-name="gdotaccent" unicode="&#x121;" horiz-adv-x="536" 
d="M233 684q16 20 39.5 11.5t29.5 -30t-11 -39.5q-12 -12 -29 -12t-29 12t-12 29t12 29zM357 495l118 12h34l-7 -49l-104 10q55 -46 55 -119q0 -67 -54 -117q-53 -48 -135 -48q-30 0 -62 8q-70 -10 -70 -54q0 -14 8 -24t16.5 -14t26.5 -11q12 -4 34 -5q16 -1 35 -1h39
q209 0 209 -126q0 -66 -64 -121q-65 -56 -184 -56q-55 0 -101 13q-50 14 -84 48t-34 80q0 43 28 78.5t87 52.5v5q-32 7 -49.5 25.5t-17.5 42.5q0 57 78 79v3q-41 18 -63.5 56.5t-22.5 85.5q0 73 52 119q53 47 137 47q52 0 95 -20zM202 43q-117 -30 -117 -116q0 -72 73 -92
q52 -14 100 -14q91 0 140 37t49 96q0 44 -38 65t-128 21q-35 0 -79 3zM125 349q0 -56 35.5 -91.5t101.5 -35.5q67 0 102.5 35.5t35.5 91.5q0 58 -35 92t-103 34q-67 0 -102 -34t-35 -92z" />
    <glyph glyph-name="Gcommaaccent" unicode="&#x122;" horiz-adv-x="684" 
d="M359 -36h54q20 -95 -45 -182l-33 13q49 73 24 169zM570 640v-52q-75 30 -162 30q-128 0 -208 -78q-79 -76 -79 -208q0 -144 80 -218q82 -74 211 -74q84 0 151 26v223l55 12v-263q-97 -50 -216 -50q-155 0 -247 91q-93 91 -93 252q0 148 96 244t247 96q88 0 165 -31z" />
    <glyph glyph-name="gcommaaccent" unicode="&#x123;" horiz-adv-x="536" 
d="M281 744l32 -13q-48 -74 -23 -168h-54q-19 97 45 181zM357 495l118 12h34l-7 -49l-104 10q55 -46 55 -119q0 -67 -54 -117q-53 -48 -135 -48q-30 0 -62 8q-70 -10 -70 -54q0 -14 8 -24t16.5 -14t26.5 -11q12 -4 34 -5q16 -1 35 -1h39q209 0 209 -126q0 -66 -64 -121
q-65 -56 -184 -56q-55 0 -101 13q-50 14 -84 48t-34 80q0 43 28 78.5t87 52.5v5q-32 7 -49.5 25.5t-17.5 42.5q0 57 78 79v3q-41 18 -63.5 56.5t-22.5 85.5q0 73 52 119q53 47 137 47q52 0 95 -20zM202 43q-117 -30 -117 -116q0 -72 73 -92q52 -14 100 -14q91 0 140 37
t49 96q0 44 -38 65t-128 21q-35 0 -79 3zM125 349q0 -56 35.5 -91.5t101.5 -35.5q67 0 102.5 35.5t35.5 91.5q0 58 -35 92t-103 34q-67 0 -102 -34t-35 -92z" />
    <glyph glyph-name="Hcircumflex" unicode="&#x124;" horiz-adv-x="686" 
d="M214 713l106 126h46l106 -126l-34 -13l-78 72l-14 18h-6l-14 -18l-78 -72zM92 0v661h56v-297h389v297h57v-661h-57v313h-389v-313h-56z" />
    <glyph glyph-name="hcircumflex" unicode="&#x125;" horiz-adv-x="592" 
d="M-7 782l102 149h49l102 -149l-34 -12l-77 90l-12 19h-7l-12 -19l-77 -90zM93 0v711l54 12v-219q0 -44 -3 -72h6q71 83 175 83q78 0 125.5 -41t47.5 -117v-357h-54v355q0 53 -33 83t-96 30q-53 0 -98.5 -25.5t-69.5 -67.5v-375h-54z" />
    <glyph glyph-name="Hbar" unicode="&#x126;" horiz-adv-x="685" 
d="M93 533v128h56v-128h389v128h57v-128h39v-43h-39v-490h-57v313h-389v-313h-56v490h-42v43h42zM538 490h-389v-126h389v126z" />
    <glyph glyph-name="hbar" unicode="&#x127;" horiz-adv-x="592" 
d="M5 621v41h88v49l54 12v-61h183v-41h-183v-117q0 -44 -3 -72h6q71 83 175 83q78 0 125.5 -41t47.5 -117v-357h-54v355q0 53 -33 83t-96 30q-53 0 -98.5 -25.5t-69.5 -67.5v-375h-54v621h-88z" />
    <glyph glyph-name="Itilde" unicode="&#x128;" horiz-adv-x="240" 
d="M-34 725h-7l-2 41q36 50 96 50q25 0 79 -23t71 -23q46 0 70 45h7l2 -41q-36 -50 -95 -50q-22 0 -77 23q-54 23 -71 23q-49 0 -73 -45zM92 0v661h56v-661h-56z" />
    <glyph glyph-name="itilde" unicode="&#x129;" horiz-adv-x="252" 
d="M-26 599h-7l-2 41q34 49 95 49q24 0 78 -23q51 -22 70 -22q46 0 69 45h8l2 -41q-34 -49 -95 -49q-25 0 -76 22q-54 23 -70 23q-50 0 -72 -45zM99 0v503l54 13v-516h-54z" />
    <glyph glyph-name="Imacron" unicode="&#x12a;" horiz-adv-x="240" 
d="M-41 746v47h321v-47h-321zM92 0v661h56v-661h-56z" />
    <glyph glyph-name="imacron" unicode="&#x12b;" horiz-adv-x="252" 
d="M-34 620v47h320v-47h-320zM99 0v503l54 13v-516h-54z" />
    <glyph glyph-name="Ibreve" unicode="&#x12c;" horiz-adv-x="240" 
d="M-32 843l38 12q19 -106 114 -106t114 106l38 -12q-11 -65 -53 -104t-99 -39t-99 39t-53 104zM92 0v661h56v-661h-56z" />
    <glyph glyph-name="ibreve" unicode="&#x12d;" horiz-adv-x="252" 
d="M-31 716l41 12q20 -116 115 -116q97 0 117 116l40 -12q-10 -71 -52.5 -112t-104.5 -41q-61 0 -103.5 41t-52.5 112zM99 0v503l54 13v-516h-54z" />
    <glyph glyph-name="Iogonek" unicode="&#x12e;" horiz-adv-x="240" 
d="M92 1v660h56v-661q-78 -42 -78 -119q0 -30 19.5 -45.5t43.5 -14t46 10.5l-3 -41q-33 -13 -70 -13t-62.5 26.5t-25.5 70.5q0 78 74 126z" />
    <glyph glyph-name="iogonek" unicode="&#x12f;" horiz-adv-x="252" 
d="M99 3v500l54 13v-516q-33 -17 -55 -50.5t-22 -72.5q0 -30 19.5 -45t44 -14.5t46.5 11.5l-3 -37q-33 -13 -70 -13q-36 0 -62 26.5t-26 68.5q0 76 74 129zM126 700q17 0 29 -12.5t12 -29.5t-12 -29t-29 -12q-18 0 -29.5 12t-11.5 29q0 18 11.5 30t29.5 12z" />
    <glyph glyph-name="Idot" unicode="&#x130;" horiz-adv-x="240" 
d="M89 740q-12 13 -12 31t12 30q13 13 31 13t30 -13q13 -12 13 -30t-13 -31q-12 -12 -30 -12t-31 12zM92 0v661h56v-661h-56z" />
    <glyph glyph-name="dotlessi" unicode="&#x131;" horiz-adv-x="252" 
d="M99 0v503l54 13v-516h-54z" />
    <glyph glyph-name="IJ" unicode="&#x132;" horiz-adv-x="539" 
d="M391 188v473h56v-474q0 -76 -29 -129q-38 -70 -163 -70l-10 46q79 0 112.5 34t33.5 120zM92 0v661h56v-661h-56z" />
    <glyph glyph-name="ij" unicode="&#x133;" horiz-adv-x="504" 
d="M351 -22v525l54 13v-531q0 -100 -43 -152.5t-119 -52.5l-7 42q115 0 115 156zM349 630q-12 12 -12 29t12 29t29 12t29 -12t12 -29t-12 -29t-29 -12t-29 12zM99 0v503l54 13v-516h-54zM97 630q-12 12 -12 29t12 29t29 12t29 -12t12 -29t-12 -29t-29 -12t-29 12z" />
    <glyph glyph-name="Jcircumflex" unicode="&#x134;" horiz-adv-x="299" 
d="M50 713l106 126h46l106 -126l-34 -13l-78 72l-14 18h-6l-14 -18l-78 -72zM151 188v473h56v-474q0 -76 -29 -129q-38 -70 -163 -70l-10 46q79 0 112.5 34t33.5 120z" />
    <glyph glyph-name="jcircumflex" unicode="&#x135;" horiz-adv-x="252" 
d="M-1 574l102 149h49l102 -149l-34 -12l-77 90l-12 19h-7l-12 -19l-77 -90zM99 -22v525l54 13v-531q0 -100 -43 -152.5t-119 -52.5l-7 42q115 0 115 156z" />
    <glyph glyph-name="Kcommaaccent" unicode="&#x136;" horiz-adv-x="549" 
d="M284 -36h54q20 -95 -45 -182l-32 13q49 73 23 169zM92 0v661h56v-661h-56zM404 602l47 59h66l-50 -65l-243 -256l257 -264l61 -76h-66l-322 335z" />
    <glyph glyph-name="kcommaaccent" unicode="&#x137;" horiz-adv-x="494" 
d="M246 -36h55q18 -97 -45 -182l-33 13q50 75 23 169zM93 0v711l54 12v-723h-54zM410 0l-251 287l189 173l39 44h58l-40 -51l-180 -163l189 -213l58 -77h-62z" />
    <glyph glyph-name="kgreenlandic" unicode="&#x138;" horiz-adv-x="494" 
d="M93 0v511l54 12v-523h-54zM410 0l-251 287l189 173l39 44h58l-40 -51l-180 -163l189 -213l58 -77h-62z" />
    <glyph glyph-name="Lacute" unicode="&#x139;" horiz-adv-x="485" 
d="M87 696l-23 27l129 121l36 -44zM92 0v661h56v-562l-8 -48h329v-51h-377z" />
    <glyph glyph-name="lacute" unicode="&#x13a;" horiz-adv-x="245" 
d="M60 802l97 145l45 -33l-113 -133zM93 75v636l54 12v-625l13 -97l-48 -13z" />
    <glyph glyph-name="Lcommaaccent" unicode="&#x13b;" horiz-adv-x="485" 
d="M254 -36h54q20 -95 -45 -182l-33 13q49 73 24 169zM92 0v661h56v-562l-8 -48h329v-51h-377z" />
    <glyph glyph-name="lcommaaccent" unicode="&#x13c;" horiz-adv-x="244" 
d="M98 -36h55q18 -97 -46 -182l-32 13q49 71 23 169zM93 75v636l54 12v-625l13 -97l-48 -13z" />
    <glyph glyph-name="Lcaron" unicode="&#x13d;" horiz-adv-x="485" 
d="M282 486v175h59l-18 -175h-41zM92 0v661h56v-562l-8 -48h329v-51h-377z" />
    <glyph glyph-name="lcaron" unicode="&#x13e;" horiz-adv-x="304" 
d="M245 545v178h58l-18 -178h-40zM93 75v636l54 12v-625l13 -97l-48 -13z" />
    <glyph glyph-name="Ldot" unicode="&#x13f;" horiz-adv-x="485" 
d="M282 385q12 12 29 12t29 -12t12 -29t-12 -29q-12 -11 -29 -11t-29 11q-11 12 -11 29t11 29zM92 0v661h56v-562l-8 -48h329v-51h-377z" />
    <glyph glyph-name="ldot" unicode="&#x140;" horiz-adv-x="332" 
d="M256 386q16 20 39.5 11.5t29.5 -30t-11 -39.5q-12 -12 -29 -12t-29 12t-12 29t12 29zM93 75v636l54 12v-625l13 -97l-48 -13z" />
    <glyph glyph-name="Lslash" unicode="&#x141;" horiz-adv-x="489" 
d="M96 331v330h56v-313l183 53l15 -43l-198 -58v-201l-8 -48h329v-51h-377v284l-76 -22l-15 43z" />
    <glyph glyph-name="lslash" unicode="&#x142;" horiz-adv-x="258" 
d="M100 363v348l54 12v-343l96 31l14 -42l-110 -35v-236l13 -97l-48 -13l-19 87v241l-90 -28l-16 42z" />
    <glyph glyph-name="Nacute" unicode="&#x143;" horiz-adv-x="719" 
d="M348 696l-23 27l129 121l36 -44zM92 0v661h71l385 -560q13 -17 18 -35h5v595h56v-661h-78l-379 552q-12 16 -17 35h-5v-587h-56z" />
    <glyph glyph-name="nacute" unicode="&#x144;" horiz-adv-x="598" 
d="M99 384l-13 106l48 10l11 -68h5q80 83 182 83q77 0 124.5 -41t47.5 -117v-357h-54v355q0 53 -32.5 83t-95.5 30q-52 0 -97 -25t-72 -65v-378h-54v384zM261 583l97 145l45 -33l-114 -133z" />
    <glyph glyph-name="Ncommaaccent" unicode="&#x145;" horiz-adv-x="719" 
d="M331 -36h55q18 -97 -45 -182l-33 13q49 73 23 169zM92 0v661h71l385 -560q13 -17 18 -35h5v595h56v-661h-78l-379 552q-12 16 -17 35h-5v-587h-56z" />
    <glyph glyph-name="ncommaaccent" unicode="&#x146;" horiz-adv-x="598" 
d="M275 -36h54q20 -95 -45 -182l-32 13q49 73 23 169zM99 384l-13 106l48 10l11 -68h5q80 83 182 83q77 0 124.5 -41t47.5 -117v-357h-54v355q0 53 -32.5 83t-95.5 30q-52 0 -97 -25t-72 -65v-378h-54v384z" />
    <glyph glyph-name="Ncaron" unicode="&#x147;" horiz-adv-x="719" 
d="M92 0v661h71l385 -560q13 -17 18 -35h5v595h56v-661h-78l-379 552q-12 16 -17 35h-5v-587h-56zM336 700l-106 126l34 13l78 -72l14 -18h6l14 18l78 72l34 -13l-106 -126h-46z" />
    <glyph glyph-name="ncaron" unicode="&#x148;" horiz-adv-x="598" 
d="M278 562l-102 149l34 12l77 -90l12 -19h7l12 19l77 90l34 -12l-102 -149h-49zM99 384l-13 106l48 10l11 -68h5q80 83 182 83q77 0 124.5 -41t47.5 -117v-357h-54v355q0 53 -32.5 83t-95.5 30q-52 0 -97 -25t-72 -65v-378h-54v384z" />
    <glyph glyph-name="napostrophe" unicode="&#x149;" horiz-adv-x="598" 
d="M102 726h54q18 -97 -45 -181l-33 13q50 74 24 168zM99 384l-13 106l48 10l11 -68h5q80 83 182 83q77 0 124.5 -41t47.5 -117v-357h-54v355q0 53 -32.5 83t-95.5 30q-52 0 -97 -25t-72 -65v-378h-54v384z" />
    <glyph glyph-name="Eng" unicode="&#x14a;" horiz-adv-x="719" 
d="M92 0v661h69l387 -540q10 -15 18 -36h5v576h56v-668q0 -70 -15 -113q-10 -32 -30 -51q-45 -49 -147 -49l-10 46q80 0 113 32.5t33 115.5v27l-401 552q-12 16 -17 35h-5v-588h-56z" />
    <glyph glyph-name="eng" unicode="&#x14b;" horiz-adv-x="598" 
d="M99 384l-13 106l48 10l11 -68h5q80 83 182 83q77 0 124.5 -41t47.5 -117v-381q0 -98 -43 -151.5t-118 -53.5l-7 42q114 0 114 157v385q0 53 -32.5 83t-95.5 30q-52 0 -97 -25t-72 -65v-378h-54v384z" />
    <glyph glyph-name="Omacron" unicode="&#x14c;" horiz-adv-x="758" 
d="M379 671q140 0 229 -95t89 -247q0 -147 -90 -244t-228 -97q-142 0 -230 94t-88 247q0 146 89 244q90 98 229 98zM121 329q0 -130 71 -210q70 -79 187 -79t187 79q71 80 71 210q0 131 -71 211t-187 80t-187 -80t-71 -211zM219 746v47h320v-47h-320z" />
    <glyph glyph-name="omacron" unicode="&#x14d;" horiz-adv-x="586" 
d="M293 515q105 0 171 -73q67 -71 67 -191q0 -118 -67 -191q-66 -72 -171 -72q-103 0 -171 72q-67 73 -67 191q0 120 67 191q67 73 171 73zM111 251q0 -96 50 -157q50 -59 132 -59t132 59q50 61 50 157q0 97 -50 158q-49 61 -132 61t-132 -61q-50 -61 -50 -158zM133 620v47
h320v-47h-320z" />
    <glyph glyph-name="Obreve" unicode="&#x14e;" horiz-adv-x="758" 
d="M228 843l37 12q22 -106 114 -106q95 0 114 106l38 -12q-11 -65 -53 -104t-99 -39t-99 39t-52 104zM379 671q140 0 229 -95t89 -247q0 -147 -90 -244t-228 -97q-142 0 -230 94t-88 247q0 146 89 244q90 98 229 98zM121 329q0 -130 71 -210q70 -79 187 -79t187 79
q71 80 71 210q0 131 -71 211t-187 80t-187 -80t-71 -211z" />
    <glyph glyph-name="obreve" unicode="&#x14f;" horiz-adv-x="586" 
d="M137 716l40 12q20 -116 116 -116q97 0 117 116l40 -12q-10 -71 -52.5 -112t-104.5 -41q-61 0 -103.5 41t-52.5 112zM293 515q105 0 171 -73q67 -71 67 -191q0 -118 -67 -191q-66 -72 -171 -72q-103 0 -171 72q-67 73 -67 191q0 120 67 191q67 73 171 73zM111 251
q0 -96 50 -157q50 -59 132 -59t132 59q50 61 50 157q0 97 -50 158q-49 61 -132 61t-132 -61q-50 -61 -50 -158z" />
    <glyph glyph-name="Ohungarumlaut" unicode="&#x150;" horiz-adv-x="758" 
d="M412 722l120 125l40 -41l-136 -110zM253 721l121 126l39 -40l-135 -111zM379 671q140 0 229 -95t89 -247q0 -147 -90 -244t-228 -97q-142 0 -230 94t-88 247q0 146 89 244q90 98 229 98zM121 329q0 -130 71 -210q70 -79 187 -79t187 79q71 80 71 210q0 131 -71 211
t-187 80t-187 -80t-71 -211z" />
    <glyph glyph-name="ohungarumlaut" unicode="&#x151;" horiz-adv-x="586" 
d="M184 581l90 150l48 -31l-108 -138zM326 582l93 149l47 -32l-111 -137zM293 515q105 0 171 -73q67 -71 67 -191q0 -118 -67 -191q-66 -72 -171 -72q-103 0 -171 72q-67 73 -67 191q0 120 67 191q67 73 171 73zM111 251q0 -96 50 -157q50 -59 132 -59t132 59q50 61 50 157
q0 97 -50 158q-49 61 -132 61t-132 -61q-50 -61 -50 -158z" />
    <glyph glyph-name="OE" unicode="&#x152;" horiz-adv-x="1067" 
d="M641 534v127h354v-50h-306l8 -48v-201h298v-50h-298v-261h319v-51h-375v129q-43 -67 -111.5 -104t-150.5 -37q-142 0 -230 94t-88 247q0 146 89 244q90 98 229 98q84 0 152 -36t110 -101zM121 329q0 -130 71 -210q70 -79 187 -79t187 79q71 80 71 210q0 131 -71 211
t-187 80t-187 -80t-71 -211z" />
    <glyph glyph-name="oe" unicode="&#x153;" horiz-adv-x="950" 
d="M898 262h-366q0 -111 52 -169t154 -58q82 0 147 35l-5 -48q-68 -34 -151 -34q-79 0 -137.5 34.5t-87.5 99.5q-29 -63 -84 -98.5t-127 -35.5q-103 0 -171 72q-67 73 -67 191q0 120 67 191q67 73 171 73q72 0 127.5 -36t84.5 -100q28 63 82 99.5t121 36.5q92 0 143 -56
t51 -155q0 -22 -4 -42zM111 251q0 -96 50 -157q50 -59 132 -59t132 59q50 61 50 157q0 97 -50 158q-49 61 -132 61t-132 -61q-50 -61 -50 -158zM535 301l312 4q0 165 -143 165q-61 0 -110 -43q-48 -41 -59 -126z" />
    <glyph glyph-name="Racute" unicode="&#x154;" horiz-adv-x="576" 
d="M236 696l-22 27l128 121l37 -44zM92 0v661h203q107 0 167 -47.5t60 -133.5q0 -81 -56 -131q-57 -51 -141 -55v-4l39 -39l126 -179l45 -72h-61l-207 291h-119v-291h-56zM297 611h-149v-276h153q74 0 118 38.5t44 106.5q0 64 -42.5 97.5t-123.5 33.5z" />
    <glyph glyph-name="racute" unicode="&#x155;" horiz-adv-x="351" 
d="M147 583l96 145l46 -33l-114 -133zM99 383l-13 108l46 9l12 -82h4q54 90 127 90q36 0 62 -17l-14 -46l-44 8q-43 0 -77 -24.5t-49 -66.5v-362h-54v383z" />
    <glyph glyph-name="Rcommaaccent" unicode="&#x156;" horiz-adv-x="576" 
d="M283 -36h54q20 -95 -45 -182l-32 13q49 73 23 169zM92 0v661h203q107 0 167 -47.5t60 -133.5q0 -81 -56 -131q-57 -51 -141 -55v-4l39 -39l126 -179l45 -72h-61l-207 291h-119v-291h-56zM297 611h-149v-276h153q74 0 118 38.5t44 106.5q0 64 -42.5 97.5t-123.5 33.5z" />
    <glyph glyph-name="rcommaaccent" unicode="&#x157;" horiz-adv-x="351" 
d="M99 -36h54q18 -97 -45 -182l-33 13q49 73 24 169zM99 383l-13 108l46 9l12 -82h4q54 90 127 90q36 0 62 -17l-14 -46l-44 8q-43 0 -77 -24.5t-49 -66.5v-362h-54v383z" />
    <glyph glyph-name="Rcaron" unicode="&#x158;" horiz-adv-x="576" 
d="M92 0v661h203q107 0 167 -47.5t60 -133.5q0 -81 -56 -131q-57 -51 -141 -55v-4l39 -39l126 -179l45 -72h-61l-207 291h-119v-291h-56zM297 611h-149v-276h153q74 0 118 38.5t44 106.5q0 64 -42.5 97.5t-123.5 33.5zM267 700l-106 126l34 13l78 -72l14 -18h6l14 18l78 72
l34 -13l-106 -126h-46z" />
    <glyph glyph-name="rcaron" unicode="&#x159;" horiz-adv-x="351" 
d="M186 562l-102 149l34 12l77 -90l12 -19h7l12 19l77 90l34 -12l-102 -149h-49zM99 383l-13 108l46 9l12 -82h4q54 90 127 90q36 0 62 -17l-14 -46l-44 8q-43 0 -77 -24.5t-49 -66.5v-362h-54v383z" />
    <glyph glyph-name="Sacute" unicode="&#x15a;" horiz-adv-x="525" 
d="M240 696l-23 27l129 121l36 -44zM454 631v-53q-85 43 -180 43q-77 0 -121 -29.5t-44 -85.5q0 -51 38 -83t92 -49t108.5 -36.5t92.5 -61t38 -106.5q0 -86 -68 -134t-163 -48q-105 0 -199 38v55q102 -41 195 -41q83 0 130.5 34.5t47.5 92.5q0 39 -20.5 66.5t-53 43
t-71.5 28.5t-78.5 27.5t-72 34t-53 54.5t-20.5 84q0 79 63 122q65 44 152 44q103 0 187 -40z" />
    <glyph glyph-name="sacute" unicode="&#x15b;" horiz-adv-x="453" 
d="M384 483l3 -49q-67 37 -147 37q-56 0 -90 -21t-34 -61q0 -70 101 -101q91 -28 120 -46q65 -39 65 -111q0 -66 -50.5 -104.5t-137.5 -38.5q-84 0 -160 27l-4 50q71 -31 158 -31q142 0 142 95q0 68 -101 99q-92 28 -123 49q-62 39 -62 110q0 63 51 95q51 33 123 33
q73 0 146 -32zM191 583l97 145l45 -33l-114 -133z" />
    <glyph glyph-name="Scircumflex" unicode="&#x15c;" horiz-adv-x="525" 
d="M454 631v-53q-85 43 -180 43q-77 0 -121 -29.5t-44 -85.5q0 -51 38 -83t92 -49t108.5 -36.5t92.5 -61t38 -106.5q0 -86 -68 -134t-163 -48q-105 0 -199 38v55q102 -41 195 -41q83 0 130.5 34.5t47.5 92.5q0 39 -20.5 66.5t-53 43t-71.5 28.5t-78.5 27.5t-72 34t-53 54.5
t-20.5 84q0 79 63 122q65 44 152 44q103 0 187 -40zM147 713l106 126h46l106 -126l-34 -13l-78 72l-14 18h-6l-14 -18l-78 -72z" />
    <glyph glyph-name="scircumflex" unicode="&#x15d;" horiz-adv-x="453" 
d="M384 483l3 -49q-67 37 -147 37q-56 0 -90 -21t-34 -61q0 -70 101 -101q91 -28 120 -46q65 -39 65 -111q0 -66 -50.5 -104.5t-137.5 -38.5q-84 0 -160 27l-4 50q71 -31 158 -31q142 0 142 95q0 68 -101 99q-92 28 -123 49q-62 39 -62 110q0 63 51 95q51 33 123 33
q73 0 146 -32zM110 574l102 149h49l102 -149l-34 -12l-77 90l-12 19h-7l-12 -19l-77 -90z" />
    <glyph glyph-name="Scedilla" unicode="&#x15e;" horiz-adv-x="525" 
d="M454 631v-53q-85 43 -180 43q-77 0 -121 -29.5t-44 -85.5q0 -51 38 -83t92 -49t108.5 -36.5t92.5 -61t38 -106.5q0 -82 -62 -130q-62 -46 -153 -51l1 -30q42 -3 66.5 -26t24.5 -55q0 -98 -172 -98l-8 33q133 4 133 61q0 25 -25 39.5t-69 15.5l10 60q-98 5 -176 37v55
q102 -41 195 -41q83 0 130.5 34.5t47.5 92.5q0 39 -20.5 66.5t-53 43t-71.5 28.5t-78.5 27.5t-72 34t-53 54.5t-20.5 84q0 79 63 122q65 44 152 44q103 0 187 -40z" />
    <glyph glyph-name="scedilla" unicode="&#x15f;" horiz-adv-x="453" 
d="M384 483l3 -49q-67 37 -147 37q-56 0 -90 -21t-34 -61q0 -70 101 -101q91 -28 120 -46q65 -39 65 -111q0 -62 -45 -100t-124 -42l1 -30q42 -3 66.5 -26t24.5 -55q0 -98 -172 -98l-8 33q133 4 133 61q0 25 -25 39.5t-69 15.5l10 60q-79 5 -140 26l-4 50q71 -31 158 -31
q142 0 142 95q0 68 -101 99q-92 28 -123 49q-62 39 -62 110q0 63 51 95q51 33 123 33q73 0 146 -32z" />
    <glyph glyph-name="Scaron" unicode="&#x160;" horiz-adv-x="525" 
d="M454 631v-53q-85 43 -180 43q-77 0 -121 -29.5t-44 -85.5q0 -51 38 -83t92 -49t108.5 -36.5t92.5 -61t38 -106.5q0 -86 -68 -134t-163 -48q-105 0 -199 38v55q102 -41 195 -41q83 0 130.5 34.5t47.5 92.5q0 39 -20.5 66.5t-53 43t-71.5 28.5t-78.5 27.5t-72 34t-53 54.5
t-20.5 84q0 79 63 122q65 44 152 44q103 0 187 -40zM253 700l-106 126l34 13l78 -72l14 -18h6l14 18l78 72l34 -13l-106 -126h-46z" />
    <glyph glyph-name="scaron" unicode="&#x161;" horiz-adv-x="453" 
d="M384 483l3 -49q-67 37 -147 37q-56 0 -90 -21t-34 -61q0 -70 101 -101q91 -28 120 -46q65 -39 65 -111q0 -66 -50.5 -104.5t-137.5 -38.5q-84 0 -160 27l-4 50q71 -31 158 -31q142 0 142 95q0 68 -101 99q-92 28 -123 49q-62 39 -62 110q0 63 51 95q51 33 123 33
q73 0 146 -32zM212 562l-102 149l34 12l77 -90l12 -19h7l12 19l77 90l34 -12l-102 -149h-49z" />
    <glyph glyph-name="Tcommaaccent" unicode="&#x162;" horiz-adv-x="540" 
d="M18 611v50h504v-50h-224v-611h-10l1 -41q42 -3 66.5 -26t24.5 -55q0 -98 -172 -98l-8 33q133 4 133 61q0 25 -25 39.5t-69 15.5l12 71h-9v611h-224z" />
    <glyph glyph-name="tcommaaccent" unicode="&#x163;" horiz-adv-x="380" 
d="M112 498l12 132l34 12h14l-6 -143h186l-14 -47l-172 7v-298q0 -71 20.5 -98.5t77.5 -27.5q51 0 90 19l-3 -45q-51 -21 -102 -21q-3 0 -11.5 0.5t-10.5 0.5l1 -30q42 -3 66.5 -26t24.5 -55q0 -98 -172 -98l-8 33q133 4 133 61q0 25 -25 39.5t-69 15.5l11 67
q-44 15 -61.5 52.5t-17.5 105.5l2 296l-90 6v33z" />
    <glyph glyph-name="Tcaron" unicode="&#x164;" horiz-adv-x="540" 
d="M247 700l-106 126l34 13l78 -72l14 -18h6l14 18l78 72l34 -13l-106 -126h-46zM18 611v50h504v-50h-224v-611h-56v611h-224z" />
    <glyph glyph-name="tcaron" unicode="&#x165;" horiz-adv-x="388" 
d="M303 552v179h59l-19 -179h-40zM112 498l12 132l34 12h14l-6 -143h186l-14 -47l-172 7v-298q0 -71 20.5 -98.5t77.5 -27.5q51 0 90 19l-3 -45q-51 -21 -102 -21q-78 0 -108.5 40.5t-30.5 125.5l2 296l-90 6v33z" />
    <glyph glyph-name="Tbar" unicode="&#x166;" horiz-adv-x="540" 
d="M18 611v50h504v-50h-224v-266h169v-43h-169v-302h-56v302h-174v43h174v266h-224z" />
    <glyph glyph-name="tbar" unicode="&#x167;" horiz-adv-x="380" 
d="M112 498l12 132l34 12h14l-6 -143h186l-14 -47l-172 7v-141h175v-36h-175v-121q0 -71 20.5 -98.5t77.5 -27.5q51 0 90 19l-3 -45q-51 -21 -102 -21q-78 0 -108.5 40.5t-30.5 125.5l1 128h-89v36h89l1 132l-90 6v33z" />
    <glyph glyph-name="Utilde" unicode="&#x168;" horiz-adv-x="669" 
d="M182 725h-8l-2 41q38 50 97 50q24 0 78 -23t71 -23q47 0 71 45h7l2 -41q-38 -50 -95 -50q-23 0 -77 23t-71 23q-49 0 -73 -45zM83 235v426h57v-426q0 -92 53 -143.5t142 -51.5q91 0 143.5 50.5t52.5 144.5v426h55v-425q0 -119 -70 -183q-71 -65 -181 -65
q-115 0 -183.5 65.5t-68.5 181.5z" />
    <glyph glyph-name="utilde" unicode="&#x169;" horiz-adv-x="592" 
d="M144 599h-8l-2 41q34 49 96 49q23 0 77 -23q51 -22 71 -22q46 0 69 45h7l2 -41q-34 -49 -94 -49q-25 0 -76 22q-54 23 -70 23q-50 0 -72 -45zM94 152v351l54 13v-365q0 -116 128 -116q53 0 97.5 25t69.5 66v377l54 13v-520l-34 -7l-14 82h-4q-77 -83 -178 -83
q-80 0 -126.5 42.5t-46.5 121.5z" />
    <glyph glyph-name="Umacron" unicode="&#x16a;" horiz-adv-x="669" 
d="M83 235v426h57v-426q0 -92 53 -143.5t142 -51.5q91 0 143.5 50.5t52.5 144.5v426h55v-425q0 -119 -70 -183q-71 -65 -181 -65q-115 0 -183.5 65.5t-68.5 181.5zM175 746v47h320v-47h-320z" />
    <glyph glyph-name="umacron" unicode="&#x16b;" horiz-adv-x="592" 
d="M94 152v351l54 13v-365q0 -116 128 -116q53 0 97.5 25t69.5 66v377l54 13v-520l-34 -7l-14 82h-4q-77 -83 -178 -83q-80 0 -126.5 42.5t-46.5 121.5zM135 620v47h320v-47h-320z" />
    <glyph glyph-name="Ubreve" unicode="&#x16c;" horiz-adv-x="669" 
d="M184 843l38 12q19 -106 113 -106q95 0 114 106l38 -12q-10 -65 -52 -104t-100 -39q-57 0 -98.5 39t-52.5 104zM83 235v426h57v-426q0 -92 53 -143.5t142 -51.5q91 0 143.5 50.5t52.5 144.5v426h55v-425q0 -119 -70 -183q-71 -65 -181 -65q-115 0 -183.5 65.5t-68.5 181.5
z" />
    <glyph glyph-name="ubreve" unicode="&#x16d;" horiz-adv-x="592" 
d="M139 716l41 12q20 -116 115 -116q97 0 117 116l40 -12q-10 -71 -52.5 -112t-104.5 -41q-61 0 -103.5 41t-52.5 112zM94 152v351l54 13v-365q0 -116 128 -116q53 0 97.5 25t69.5 66v377l54 13v-520l-34 -7l-14 82h-4q-77 -83 -178 -83q-80 0 -126.5 42.5t-46.5 121.5z" />
    <glyph glyph-name="Uring" unicode="&#x16e;" horiz-adv-x="669" 
d="M264 725q-29 30 -29 71t29 70q30 30 71 30t70 -30q30 -29 30 -70t-30 -71q-29 -29 -70 -29t-71 29zM290 840q-18 -18 -18 -44t18 -45q19 -18 45 -18t44 18q19 19 19 45t-19 44q-18 19 -44 19t-45 -19zM83 235v426h57v-426q0 -92 53 -143.5t142 -51.5q91 0 143.5 50.5
t52.5 144.5v426h55v-425q0 -119 -70 -183q-71 -65 -181 -65q-115 0 -183.5 65.5t-68.5 181.5z" />
    <glyph glyph-name="uring" unicode="&#x16f;" horiz-adv-x="592" 
d="M94 152v351l54 13v-365q0 -116 128 -116q53 0 97.5 25t69.5 66v377l54 13v-520l-34 -7l-14 82h-4q-77 -83 -178 -83q-80 0 -126.5 42.5t-46.5 121.5zM224 591q-29 29 -29 70t29 70q30 30 71 30t70 -30q30 -29 30 -70t-30 -70q-29 -29 -70 -29t-71 29zM339 705
q-18 19 -44 19t-44 -19q-18 -18 -18 -44t18 -44t44 -18t44 18q19 18 19 44t-19 44z" />
    <glyph glyph-name="Uhungarumlaut" unicode="&#x170;" horiz-adv-x="669" 
d="M374 722l120 125l40 -41l-136 -110zM215 721l121 126l39 -40l-135 -111zM83 235v426h57v-426q0 -92 53 -143.5t142 -51.5q91 0 143.5 50.5t52.5 144.5v426h55v-425q0 -119 -70 -183q-71 -65 -181 -65q-115 0 -183.5 65.5t-68.5 181.5z" />
    <glyph glyph-name="uhungarumlaut" unicode="&#x171;" horiz-adv-x="592" 
d="M176 581l90 150l48 -31l-108 -138zM318 582l93 149l47 -32l-111 -137zM94 152v351l54 13v-365q0 -116 128 -116q53 0 97.5 25t69.5 66v377l54 13v-520l-34 -7l-14 82h-4q-77 -83 -178 -83q-80 0 -126.5 42.5t-46.5 121.5z" />
    <glyph glyph-name="Uogonek" unicode="&#x172;" horiz-adv-x="669" 
d="M83 235v426h57v-426q0 -92 53 -143.5t142 -51.5q91 0 143.5 50.5t52.5 144.5v426h55v-425q0 -84 -37 -142.5t-103 -85.5l-16 -6q-44 -17 -73 -49t-29 -73q0 -43 43 -55t74 7l-3 -41q-35 -13 -73 -13t-65.5 27t-27.5 70q0 64 61 113h-2q-115 0 -183.5 65.5t-68.5 181.5z
" />
    <glyph glyph-name="uogonek" unicode="&#x173;" horiz-adv-x="592" 
d="M94 152v351l54 13v-365q0 -116 128 -116q53 0 97.5 25t69.5 66v377l54 13v-520q-43 -14 -76 -43q-35 -30 -35 -76q0 -30 19.5 -45t44 -14.5t46.5 11.5l-3 -37q-33 -13 -70 -13q-36 0 -62 26.5t-26 68.5q0 44 35 82.5t89 57.5l-10 57h-4q-77 -83 -178 -83
q-80 0 -126.5 42.5t-46.5 121.5z" />
    <glyph glyph-name="Wcircumflex" unicode="&#x174;" horiz-adv-x="945" 
d="M247 0l-223 661h62l183 -558q7 -21 7 -35h5q0 14 5 36l157 556h62l156 -556q6 -24 6 -36h4q0 16 6 35l185 558h59l-224 -661h-60l-156 552q-6 20 -6 36h-5q0 -16 -6 -36l-157 -552h-60zM343 713l106 126h46l106 -126l-34 -13l-78 72l-14 18h-6l-14 -18l-78 -72z" />
    <glyph glyph-name="wcircumflex" unicode="&#x175;" horiz-adv-x="773" 
d="M196 0l-172 504h58l135 -409q7 -20 8 -36h5q1 17 7 36l125 409h56l124 -409q6 -19 7 -36h5q1 14 7 36l132 409h56l-171 -504h-58l-123 404q-6 16 -6 35h-5q0 -19 -6 -35l-126 -404h-58zM264 574l102 149h49l102 -149l-34 -12l-77 90l-12 19h-7l-12 -19l-77 -90z" />
    <glyph glyph-name="Ycircumflex" unicode="&#x176;" horiz-adv-x="566" 
d="M252 275l-247 386h64l191 -307q14 -21 20 -36h8q8 20 18 36l193 307h62l-251 -385v-276h-58v275zM154 713l106 126h46l106 -126l-34 -13l-78 72l-14 18h-6l-14 -18l-78 -72z" />
    <glyph glyph-name="ycircumflex" unicode="&#x177;" horiz-adv-x="494" 
d="M216 11l-191 493h58l147 -392q13 -32 13 -54l4 -2l167 448h56l-236 -593q-27 -67 -60 -99t-79 -32q-41 0 -75 15l-7 47q37 -15 74 -15q68 0 98 77l41 101zM121 574l102 149h49l102 -149l-34 -12l-77 90l-12 19h-7l-12 -19l-77 -90z" />
    <glyph glyph-name="Ydieresis" unicode="&#x178;" horiz-adv-x="566" 
d="M166 799q16 20 39.5 11.5t29.5 -29.5t-11 -41q-12 -12 -29 -12t-29 12q-12 13 -12 30t12 29zM344 799q16 20 39.5 11.5t29.5 -29.5t-11 -41q-12 -12 -29 -12t-29 12q-12 13 -12 30t12 29zM252 275l-247 386h64l191 -307q14 -21 20 -36h8q8 20 18 36l193 307h62l-251 -385
v-276h-58v275z" />
    <glyph glyph-name="Zacute" unicode="&#x179;" horiz-adv-x="587" 
d="M268 696l-23 27l129 121l36 -44zM72 611v50h442v-55l-393 -552l4 -6q12 3 35 3h370v-51h-473v55l394 553l-3 5q-14 -2 -35 -2h-341z" />
    <glyph glyph-name="zacute" unicode="&#x17a;" horiz-adv-x="494" 
d="M70 460v44h358v-43l-306 -418l3 -4q11 6 38 6h271v-45h-372v44l306 418l-3 4q-13 -6 -39 -6h-256zM210 583l97 145l45 -33l-114 -133z" />
    <glyph glyph-name="Zdotaccent" unicode="&#x17b;" horiz-adv-x="587" 
d="M72 611v50h442v-55l-393 -552l4 -6q12 3 35 3h370v-51h-473v55l394 553l-3 5q-14 -2 -35 -2h-341zM265 740q-12 13 -12 31t12 30q13 13 31 13t30 -13q13 -12 13 -30t-13 -31q-12 -12 -30 -12t-31 12z" />
    <glyph glyph-name="zdotaccent" unicode="&#x17c;" horiz-adv-x="494" 
d="M221 684q16 20 39.5 11.5t29.5 -30t-11 -39.5q-12 -12 -29 -12t-29 12t-12 29t12 29zM70 460v44h358v-43l-306 -418l3 -4q11 6 38 6h271v-45h-372v44l306 418l-3 4q-13 -6 -39 -6h-256z" />
    <glyph glyph-name="Zcaron" unicode="&#x17d;" horiz-adv-x="587" 
d="M72 611v50h442v-55l-393 -552l4 -6q12 3 35 3h370v-51h-473v55l394 553l-3 5q-14 -2 -35 -2h-341zM270 700l-106 126l34 13l78 -72l14 -18h6l14 18l78 72l34 -13l-106 -126h-46z" />
    <glyph glyph-name="zcaron" unicode="&#x17e;" horiz-adv-x="494" 
d="M225 562l-102 149l34 12l77 -90l12 -19h7l12 19l77 90l34 -12l-102 -149h-49zM70 460v44h358v-43l-306 -418l3 -4q11 6 38 6h271v-45h-372v44l306 418l-3 4q-13 -6 -39 -6h-256z" />
    <glyph glyph-name="florin" unicode="&#x192;" horiz-adv-x="489" 
d="M91 374v34h123l31 165q19 114 131 114q42 0 85 -15l-9 -42q-35 11 -62 11q-43 0 -65 -16.5t-30 -60.5l-28 -156h150l-9 -43h-150l-80 -441q-23 -122 -121 -122q-45 0 -85 18l12 43q32 -15 60 -15q35 0 54.5 20t27.5 65l80 431z" />
    <glyph glyph-name="Aringacute" unicode="&#x1fa;" horiz-adv-x="660" 
d="M291 850l106 108l35 -36l-82 -66q34 -8 57 -35.5t23 -62.5t-21.5 -62t-54.5 -35h8l267 -661h-64l-80 204h-312l-80 -204h-62l268 661h7q-33 8 -54.5 35t-21.5 62q0 30 17 55.5t44 36.5zM331 607h-4q-2 -15 -10 -35l-126 -319h276l-126 319q-8 20 -10 35zM285 802
q-18 -18 -18 -44t18 -45q19 -18 45 -18t44 18q19 19 19 45t-19 44q-18 19 -44 19t-45 -19z" />
    <glyph glyph-name="aringacute" unicode="&#x1fb;" horiz-adv-x="547" 
d="M95 436l5 47q73 32 162 32q94 0 143 -35t49 -100v-285l12 -99l-45 -8l-16 79h-4q-70 -79 -172 -79q-77 0 -126 40.5t-49 109.5q0 79 53.5 120.5t145.5 41.5q39 0 147 -11v72q0 56 -33.5 82t-112.5 26q-86 0 -159 -33zM400 121v127q-83 11 -144 11q-148 0 -148 -118
q0 -53 35.5 -80.5t97.5 -27.5q104 0 159 88zM224 748l127 122l36 -42l-90 -70q33 -8 55 -35t22 -62q0 -41 -29.5 -70t-70.5 -29t-70.5 29t-29.5 70q0 58 50 87zM318 705q-18 19 -44 19t-44 -19q-18 -18 -18 -44t18 -44t44 -18t44 18q19 18 19 44t-19 44z" />
    <glyph glyph-name="AEacute" unicode="&#x1fc;" horiz-adv-x="903" 
d="M551 696l-23 27l129 121l36 -44zM31 0l374 661h426v-50h-305l8 -48v-201h297v-50h-297v-261h318v-51h-375v204h-268l-115 -204h-63zM408 558l-171 -305h240v358h-51q-2 -23 -18 -53z" />
    <glyph glyph-name="aeacute" unicode="&#x1fd;" horiz-adv-x="872" 
d="M420 583l96 145l46 -33l-114 -133zM95 436l5 47q73 32 162 32q162 0 186 -101q66 101 182 101q92 0 143 -56t51 -155q0 -29 -4 -42h-366q0 -111 52 -169t154 -58q82 0 147 35l-5 -48q-67 -34 -151 -34q-152 0 -215 117q-74 -117 -207 -117q-77 0 -126 40.5t-49 109.5
q0 79 53.5 120.5t145.5 41.5q39 0 147 -11v72q0 56 -33.5 82t-112.5 26q-86 0 -159 -33zM400 121v127q-83 11 -144 11q-148 0 -148 -118q0 -53 35.5 -80.5t97.5 -27.5q104 0 159 88zM457 301l312 4q0 165 -143 165q-61 0 -110 -43q-48 -41 -59 -126z" />
    <glyph glyph-name="Oslashacute" unicode="&#x1fe;" horiz-adv-x="758" 
d="M539 631l70 116l32 -17l-72 -119q128 -95 128 -282q0 -147 -90 -244t-228 -97q-90 0 -160 40l-69 -115l-33 18l70 117q-126 93 -126 281q0 146 89 244q90 98 229 98q90 0 160 -40zM541 564l-295 -490q58 -34 133 -34q117 0 187 79q71 80 71 210q0 155 -96 235zM216 95
l295 490q-56 35 -132 35q-116 0 -187 -80t-71 -211q0 -154 95 -234zM331 696l-22 27l128 121l37 -44z" />
    <glyph glyph-name="oslashacute" unicode="&#x1ff;" horiz-adv-x="586" 
d="M416 482l54 87l28 -16l-55 -90q88 -75 88 -212q0 -118 -67 -191q-66 -72 -171 -72q-66 0 -122 32l-53 -87l-30 17l55 90q-88 72 -88 211q0 120 67 191q67 73 171 73q67 0 123 -33zM170 84l221 356q-43 30 -98 30q-83 0 -132 -61q-50 -61 -50 -158q0 -105 59 -167z
M416 419l-219 -357q43 -27 96 -27q82 0 132 59q50 61 50 157q0 106 -59 168zM229 583l96 145l46 -33l-114 -133z" />
    <glyph glyph-name="Scommaaccent" unicode="&#x218;" horiz-adv-x="525" 
d="M235 -36h54q20 -95 -45 -182l-32 13q49 73 23 169zM454 631v-53q-85 43 -180 43q-77 0 -121 -29.5t-44 -85.5q0 -51 38 -83t92 -49t108.5 -36.5t92.5 -61t38 -106.5q0 -86 -68 -134t-163 -48q-105 0 -199 38v55q102 -41 195 -41q83 0 130.5 34.5t47.5 92.5
q0 39 -20.5 66.5t-53 43t-71.5 28.5t-78.5 27.5t-72 34t-53 54.5t-20.5 84q0 79 63 122q65 44 152 44q103 0 187 -40z" />
    <glyph glyph-name="scommaaccent" unicode="&#x219;" horiz-adv-x="453" 
d="M199 -36h53q19 -100 -45 -182l-32 13q49 73 24 169zM384 483l3 -49q-67 37 -147 37q-56 0 -90 -21t-34 -61q0 -70 101 -101q91 -28 120 -46q65 -39 65 -111q0 -66 -50.5 -104.5t-137.5 -38.5q-84 0 -160 27l-4 50q71 -31 158 -31q142 0 142 95q0 68 -101 99
q-92 28 -123 49q-62 39 -62 110q0 63 51 95q51 33 123 33q73 0 146 -32z" />
    <glyph glyph-name="uni021A" unicode="&#x21a;" horiz-adv-x="540" 
d="M242 -36h55q18 -97 -45 -182l-33 13q49 73 23 169zM18 611v50h504v-50h-224v-611h-56v611h-224z" />
    <glyph glyph-name="uni021B" unicode="&#x21b;" horiz-adv-x="380" 
d="M207 -36h55q20 -98 -45 -182l-33 13q49 71 23 169zM112 498l12 132l34 12h14l-6 -143h186l-14 -47l-172 7v-298q0 -71 20.5 -98.5t77.5 -27.5q51 0 90 19l-3 -45q-51 -21 -102 -21q-78 0 -108.5 40.5t-30.5 125.5l2 296l-90 6v33z" />
    <glyph glyph-name="circumflex" unicode="&#x2c6;" horiz-adv-x="351" 
d="M49 574l102 149h49l102 -149l-34 -12l-77 90l-12 19h-7l-12 -19l-77 -90z" />
    <glyph glyph-name="caron" unicode="&#x2c7;" horiz-adv-x="351" 
d="M151 562l-102 149l34 12l77 -90l12 -19h7l12 19l77 90l34 -12l-102 -149h-49z" />
    <glyph glyph-name="breve" unicode="&#x2d8;" horiz-adv-x="437" 
d="M62 716l40 12q20 -116 116 -116t116 116l41 -12q-10 -71 -52.5 -112t-104.5 -41q-61 0 -103.5 41t-52.5 112z" />
    <glyph glyph-name="dotaccent" unicode="&#x2d9;" horiz-adv-x="202" 
d="M64 608q-15 15 -15 37t15 37t37 15t37 -15t15 -37t-15 -37t-37 -15t-37 15z" />
    <glyph glyph-name="ring" unicode="&#x2da;" horiz-adv-x="299" 
d="M78 592q-29 29 -29 70t29 70q30 30 71 30t70 -30q30 -29 30 -70t-30 -70q-29 -29 -70 -29t-71 29zM193 706q-18 19 -44 19t-44 -19q-18 -18 -18 -44t18 -44t44 -18t44 18q19 18 19 44t-19 44z" />
    <glyph glyph-name="ogonek" unicode="&#x2db;" horiz-adv-x="259" 
d="M216 26l-4 -30q-46 -11 -83 -39t-42 -76q-3 -28 15 -41.5t42.5 -12t46.5 12.5l-4 -36q-35 -14 -69.5 -15.5t-58 21.5t-20.5 66q5 57 55 97q52 41 122 53z" />
    <glyph glyph-name="tilde" unicode="&#x2dc;" horiz-adv-x="442" 
d="M63 599h-7l-2 41q34 49 95 49q24 0 78 -23q51 -22 70 -22q47 0 69 45h8l2 -41q-34 -49 -95 -49q-25 0 -76 22q-54 23 -70 23q-49 0 -72 -45z" />
    <glyph glyph-name="hungarumlaut" unicode="&#x2dd;" horiz-adv-x="406" 
d="M62 581l91 150l47 -31l-108 -138zM203 582l93 149l48 -32l-111 -137z" />
    <glyph glyph-name="pi" unicode="&#x3c0;" horiz-adv-x="657" 
d="M86 448v48h485v-48h-56v-337l15 -119l-50 -7l-20 126v337h-263v-448h-54v448h-57z" />
    <glyph glyph-name="uni0E3F" unicode="&#xe3f;" horiz-adv-x="581" 
d="M92 0v661h167v141h42v-142q208 -10 208 -162q0 -57 -34 -96.5t-92 -52.5v-8q66 -11 106.5 -54t40.5 -103q0 -76 -57 -130t-158 -54h-14v-130h-42v130h-167zM301 318v-268h1q78 0 122 35.5t44 99.5q0 55 -44.5 90.5t-122.5 42.5zM259 320h-111v-270h111v270zM301 612v-246
q150 14 150 129q0 107 -150 117zM259 613h-111v-248h111v248z" />
    <glyph glyph-name="Wgrave" unicode="&#x1e80;" horiz-adv-x="945" 
d="M365 800l37 44l128 -121l-22 -27zM247 0l-223 661h62l183 -558q7 -21 7 -35h5q0 14 5 36l157 556h62l156 -556q6 -24 6 -36h4q0 16 6 35l185 558h59l-224 -661h-60l-156 552q-6 20 -6 36h-5q0 -16 -6 -36l-157 -552h-60z" />
    <glyph glyph-name="wgrave" unicode="&#x1e81;" horiz-adv-x="773" 
d="M422 562l-114 133l46 33l96 -145zM196 0l-172 504h58l135 -409q7 -20 8 -36h5q1 17 7 36l125 409h56l124 -409q6 -19 7 -36h5q1 14 7 36l132 409h56l-171 -504h-58l-123 404q-6 16 -6 35h-5q0 -19 -6 -35l-126 -404h-58z" />
    <glyph glyph-name="Wacute" unicode="&#x1e82;" horiz-adv-x="945" 
d="M441 696l-23 27l129 121l36 -44zM247 0l-223 661h62l183 -558q7 -21 7 -35h5q0 14 5 36l157 556h62l156 -556q6 -24 6 -36h4q0 16 6 35l185 558h59l-224 -661h-60l-156 552q-6 20 -6 36h-5q0 -16 -6 -36l-157 -552h-60z" />
    <glyph glyph-name="wacute" unicode="&#x1e83;" horiz-adv-x="773" 
d="M330 583l96 145l46 -33l-114 -133zM196 0l-172 504h58l135 -409q7 -20 8 -36h5q1 17 7 36l125 409h56l124 -409q6 -19 7 -36h5q1 14 7 36l132 409h56l-171 -504h-58l-123 404q-6 16 -6 35h-5q0 -19 -6 -35l-126 -404h-58z" />
    <glyph glyph-name="Wdieresis" unicode="&#x1e84;" horiz-adv-x="945" 
d="M247 0l-223 661h62l183 -558q7 -21 7 -35h5q0 14 5 36l157 556h62l156 -556q6 -24 6 -36h4q0 16 6 35l185 558h59l-224 -661h-60l-156 552q-6 20 -6 36h-5q0 -16 -6 -36l-157 -552h-60zM355 740q-12 13 -12 30t12 29q13 13 30 13t29 -13q13 -12 13 -29t-13 -30
q-12 -12 -29 -12t-30 12zM533 740q-12 13 -12 30t12 29q13 13 30 13t29 -13q13 -12 13 -29t-13 -30q-12 -12 -29 -12t-30 12z" />
    <glyph glyph-name="wdieresis" unicode="&#x1e85;" horiz-adv-x="773" 
d="M266 613q-12 13 -12 31t12 30q13 13 31 13t30 -13q13 -12 13 -30t-13 -31q-12 -12 -30 -12t-31 12zM452 613q-12 13 -12 31t12 30q13 13 31 13t30 -13q13 -12 13 -30t-13 -31q-12 -12 -30 -12t-31 12zM196 0l-172 504h58l135 -409q7 -20 8 -36h5q1 17 7 36l125 409h56
l124 -409q6 -19 7 -36h5q1 14 7 36l132 409h56l-171 -504h-58l-123 404q-6 16 -6 35h-5q0 -19 -6 -35l-126 -404h-58z" />
    <glyph glyph-name="Ygrave" unicode="&#x1ef2;" horiz-adv-x="566" 
d="M157 800l37 44l128 -121l-22 -27zM252 275l-247 386h64l191 -307q14 -21 20 -36h8q8 20 18 36l193 307h62l-251 -385v-276h-58v275z" />
    <glyph glyph-name="ygrave" unicode="&#x1ef3;" horiz-adv-x="494" 
d="M238 562l-114 133l46 33l96 -145zM216 11l-191 493h58l147 -392q13 -32 13 -54l4 -2l167 448h56l-236 -593q-27 -67 -60 -99t-79 -32q-41 0 -75 15l-7 47q37 -15 74 -15q68 0 98 77l41 101z" />
    <glyph glyph-name="endash" unicode="&#x2013;" horiz-adv-x="715" 
d="M92 229v44h532v-44h-532z" />
    <glyph glyph-name="emdash" unicode="&#x2014;" horiz-adv-x="956" 
d="M92 229v44h773v-44h-773z" />
    <glyph glyph-name="quoteleft" unicode="&#x2018;" horiz-adv-x="179" 
d="M102 737l35 -19q-24 -39 -30 -85q-10 -82 26 -132l-66 -21q-14 25 -16 69t11 97t40 91z" />
    <glyph glyph-name="quoteright" unicode="&#x2019;" horiz-adv-x="179" 
d="M49 715l65 22q22 -33 14 -116q-8 -81 -48 -141l-35 19q32 64 30.5 124.5t-26.5 91.5z" />
    <glyph glyph-name="quotesinglbase" unicode="&#x201a;" horiz-adv-x="179" 
d="M49 98l65 21q22 -33 14 -116q-8 -81 -48 -141l-35 19q24 41 28 85q11 83 -24 132z" />
    <glyph glyph-name="quotedblleft" unicode="&#x201c;" horiz-adv-x="332" 
d="M254 737l35 -19q-34 -65 -31.5 -125.5t27.5 -91.5l-66 -21q-14 25 -16 69t11 97t40 91zM102 737l35 -19q-24 -39 -30 -85q-10 -82 26 -132l-66 -21q-14 25 -16 69t11 97t40 91z" />
    <glyph glyph-name="quotedblright" unicode="&#x201d;" horiz-adv-x="332" 
d="M49 715l65 22q22 -33 14 -116q-8 -81 -48 -141l-35 19q32 64 30.5 124.5t-26.5 91.5zM201 715l65 22q22 -33 14 -116q-8 -81 -48 -141l-35 19q32 64 30.5 124.5t-26.5 91.5z" />
    <glyph glyph-name="quotedblbase" unicode="&#x201e;" horiz-adv-x="332" 
d="M49 98l65 21q22 -33 14 -116q-8 -81 -48 -141l-35 19q24 41 28 85q11 83 -24 132zM201 98l65 21q22 -33 14 -116q-8 -81 -48 -141l-35 19q24 41 28 85q11 83 -24 132z" />
    <glyph glyph-name="dagger" unicode="&#x2020;" horiz-adv-x="634" 
d="M282 649l17 102h38l15 -102l-24 -114l113 22l102 -13v-38l-102 -13l-113 20l24 -126l-19 -585l-34 -9l-17 594l25 126l-113 -20l-103 14v36l103 15l113 -23z" />
    <glyph glyph-name="daggerdbl" unicode="&#x2021;" horiz-adv-x="654" 
d="M293 649l16 102h37l16 -102l-25 -114l113 22l103 -13v-38l-103 -13l-113 20l25 -123l-14 -137l113 20l102 -13v-38l-102 -10l-113 21l-4 -431l-34 -9l-4 440l-112 -21l-103 12v36l103 13l112 -20l-13 137l23 123l-113 -20l-102 14v36l102 15l113 -23z" />
    <glyph glyph-name="bullet" unicode="&#x2022;" horiz-adv-x="354" 
d="M177 363q47 0 79.5 -32.5t32.5 -79.5q0 -46 -33 -79t-79 -33q-45 0 -79 33q-33 34 -33 79q0 46 33 79q34 33 79 33z" />
    <glyph glyph-name="ellipsis" unicode="&#x2026;" horiz-adv-x="645" 
d="M65 65q13 14 32 14t32 -14q14 -13 14 -32t-14 -32q-13 -13 -32 -13t-32 13t-13 32t13 32zM290 65q13 14 32 14t32 -14q14 -13 14 -32t-14 -32q-13 -13 -32 -13t-32 13t-13 32t13 32zM515 65q13 14 32 14t32 -14q14 -13 14 -32t-14 -32q-13 -13 -32 -13t-32 13t-13 32
t13 32z" />
    <glyph glyph-name="perthousand" unicode="&#x2030;" horiz-adv-x="1188" 
d="M773 155q0 -70 -39 -112.5t-107 -42.5t-107 42.5t-39 112.5t39 112t107 42t107 -42t39 -112zM627 272q-98 0 -98 -117t98 -117q97 0 97 117t-97 117zM341 506q0 -70 -39 -112t-107 -42t-107 42t-39 112t39 112.5t107 42.5t107 -42.5t39 -112.5zM195 624q-48 0 -73 -30.5
t-25 -87.5q0 -116 98 -116q97 0 97 116q0 118 -97 118zM208 2l380 688l37 -17l-380 -688zM1139 155q0 -70 -39 -112.5t-107 -42.5t-107 42.5t-39 112.5t39 112t107 42t107 -42t39 -112zM993 272q-98 0 -98 -117t98 -117q97 0 97 117t-97 117z" />
    <glyph glyph-name="guilsinglleft" unicode="&#x2039;" horiz-adv-x="350" 
d="M49 189l182 186h60l-177 -186l176 -183h-60z" />
    <glyph glyph-name="guilsinglright" unicode="&#x203a;" horiz-adv-x="350" 
d="M235 189l-177 186h61l182 -186l-181 -183h-61z" />
    <glyph glyph-name="fraction" unicode="&#x2044;" horiz-adv-x="552" 
d="M39 0l421 750h53l-421 -750h-53z" />
    <glyph glyph-name="zerosuperior" unicode="&#x2070;" horiz-adv-x="436" 
d="M392 620q0 -79 -47 -137q-47 -57 -127 -57q-82 0 -129 57q-46 56 -46 137q0 82 46 138q46 58 129 58q82 0 128 -57q46 -56 46 -139zM88 620q0 -62 33 -108t97 -46q63 0 96 46t33 108q0 64 -33 110q-31 46 -96 46q-64 0 -97 -46t-33 -110z" />
    <glyph glyph-name="foursuperior" unicode="&#x2074;" horiz-adv-x="347" 
d="M21 558l162 253h68v-254h75l-11 -39h-64v-86h-47v86h-183v40zM204 764h-9l-127 -200v-7h136v207z" />
    <glyph glyph-name="fivesuperior" unicode="&#x2075;" horiz-adv-x="359" 
d="M74 621l5 190h214l-5 -39h-168l-6 -107l4 -2q75 25 132 -7t57 -100q0 -57 -44 -93.5t-111 -36.5q-48 0 -89 12l-5 37q48 -12 86 -12q55 0 86 25t31 71q0 57 -54 74q-54 18 -133 -12z" />
    <glyph glyph-name="sixsuperior" unicode="&#x2076;" horiz-adv-x="376" 
d="M91 629l3 -2q44 38 96 38q58 0 94 -33t36 -83q0 -49 -35 -87q-35 -36 -90 -36q-68 0 -110 45q-42 47 -42 115q0 99 72 165t184 66l3 -33q-78 0 -139 -42q-60 -40 -72 -113zM87 590q-4 -56 26 -92.5t82 -36.5q37 0 58.5 24t21.5 60q0 37 -23.5 60t-67.5 23q-56 0 -97 -38z
" />
    <glyph glyph-name="sevensuperior" unicode="&#x2077;" horiz-adv-x="363" 
d="M54 771l4 40h246v-38l-173 -348l-42 16l167 327v7l-52 -4h-150z" />
    <glyph glyph-name="eightsuperior" unicode="&#x2078;" horiz-adv-x="375" 
d="M223 644q45 26 45 76q0 30 -21 46.5t-58 16.5q-32 0 -52 -16.5t-20 -46.5q0 -24 18 -41q26 -22 88 -35zM155 626q-60 -24 -60 -86q0 -38 26 -59t68 -21q43 0 68 20.5t25 59.5q0 29 -27 48q-11 9 -30 16q-23 10 -70 22zM126 640v5q-53 26 -53 75q0 42 35 69q34 27 82 27
q53 0 87 -27t34 -68q0 -60 -61 -86v-5q77 -26 77 -90q0 -49 -39 -81.5t-100 -32.5q-59 0 -100 32q-40 33 -40 81q0 69 78 101z" />
    <glyph glyph-name="ninesuperior" unicode="&#x2079;" horiz-adv-x="366" 
d="M67 425l-4 33q77 0 138 41q61 42 73 114l-4 2q-44 -38 -95 -38q-58 0 -94 33t-36 83q0 52 35.5 87.5t89.5 35.5q68 0 110 -46q42 -45 42 -114q0 -99 -72 -165q-70 -66 -183 -66zM278 652q4 56 -26 92.5t-82 36.5q-37 0 -58.5 -24t-21.5 -60q0 -37 23.5 -60t67.5 -23
q56 0 97 38z" />
    <glyph glyph-name="zeroinferior" unicode="&#x2080;" horiz-adv-x="436" 
d="M392 100q0 -79 -47 -137q-47 -57 -127 -57q-82 0 -129 57q-46 56 -46 137q0 82 46 138q46 58 129 58q82 0 128 -57q46 -56 46 -139zM88 100q0 -62 33 -108t97 -46q63 0 96 46t33 108q0 64 -33 110q-31 46 -96 46q-64 0 -97 -46t-33 -110z" />
    <glyph glyph-name="oneinferior" unicode="&#x2081;" horiz-adv-x="339" 
d="M95 202l-7 28l162 60v-378h-48v306z" />
    <glyph glyph-name="twoinferior" unicode="&#x2082;" horiz-adv-x="378" 
d="M67 224l4 41q50 31 110 31q53 0 85.5 -30t32.5 -76q0 -69 -66 -133l-57 -53q-33 -30 -47 -47v-5l71 5h129l-5 -45h-257v37q20 23 74 71q58 51 83.5 87.5t25.5 74.5q0 72 -84 72q-48 0 -99 -30z" />
    <glyph glyph-name="threeinferior" unicode="&#x2083;" horiz-adv-x="379" 
d="M76 230l5 40q47 26 105 26q54 0 88 -24t34 -63q0 -69 -71 -90v-5q38 -6 60 -29t22 -58q0 -54 -43 -87.5t-112 -33.5q-48 0 -93 14l-5 39q42 -15 94 -15q53 0 83 21.5t30 58.5q0 72 -142 72v34q132 0 132 73q0 25 -21.5 39t-60.5 14q-55 0 -105 -26z" />
    <glyph glyph-name="fourinferior" unicode="&#x2084;" horiz-adv-x="347" 
d="M21 38l162 253h68v-254h75l-11 -39h-64v-86h-47v86h-183v40zM204 244h-9l-127 -200v-7h136v207z" />
    <glyph glyph-name="fiveinferior" unicode="&#x2085;" horiz-adv-x="359" 
d="M74 101l5 190h214l-5 -39h-168l-6 -107l4 -2q75 25 132 -7t57 -100q0 -57 -44 -93.5t-111 -36.5q-48 0 -89 12l-5 37q48 -12 86 -12q55 0 86 25t31 71q0 57 -54 74q-54 18 -133 -12z" />
    <glyph glyph-name="sixinferior" unicode="&#x2086;" horiz-adv-x="376" 
d="M91 109l3 -2q44 38 96 38q58 0 94 -33t36 -83q0 -49 -35 -86q-34 -37 -90 -37q-68 0 -110 46q-42 45 -42 114q0 99 72 165t184 66l3 -33q-78 0 -139 -42q-60 -40 -72 -113zM87 70q-4 -56 26 -92.5t82 -36.5q37 0 58.5 24t21.5 60q0 37 -23.5 60t-67.5 23q-56 0 -97 -38z
" />
    <glyph glyph-name="seveninferior" unicode="&#x2087;" horiz-adv-x="363" 
d="M54 250l4 41h246v-39l-173 -347l-42 16l167 326v7l-52 -4h-150z" />
    <glyph glyph-name="eightinferior" unicode="&#x2088;" horiz-adv-x="375" 
d="M223 124q45 26 45 76q0 30 -21 46.5t-58 16.5q-32 0 -52 -16.5t-20 -46.5q0 -24 18 -41q26 -22 88 -35zM155 106q-60 -24 -60 -86q0 -38 26 -59t68 -21q43 0 68 20.5t25 59.5q0 29 -27 48q-11 9 -30 16q-23 10 -70 22zM126 120v5q-53 26 -53 75q0 42 35 69q34 27 82 27
q53 0 87 -27t34 -68q0 -60 -61 -86v-5q77 -26 77 -90q0 -49 -39 -81.5t-100 -32.5q-60 0 -100 33q-40 31 -40 80q0 69 78 101z" />
    <glyph glyph-name="nineinferior" unicode="&#x2089;" horiz-adv-x="366" 
d="M67 -95l-4 33q78 0 138 42q61 40 73 113l-4 2q-44 -38 -95 -38q-58 0 -94 33t-36 83q0 52 35.5 87.5t89.5 35.5q68 0 110 -46q42 -45 42 -114q0 -99 -72 -165q-70 -66 -183 -66zM278 132q4 56 -26 92.5t-82 36.5q-37 0 -58.5 -24t-21.5 -60q0 -37 23.5 -60t67.5 -23
q56 0 97 38z" />
    <glyph glyph-name="colonmonetary" unicode="&#x20a1;" horiz-adv-x="638" 
d="M426 670l51 132h44l-52 -136q39 -6 77 -18l59 154h44l-77 -201v-13l-5 1l-210 -546q27 -3 56 -3q82 0 159 31v-52q-78 -31 -171 -31q-26 0 -63 5l-47 -123h-44l50 130q-44 12 -73 28l-61 -158h-44l69 180q-126 93 -126 281q0 147 96 243q96 97 247 97q16 0 21 -1z
M210 106l196 512q-127 -1 -206 -79t-79 -207q0 -149 89 -226zM450 616l-206 -535q31 -19 72 -29l212 550q-37 11 -78 14z" />
    <glyph glyph-name="uni20A2" unicode="&#x20a2;" horiz-adv-x="634" 
d="M572 639v-51q-78 30 -164 30q-128 0 -208 -78q-79 -78 -79 -208q0 -121 58 -194.5t162 -91.5v239l-13 109l46 8l12 -82h4q54 90 127 90q36 0 62 -17l-15 -46l-43 7q-42 0 -76.5 -24.5t-49.5 -64.5v-225h18q82 0 159 31v-52q-78 -31 -171 -31q-154 0 -246 91
q-93 91 -93 252q0 147 96 243q96 97 247 97q86 0 167 -32z" />
    <glyph glyph-name="franc" unicode="&#x20a3;" horiz-adv-x="596" 
d="M92 0v661h354v-50h-306l8 -48v-210h186l42 8l12 -82h4q54 90 127 90q36 0 62 -17l-14 -46l-44 8q-43 0 -77 -24.5t-49 -66.5v-223h-55v244l-7 58h-187v-302h-56z" />
    <glyph glyph-name="uni20A4" unicode="&#x20a4;" horiz-adv-x="662" 
d="M200 505v156h57v-144l275 61v-40l-275 -61v-77l275 61v-40l-275 -61v-307q129 0 211 76t82 202h58q0 -143 -98 -238q-98 -93 -254 -93h-56v348l-127 -27v40l127 27v78l-127 -28v40z" />
    <glyph glyph-name="uni20A6" unicode="&#x20a6;" horiz-adv-x="721" 
d="M93 426v235h71l161 -235h247v235h56v-235h81v-44h-81v-103h81v-44h-81v-235h-78l-162 235h-239v-235h-56v235h-81v44h81v103h-81v44h81zM572 382h-216l71 -103h145v103zM287 382h-138v-103h209zM572 235h-115l92 -134q13 -17 18 -35h5v169zM154 587h-5v-161h108l-86 126
q-12 16 -17 35z" />
    <glyph glyph-name="peseta" unicode="&#x20a7;" horiz-adv-x="1289" 
d="M1220 483l3 -49q-67 37 -147 37q-56 0 -90 -21t-34 -61q0 -70 101 -101q91 -28 120 -46q65 -39 65 -111q0 -66 -50.5 -104.5t-137.5 -38.5q-84 0 -160 27l-4 50q71 -31 158 -31q142 0 142 95q0 68 -101 99q-92 28 -123 49q-62 39 -62 110q0 63 51 95q51 33 123 33
q73 0 146 -32zM634 498l12 132l34 12h14l-6 -143h186l-14 -47l-172 7v-298q0 -71 20.5 -98.5t77.5 -27.5q51 0 90 19l-3 -45q-51 -21 -102 -21q-78 0 -108.5 40.5t-30.5 125.5l2 296l-90 6v33zM92 0v661h205q105 0 165.5 -51t60.5 -143q0 -89 -63 -145q-62 -55 -162 -55
h-150v-267h-56zM296 611h-148v-298h148q76 0 122 40.5t46 113.5q0 69 -44 106.5t-124 37.5z" />
    <glyph glyph-name="uni20A8" unicode="&#x20a8;" horiz-adv-x="610" 
d="M92 611v50h203q100 0 159.5 -43t65.5 -121h85v-43h-86q-9 -75 -63.5 -118t-137.5 -43h-123v-7l46 -35l177 -176l65 -75h-67l-323 319v15h208q69 0 111 30.5t49 89.5h-369v43h369q-11 114 -164 114h-205z" />
    <glyph glyph-name="uni20A9" unicode="&#x20a9;" horiz-adv-x="939" 
d="M100 426l-79 235h62l77 -235h214l66 234h62l65 -234h214l78 235h59l-80 -235h89v-44h-104l-35 -103h139v-44h-154l-79 -235h-60l-67 235h-196l-67 -235h-60l-79 235h-153v44h138l-35 103h-103v44h88zM361 382h-187l34 -103h124zM766 382h-186l29 -103h123zM526 382h-114
l-29 -103h172zM320 235h-97l43 -132q7 -21 7 -35h5q0 14 5 36zM718 235h-97l37 -131q6 -24 6 -36h4q0 16 6 35zM472 588h-5q0 -16 -6 -36l-36 -126h88l-35 126q-6 20 -6 36z" />
    <glyph glyph-name="uni20AB" unicode="&#x20ab;" horiz-adv-x="600" 
d="M160 640v41h282v54l54 12v-66h66v-41h-66v-456l13 -103l-44 -10l-15 81h-5q-58 -82 -167 -82q-100 0 -162 71q-61 70 -61 188q0 117 70 187q71 71 181 71q70 0 132 -24h6q-2 38 -2 68v9h-282zM442 209v308q-54 25 -135 25q-85 0 -140 -52q-56 -53 -56 -161
q0 -101 48 -156.5t129 -55.5q110 0 154 92zM61 -3v40h448v-40h-448z" />
    <glyph glyph-name="Euro" unicode="&#x20ac;" horiz-adv-x="653" 
d="M23 385l5 44h103q29 110 111 176q84 66 201 66q79 0 155 -32v-51q-74 30 -152 30q-95 0 -162.5 -50.5t-92.5 -138.5h349l-6 -44h-352q-3 -25 -3 -53q0 -7 2 -47h345l-6 -44h-332q21 -98 91 -149.5t172 -51.5q75 0 147 31v-52q-74 -31 -159 -31q-123 0 -205.5 66.5
t-105.5 186.5h-106l5 44h95q-2 20 -2 46q0 27 3 54h-100z" />
    <glyph glyph-name="uni20AD" unicode="&#x20ad;" horiz-adv-x="553" 
d="M96 361v300h56v-300h30l226 241l47 59h66l-50 -65l-223 -235h270v-43h-269l236 -242l61 -76h-66l-306 318h-22v-318h-56v318h-84v43h84z" />
    <glyph glyph-name="uni20AE" unicode="&#x20ae;" horiz-adv-x="540" 
d="M18 611v50h504v-50h-224v-163l157 60l15 -40l-172 -66v-109l208 80l16 -40l-224 -86v-247h-56v225l-157 -60l-16 40l173 66v110l-209 -80l-15 40l224 85v185h-224z" />
    <glyph glyph-name="uni20B1" unicode="&#x20b1;" horiz-adv-x="618" 
d="M94 539v122h205q81 0 136.5 -31.5t77.5 -90.5h93v-43h-83q2 -24 2 -29q0 -24 -4 -39h85v-43h-98q-24 -55 -79 -86.5t-129 -31.5h-150v-267h-56v385h-82v43h82v68h-82v43h82zM463 496h-313v-68h312q4 15 4 39q0 15 -3 29zM298 611h-148v-72h299q-37 72 -151 72zM446 385
h-296v-72h148q106 0 148 72z" />
    <glyph glyph-name="uni20B4" unicode="&#x20b4;" horiz-adv-x="584" 
d="M102 578v53q84 40 187 40q87 0 151 -44q64 -43 64 -122q0 -45 -20 -83h93v-43h-130q-33 -29 -125 -61l-101 -35h356v-43h-417q-25 -29 -25 -73q0 -58 47.5 -92.5t130.5 -34.5q93 0 195 41v-55q-94 -38 -199 -38q-97 0 -164 48t-67 134q0 37 14 70h-85v43h114q33 33 94 56
q27 11 59 21l54 19h-321v43h402q38 33 38 84q0 56 -44 85.5t-121 29.5q-95 0 -180 -43z" />
    <glyph glyph-name="afii61289" unicode="&#x2113;" horiz-adv-x="437" 
d="M105 262v421h33q117 -2 177 -62q61 -61 61 -156q0 -89 -58 -151t-157 -87v-65q0 -65 18.5 -95t62.5 -30q65 0 84 73h8l30 -23q-10 -39 -38 -64q-38 -35 -92 -35q-129 0 -129 169v59q-32 -5 -71 -5v45q38 0 71 6zM161 634v-360q161 45 161 190q0 39 -14 75q-14 37 -53 64
t-94 31z" />
    <glyph glyph-name="uni2120" unicode="&#x2120;" horiz-adv-x="765" 
d="M249 685v-32q-42 21 -88 21q-73 0 -73 -50q0 -22 18 -36.5t43 -22.5t50.5 -18t43.5 -30.5t18 -52.5q0 -41 -32 -64.5t-82 -23.5q-55 0 -97 17v33q47 -19 93 -19q81 0 81 55q0 25 -18 40.5t-43 24t-50.5 18t-43.5 29t-18 50.5q0 37 30.5 58t75.5 21q50 0 92 -18zM312 380
l43 319h42l110 -282h4l109 282h41l45 -319h-41l-29 233q-2 14 -2 34h-4q-3 -13 -11 -35l-93 -232h-37l-95 232q-8 22 -11 35h-4q0 -4 -2 -34l-28 -233h-37z" />
    <glyph glyph-name="trademark" unicode="&#x2122;" horiz-adv-x="755" 
d="M302 380l43 319h42l110 -282h4l109 282h41l45 -319h-41l-29 233q-2 14 -2 34h-4q-3 -13 -11 -35l-93 -232h-37l-95 232q-8 22 -11 35h-4q0 -4 -2 -34l-29 -233h-36zM24 668v31h246v-31h-102v-288h-41v288h-103z" />
    <glyph glyph-name="Omega" unicode="&#x2126;" horiz-adv-x="786" 
d="M55 0v51h97l94 -7v12q-74 33 -125 115q-48 81 -48 173q0 152 90 245q91 94 235 94q142 0 227 -93q87 -93 87 -246q0 -92 -49 -172q-48 -80 -123 -116v-12l94 7h96v-51h-263v50q79 34 132 114q54 80 54 178q0 129 -71 209q-70 81 -184 81q-117 0 -192 -81
q-74 -80 -74 -209q0 -98 53 -178q54 -79 134 -114v-50h-264z" />
    <glyph glyph-name="estimated" unicode="&#x212e;" horiz-adv-x="815" 
d="M755 322h-600v-181q45 -58 111.5 -91t142.5 -33q81 0 151 38t113 105l25 -16q-48 -72 -124.5 -113.5t-164.5 -41.5q-143 0 -246 101q-102 102 -102 246t102 246t246 102q145 0 245 -102q102 -100 102 -245q0 -10 -1 -15zM155 531v-181h507v182q-45 58 -111.5 91
t-141.5 33q-76 0 -142.5 -33t-111.5 -92z" />
    <glyph glyph-name="onethird" unicode="&#x2153;" horiz-adv-x="837" 
d="M196 0l381 661h46l-381 -661h-46zM95 573l-7 28l162 60v-378h-48v306zM535 318l5 40q47 26 105 26q54 0 88 -24t34 -63q0 -69 -71 -90v-5q38 -6 60 -29t22 -58q0 -54 -43 -87.5t-112 -33.5q-48 0 -93 14l-5 39q42 -15 94 -15q53 0 83 21.5t30 58.5q0 72 -142 72v34
q132 0 132 73q0 25 -21.5 39t-60.5 14q-55 0 -105 -26z" />
    <glyph glyph-name="twothirds" unicode="&#x2154;" horiz-adv-x="880" 
d="M237 0l381 661h47l-381 -661h-47zM578 318l5 40q47 26 105 26q54 0 88 -24t34 -63q0 -69 -71 -90v-5q38 -6 60 -29t22 -58q0 -54 -43 -87.5t-112 -33.5q-48 0 -93 14l-5 39q42 -15 94 -15q53 0 83 21.5t30 58.5q0 72 -142 72v34q132 0 132 73q0 25 -21.5 39t-60.5 14
q-55 0 -105 -26zM67 595l4 41q50 31 110 31q53 0 85.5 -30t32.5 -76q0 -69 -66 -133l-57 -53q-33 -30 -47 -47v-5l71 5h129l-5 -45h-257v37q20 23 74 71q58 51 83.5 87.5t25.5 74.5q0 72 -84 72q-48 0 -99 -30z" />
    <glyph glyph-name="partialdiff" unicode="&#x2202;" horiz-adv-x="588" 
d="M439 262q-13 45 -54.5 75t-104.5 30q-76 0 -120 -51q-44 -52 -47 -127q-3 -79 32 -118t100 -39q75 0 129 74q54 73 65 156zM107 627l-6 43q32 37 78.5 57.5t91.5 20.5q119 0 180 -93q62 -92 62 -236q0 -76 -18 -151t-51.5 -138.5t-86.5 -102.5t-117 -39q-82 0 -131.5 54
t-47.5 143q1 101 69 166t151 65q58 0 102.5 -26t62.5 -67h7q10 41 10 102q0 51 -10.5 97t-32.5 87t-61.5 65t-92.5 24q-88 0 -159 -71z" />
    <glyph glyph-name="increment" unicode="&#x2206;" horiz-adv-x="693" 
d="M45 58l272 603h59l272 -603v-58h-603v58zM583 59l-238 541l-244 -541h482z" />
    <glyph glyph-name="product" unicode="&#x220f;" horiz-adv-x="753" 
d="M38 648v51h677v-51h-72v-648h-56v648h-421v-648h-56v648h-72z" />
    <glyph glyph-name="summation" unicode="&#x2211;" horiz-adv-x="592" 
d="M28 645v54h554v-54h-475v-9l228 -304v-19l-229 -303v-8h476v-54h-554v54l236 317v9z" />
    <glyph glyph-name="minus" unicode="&#x2212;" horiz-adv-x="605" 
d="M81 226v50h443v-50h-443z" />
    <glyph glyph-name="radical" unicode="&#x221a;" horiz-adv-x="662" 
d="M62 413l-11 30l142 53l173 -402q8 -18 10 -35h6q2 16 7 35l180 680h44l-205 -774h-62l-195 446z" />
    <glyph glyph-name="infinity" unicode="&#x221e;" horiz-adv-x="768" 
d="M384 298q29 42 75.5 69t89.5 27q36 0 71 -11q36 -12 61.5 -46.5t25.5 -83.5q0 -41 -15 -71t-39.5 -45t-50.5 -22t-53 -7q-45 0 -90.5 27t-74.5 71q-30 -44 -76 -71t-89 -27q-35 0 -71 11q-36 13 -61.5 48t-25.5 86q0 52 27 85q45 56 131 56q42 0 88.5 -27t76.5 -69z
M360 253q-18 42 -56 68.5t-84 26.5q-51 0 -82 -24t-31 -71q0 -49 31 -74t82 -25q46 0 84 27.5t56 71.5zM408 253q18 -44 56.5 -71.5t83.5 -27.5q51 0 82 25t31 74q0 47 -31 71t-82 24q-45 0 -83.5 -26.5t-56.5 -68.5z" />
    <glyph glyph-name="integral" unicode="&#x222b;" horiz-adv-x="317" 
d="M325 680v-42q-32 7 -65 7q-52 0 -69.5 -27t-17.5 -97v-560q0 -91 -29 -128q-28 -36 -108 -36q-38 0 -69 9v43q36 -4 70 -4q51 0 66.5 26t15.5 96v560q0 93 28 128q29 36 105 36q40 0 73 -11z" />
    <glyph glyph-name="approxequal" unicode="&#x2248;" horiz-adv-x="606" 
d="M81 303v57q37 42 115 42q41 0 113 -28q75 -27 100 -27q76 0 116 49v-57q-42 -42 -116 -42q-37 0 -114 27t-100 27q-77 0 -114 -48zM81 116v57q37 42 115 42q41 0 113 -28q75 -27 100 -27q76 0 116 49v-57q-42 -42 -116 -42q-37 0 -114 27t-100 27q-77 0 -114 -48z" />
    <glyph glyph-name="notequal" unicode="&#x2260;" horiz-adv-x="626" 
d="M91 405v49h267l121 207h49l-121 -207h128v-49h-156l-80 -137h236v-51h-266l-126 -217h-49l126 217h-129v51h159l80 137h-239z" />
    <glyph glyph-name="lessequal" unicode="&#x2264;" horiz-adv-x="580" 
d="M82 0v51h415v-51h-415zM82 327v47l415 215v-55l-356 -184l356 -183v-55z" />
    <glyph glyph-name="greaterequal" unicode="&#x2265;" horiz-adv-x="580" 
d="M82 0v51h415v-51h-415zM82 534v55l415 -215v-47l-415 -215v55l357 183z" />
    <glyph glyph-name="lozenge" unicode="&#x25ca;" horiz-adv-x="604" 
d="M86 330l191 331h49l192 -331l-192 -330h-49zM464 330l-162 278l-162 -278l162 -277z" />
    <glyph glyph-name="circle" unicode="&#x25cb;" horiz-adv-x="676" 
d="M338 616q120 0 204 -85q84 -84 84 -203q0 -118 -84 -204q-84 -84 -204 -84q-118 0 -204 84q-84 86 -84 204q0 119 84 203q85 85 204 85z" />
    <glyph glyph-name="heart" unicode="&#x2665;" horiz-adv-x="840" 
d="M416 485h8q1 74 55 128q55 53 128 53t128 -55q55 -54 55 -129q0 -50 -28 -96q-30 -57 -93 -126q-66 -72 -137 -142q-74 -74 -112 -124q-40 54 -118 129q-96 95 -152 159t-80 117q-20 38 -20 86q2 75 54 127q54 54 129 54t127 -54q54 -53 56 -127z" />
    <glyph glyph-name="diamond" unicode="&#x2666;" horiz-adv-x="679" 
d="M50 328l290 290l289 -290l-289 -290z" />
    <glyph glyph-name="A.smcp" unicode="&#xe000;" horiz-adv-x="634" 
d="M66 0l217 535h68l217 -535h-62l-63 162h-253l-64 -162h-60zM320 491h-7q0 -15 -7 -30l-99 -253h219l-100 253q-6 13 -6 30z" />
    <glyph glyph-name="AE.smcp" unicode="&#xe001;" horiz-adv-x="814" 
d="M66 0l288 535h368v-48h-247l5 -37v-154h242v-46h-242v-201h259v-49h-314v162h-212l-87 -162h-60zM369 453l-132 -245h188v288h-43q-2 -20 -13 -43z" />
    <glyph glyph-name="AEacute.smcp" unicode="&#xe002;" horiz-adv-x="814" 
d="M66 0l288 535h368v-48h-247l5 -37v-154h242v-46h-242v-201h259v-49h-314v162h-212l-87 -162h-60zM369 453l-132 -245h188v288h-43q-2 -20 -13 -43zM498 563l-24 27l127 123l37 -42z" />
    <glyph glyph-name="AEmacron" unicode="&#xe003;" horiz-adv-x="903" 
d="M31 0l374 661h426v-50h-305l8 -48v-201h297v-50h-297v-261h318v-51h-375v204h-268l-115 -204h-63zM408 558l-171 -305h240v358h-51q-2 -23 -18 -53zM458 746v47h320v-47h-320z" />
    <glyph glyph-name="AEmacron.smcp" unicode="&#xe004;" horiz-adv-x="814" 
d="M393 627v46h284v-46h-284zM66 0l288 535h368v-48h-247l5 -37v-154h242v-46h-242v-201h259v-49h-314v162h-212l-87 -162h-60zM369 453l-132 -245h188v288h-43q-2 -20 -13 -43z" />
    <glyph glyph-name="Aacute.smcp" unicode="&#xe005;" horiz-adv-x="634" 
d="M282 563l-23 27l126 123l38 -42zM66 0l217 535h68l217 -535h-62l-63 162h-253l-64 -162h-60zM320 491h-7q0 -15 -7 -30l-99 -253h219l-100 253q-6 13 -6 30z" />
    <glyph glyph-name="Abreve.smcp" unicode="&#xe006;" horiz-adv-x="634" 
d="M170 709l38 11q21 -107 108 -107q89 0 109 107l39 -11q-11 -67 -50.5 -106t-97.5 -39t-97 39.5t-49 105.5zM66 0l217 535h68l217 -535h-62l-63 162h-253l-64 -162h-60zM320 491h-7q0 -15 -7 -30l-99 -253h219l-100 253q-6 13 -6 30z" />
    <glyph glyph-name="Acircumflex.smcp" unicode="&#xe007;" horiz-adv-x="634" 
d="M66 0l217 535h68l217 -535h-62l-63 162h-253l-64 -162h-60zM320 491h-7q0 -15 -7 -30l-99 -253h219l-100 253q-6 13 -6 30zM187 586l106 126h46l106 -126l-33 -12l-79 71l-14 18h-6l-14 -18l-78 -71z" />
    <glyph glyph-name="Adieresis.smcp" unicode="&#xe008;" horiz-adv-x="634" 
d="M66 0l217 535h68l217 -535h-62l-63 162h-253l-64 -162h-60zM320 491h-7q0 -15 -7 -30l-99 -253h219l-100 253q-6 13 -6 30zM198 665q16 20 39.5 11.5t29.5 -30t-11 -39.5q-12 -12 -29 -12t-29 12t-12 29t12 29zM376 665q16 20 39.5 11.5t29.5 -30t-11 -39.5
q-12 -12 -29 -12t-29 12t-12 29t12 29z" />
    <glyph glyph-name="Agrave.smcp" unicode="&#xe009;" horiz-adv-x="634" 
d="M66 0l217 535h68l217 -535h-62l-63 162h-253l-64 -162h-60zM320 491h-7q0 -15 -7 -30l-99 -253h219l-100 253q-6 13 -6 30zM211 671l38 42l126 -123l-23 -27z" />
    <glyph glyph-name="Amacron.smcp" unicode="&#xe00a;" horiz-adv-x="634" 
d="M175 627v44h283v-44h-283zM66 0l217 535h68l217 -535h-62l-63 162h-253l-64 -162h-60zM320 491h-7q0 -15 -7 -30l-99 -253h219l-100 253q-6 13 -6 30z" />
    <glyph glyph-name="Aogonek.smcp" unicode="&#xe00b;" horiz-adv-x="634" 
d="M66 0l217 535h68l217 -535q-44 -3 -84 -27q-39 -25 -39 -67q0 -25 20.5 -37t48 -10t54.5 13l-3 -39q-54 -24 -112 -6q-57 17 -57 72q0 38 28.5 69t75.5 46l-57 148h-253l-64 -162h-60zM320 491h-7q0 -15 -7 -30l-99 -253h219l-100 253q-6 13 -6 30z" />
    <glyph glyph-name="Aring.smcp" unicode="&#xe00c;" horiz-adv-x="634" 
d="M66 0l217 535h2q-30 10 -49.5 35.5t-19.5 58.5q0 42 29.5 71.5t71.5 29.5q41 0 70 -29t29 -72q0 -33 -19 -58.5t-49 -35.5h3l217 -535h-62l-63 162h-253l-64 -162h-60zM320 491h-7q0 -15 -7 -30l-99 -253h219l-100 253q-6 13 -6 30zM316 692q-26 0 -44 -18.5t-18 -44.5
q0 -25 18 -43t44 -18q27 0 44.5 17.5t17.5 43.5q0 27 -17.5 45t-44.5 18z" />
    <glyph glyph-name="Aringacute.smcp" unicode="&#xe00d;" horiz-adv-x="634" 
d="M271 718l121 119l37 -42l-88 -69q33 -8 54 -35t21 -63q0 -32 -17.5 -57t-47.5 -36l217 -535h-62l-63 162h-253l-64 -162h-60l217 535q-30 10 -48.5 35.5t-18.5 57.5q0 62 55 90zM320 491h-7q0 -15 -7 -30l-99 -253h219l-100 253q-6 13 -6 30zM316 691q-26 0 -44 -18.5
t-18 -44.5q0 -25 18 -43t44 -18q27 0 44.5 17.5t17.5 43.5q0 27 -17.5 45t-44.5 18z" />
    <glyph glyph-name="Atilde.smcp" unicode="&#xe00e;" horiz-adv-x="634" 
d="M170 600h-8l-2 40q35 50 95 50q22 0 73 -23q48 -22 67 -22q45 0 68 45h8l2 -40q-35 -50 -93 -50q-24 0 -72 22q-51 23 -67 23q-49 0 -71 -45zM66 0l217 535h68l217 -535h-62l-63 162h-253l-64 -162h-60zM320 491h-7q0 -15 -7 -30l-99 -253h219l-100 253q-6 13 -6 30z" />
    <glyph glyph-name="B.smcp" unicode="&#xe00f;" horiz-adv-x="566" 
d="M276 489h-93v-191h97q63 0 101 26t38 76q0 89 -143 89zM280 256h-97v-209h128q55 0 89.5 28t34.5 75t-42.5 76.5t-112.5 29.5zM129 0v535h150q197 0 197 -132q0 -47 -27 -78.5t-75 -41.5v-8q53 -8 86 -42.5t33 -83.5q0 -62 -47 -106q-46 -43 -129 -43h-188z" />
    <glyph glyph-name="Bdotaccent" unicode="&#xe010;" horiz-adv-x="581" 
d="M259 613h-111v-248h115q188 0 188 130q0 63 -48.5 90.5t-143.5 27.5zM263 320h-115v-270h154q78 0 122 35.5t44 99.5q0 63 -54.5 99t-150.5 36zM92 0v661h175q242 0 242 -163q0 -57 -34 -96.5t-92 -52.5v-8q66 -11 106.5 -54t40.5 -103q0 -76 -57 -130t-158 -54h-223z
M244 740q-12 13 -12 31t12 30q13 13 31 13t30 -13q13 -12 13 -30t-13 -31q-12 -12 -30 -12t-31 12z" />
    <glyph glyph-name="Bdotaccent.smcp" unicode="&#xe011;" horiz-adv-x="566" 
d="M276 489h-93v-191h97q63 0 101 26t38 76q0 89 -143 89zM280 256h-97v-209h128q55 0 89.5 28t34.5 75t-42.5 76.5t-112.5 29.5zM129 0v535h150q197 0 197 -132q0 -47 -27 -78.5t-75 -41.5v-8q53 -8 86 -42.5t33 -83.5q0 -62 -47 -106q-46 -43 -129 -43h-188zM259 614
q-12 13 -12 31t12 30q13 13 31 13t30 -13q13 -12 13 -30t-13 -31q-12 -12 -30 -12t-31 12z" />
    <glyph glyph-name="C.smcp" unicode="&#xe012;" horiz-adv-x="579" 
d="M506 515v-49q-63 24 -131 24q-106 0 -170 -60.5t-64 -162.5q0 -110 64 -169.5t171 -59.5q70 0 130 25v-50q-63 -25 -140 -25q-131 0 -207 73t-76 205q0 121 79 197q80 78 206 78q68 0 138 -26z" />
    <glyph glyph-name="Cacute.smcp" unicode="&#xe013;" horiz-adv-x="579" 
d="M312 563l-23 27l126 123l38 -42zM506 515v-49q-63 24 -131 24q-106 0 -170 -60.5t-64 -162.5q0 -110 64 -169.5t171 -59.5q70 0 130 25v-50q-63 -25 -140 -25q-131 0 -207 73t-76 205q0 121 79 197q80 78 206 78q68 0 138 -26z" />
    <glyph glyph-name="Ccaron.smcp" unicode="&#xe014;" horiz-adv-x="579" 
d="M506 515v-49q-63 24 -131 24q-106 0 -170 -60.5t-64 -162.5q0 -110 64 -169.5t171 -59.5q70 0 130 25v-50q-63 -25 -140 -25q-131 0 -207 73t-76 205q0 121 79 197q80 78 206 78q68 0 138 -26zM327 574l-106 126l34 12l78 -71l14 -18h6l14 18l79 71l33 -12l-106 -126h-46
z" />
    <glyph glyph-name="Ccedilla.smcp" unicode="&#xe015;" horiz-adv-x="579" 
d="M506 515v-49q-63 24 -131 24q-106 0 -170 -60.5t-64 -162.5q0 -110 64 -169.5t171 -59.5q70 0 130 25v-50q-63 -25 -140 -25q-14 0 -18 1l1 -30q42 -3 66.5 -26t24.5 -55q0 -98 -172 -98l-8 33q133 4 133 61q0 25 -25 39.5t-69 15.5l10 63q-106 15 -166 86.5t-60 187.5
q0 121 79 197q80 78 206 78q68 0 138 -26z" />
    <glyph glyph-name="Ccircumflex.smcp" unicode="&#xe016;" horiz-adv-x="579" 
d="M506 515v-49q-63 24 -131 24q-106 0 -170 -60.5t-64 -162.5q0 -110 64 -169.5t171 -59.5q70 0 130 25v-50q-63 -25 -140 -25q-131 0 -207 73t-76 205q0 121 79 197q80 78 206 78q68 0 138 -26zM221 586l106 126h46l106 -126l-33 -12l-79 71l-14 18h-6l-14 -18l-78 -71z
" />
    <glyph glyph-name="Cdotaccent.smcp" unicode="&#xe017;" horiz-adv-x="579" 
d="M506 515v-49q-63 24 -131 24q-106 0 -170 -60.5t-64 -162.5q0 -110 64 -169.5t171 -59.5q70 0 130 25v-50q-63 -25 -140 -25q-131 0 -207 73t-76 205q0 121 79 197q80 78 206 78q68 0 138 -26zM326 614q-12 13 -12 31t12 30q13 13 31 13t30 -13q13 -12 13 -30t-13 -31
q-12 -12 -30 -12t-31 12z" />
    <glyph glyph-name="D.smcp" unicode="&#xe018;" horiz-adv-x="681" 
d="M129 0v535h198q121 0 196 -75t75 -189q0 -111 -75 -191t-192 -80h-202zM324 487h-140v-438h143q98 0 155 65q58 64 58 157t-58 154q-57 62 -158 62z" />
    <glyph glyph-name="Dcaron.smcp" unicode="&#xe019;" horiz-adv-x="681" 
d="M293 574l-106 126l34 12l78 -71l14 -18h6l14 18l79 71l33 -12l-106 -126h-46zM129 0v535h198q121 0 196 -75t75 -189q0 -111 -75 -191t-192 -80h-202zM324 487h-140v-438h143q98 0 155 65q58 64 58 157t-58 154q-57 62 -158 62z" />
    <glyph glyph-name="Dcroat.smcp" unicode="&#xe01a;" horiz-adv-x="735" 
d="M183 290v245h198q121 0 196 -75t75 -189q0 -111 -75 -191t-192 -80h-202v249h-123v41h123zM378 487h-140v-197h194v-41h-194v-200h143q98 0 155 65q58 64 58 157t-58 154q-57 62 -158 62z" />
    <glyph glyph-name="Ddotaccent" unicode="&#xe01b;" horiz-adv-x="711" 
d="M92 0v661h234q148 0 238 -93q91 -91 91 -233q0 -138 -91 -236q-90 -99 -233 -99h-239zM320 611h-172v-560h177q126 0 199 82t73 202q0 119 -75 197q-73 79 -202 79zM284 740q-12 13 -12 31t12 30q13 13 31 13t30 -13q13 -12 13 -30t-13 -31q-12 -12 -30 -12t-31 12z" />
    <glyph glyph-name="Ddotaccent.smcp" unicode="&#xe01c;" horiz-adv-x="681" 
d="M129 0v535h198q121 0 196 -75t75 -189q0 -111 -75 -191t-192 -80h-202zM324 487h-140v-438h143q98 0 155 65q58 64 58 157t-58 154q-57 62 -158 62zM288 614q-12 13 -12 31t12 30q13 13 31 13t30 -13q13 -12 13 -30t-13 -31q-12 -12 -30 -12t-31 12z" />
    <glyph glyph-name="Dotlessi" unicode="&#xe01d;" horiz-adv-x="240" 
d="M92 0v661h56v-661h-56z" />
    <glyph glyph-name="Dotlessi.alt" unicode="&#xe01e;" horiz-adv-x="336" 
d="M32 618v43h272v-43h-108v-573h108v-45h-272v45h108v573h-108z" />
    <glyph glyph-name="Dotlessi.smcp" unicode="&#xe01f;" horiz-adv-x="312" 
d="M129 0v535h55v-535h-55z" />
    <glyph glyph-name="E.smcp" unicode="&#xe020;" 
d="M129 0v535h297v-48h-248l6 -37v-154h242v-46h-242v-201h259v-49h-314z" />
    <glyph glyph-name="Eacute.smcp" unicode="&#xe021;" 
d="M242 563l-23 27l126 123l38 -42zM129 0v535h297v-48h-248l6 -37v-154h242v-46h-242v-201h259v-49h-314z" />
    <glyph glyph-name="Ebreve.smcp" unicode="&#xe022;" 
d="M130 709l38 11q21 -107 109 -107t108 107l39 -11q-10 -67 -49 -106t-98 -39q-57 0 -96.5 39t-50.5 106zM129 0v535h297v-48h-248l6 -37v-154h242v-46h-242v-201h259v-49h-314z" />
    <glyph glyph-name="Ecaron.smcp" unicode="&#xe023;" 
d="M254 574l-106 126l34 12l78 -71l14 -18h6l14 18l79 71l33 -12l-106 -126h-46zM129 0v535h297v-48h-248l6 -37v-154h242v-46h-242v-201h259v-49h-314z" />
    <glyph glyph-name="Ecircumflex.smcp" unicode="&#xe024;" 
d="M148 586l106 126h46l106 -126l-33 -12l-79 71l-14 18h-6l-14 -18l-78 -71zM129 0v535h297v-48h-248l6 -37v-154h242v-46h-242v-201h259v-49h-314z" />
    <glyph glyph-name="Edieresis.smcp" unicode="&#xe025;" 
d="M129 0v535h297v-48h-248l6 -37v-154h242v-46h-242v-201h259v-49h-314zM159 665q16 20 39.5 11.5t29.5 -30t-11 -39.5q-12 -12 -29 -12t-29 12t-12 29t12 29zM337 665q16 20 39.5 11.5t29.5 -30t-11 -39.5q-12 -12 -29 -12t-29 12t-12 29t12 29z" />
    <glyph glyph-name="Edotaccent.smcp" unicode="&#xe026;" 
d="M129 0v535h297v-48h-248l6 -37v-154h242v-46h-242v-201h259v-49h-314zM246 614q-12 13 -12 31t12 30q13 13 31 13t30 -13q13 -12 13 -30t-13 -31q-12 -12 -30 -12t-31 12z" />
    <glyph glyph-name="Egrave.smcp" unicode="&#xe027;" 
d="M129 0v535h297v-48h-248l6 -37v-154h242v-46h-242v-201h259v-49h-314zM198 671l38 42l126 -123l-23 -27z" />
    <glyph glyph-name="Emacron.smcp" unicode="&#xe028;" 
d="M135 627v44h285v-44h-285zM129 0v535h297v-48h-248l6 -37v-154h242v-46h-242v-201h259v-49h-314z" />
    <glyph glyph-name="Eng.smcp" unicode="&#xe029;" horiz-adv-x="713" 
d="M129 0v535h71l309 -426q12 -15 15 -29h5v455h55v-566q0 -60 -13 -100q-25 -85 -155 -89l-9 44q66 0 93 27.5t28 98.5v49l-326 443q-12 18 -13 30h-5v-472h-55z" />
    <glyph glyph-name="Eogonek.smcp" unicode="&#xe02a;" 
d="M129 0v535h297v-48h-248l6 -37v-154h242v-46h-242v-201h259v-49q-42 -3 -81 -27q-38 -26 -38 -67q0 -25 20 -37t46.5 -10t52.5 13l-3 -39q-52 -24 -109 -6q-56 17 -56 72q0 63 68 101h-214z" />
    <glyph glyph-name="Eth.smcp" unicode="&#xe02b;" horiz-adv-x="735" 
d="M183 290v245h198q121 0 196 -75t75 -189q0 -111 -75 -191t-192 -80h-202v249h-123v41h123zM378 487h-140v-197h194v-41h-194v-200h143q98 0 155 65q58 64 58 157t-58 154q-57 62 -158 62z" />
    <glyph glyph-name="Euro.smcp" unicode="&#xe02c;" horiz-adv-x="625" 
d="M53 306l4 39h102q24 89 95 142t169 54q63 0 129 -26v-48q-57 23 -126 23q-76 -1 -131 -39.5t-77 -105.5h281l-5 -39h-285q-2 -18 -2 -39q0 -23 3 -43h276l-4 -40h-264q21 -71 77.5 -108.5t136.5 -37.5q66 0 120 25v-50q-57 -25 -130 -25q-103 0 -172 51.5t-91 144.5h-106
l4 40h95q-2 34 -2 42q0 2 2 40h-99z" />
    <glyph glyph-name="F.smcp" unicode="&#xe02d;" horiz-adv-x="500" 
d="M129 0v535h297v-48h-248l6 -37v-161h225v-49h-225v-240h-55z" />
    <glyph glyph-name="Fdotaccent" unicode="&#xe02e;" horiz-adv-x="496" 
d="M92 0v661h354v-50h-306l8 -48v-210h277v-51h-277v-302h-56zM242 740q-12 13 -12 31t12 30q13 13 31 13t30 -13q13 -12 13 -30t-13 -31q-12 -12 -30 -12t-31 12z" />
    <glyph glyph-name="Fdotaccent.smcp" unicode="&#xe02f;" horiz-adv-x="500" 
d="M129 0v535h297v-48h-248l6 -37v-161h225v-49h-225v-240h-55zM252 614q-12 13 -12 31t12 30q13 13 31 13t30 -13q13 -12 13 -30t-13 -31q-12 -12 -30 -12t-31 12z" />
    <glyph glyph-name="G.alt" unicode="&#xe030;" horiz-adv-x="684" 
d="M570 640v-52q-75 30 -162 30q-128 0 -208 -78q-79 -76 -79 -208q0 -144 80 -218q82 -74 211 -74q84 0 151 26v205h-163l6 49h212v-282q-97 -50 -216 -50q-155 0 -247 91q-93 91 -93 252q0 148 96 244t247 96q88 0 165 -31z" />
    <glyph glyph-name="G.smcp" unicode="&#xe031;" horiz-adv-x="624" 
d="M504 516v-50q-62 24 -134 24q-102 0 -166 -61q-63 -61 -63 -162q0 -112 65 -171q65 -58 170 -58q64 0 113 20v173l55 11v-214q-81 -40 -177 -40q-130 0 -207 74t-77 204q0 122 78 198q79 77 206 77q68 0 137 -25z" />
    <glyph glyph-name="G.smcp.alt" unicode="&#xe032;" horiz-adv-x="624" 
d="M504 516v-50q-62 24 -134 24q-102 0 -166 -61q-63 -61 -63 -162q0 -112 65 -171q65 -58 170 -58q64 0 113 20v167h-152l6 47h201v-244q-81 -40 -177 -40q-130 0 -207 74t-77 204q0 122 78 198q79 77 206 77q68 0 137 -25z" />
    <glyph glyph-name="Gbreve.alt" unicode="&#xe033;" horiz-adv-x="684" 
d="M218 843l38 12q19 -106 113 -106q93 0 115 106l37 -12q-10 -65 -52 -104t-100 -39q-57 0 -98.5 39t-52.5 104zM570 640v-52q-75 30 -162 30q-128 0 -208 -78q-79 -76 -79 -208q0 -144 80 -218q82 -74 211 -74q84 0 151 26v205h-163l6 49h212v-282q-97 -50 -216 -50
q-155 0 -247 91q-93 91 -93 252q0 148 96 244t247 96q88 0 165 -31z" />
    <glyph glyph-name="Gbreve.smcp" unicode="&#xe034;" horiz-adv-x="624" 
d="M204 709l38 11q21 -107 109 -107t109 107l38 -11q-10 -67 -49 -106t-98 -39q-57 0 -96.5 39t-50.5 106zM504 516v-50q-62 24 -134 24q-102 0 -166 -61q-63 -61 -63 -162q0 -112 65 -171q65 -58 170 -58q64 0 113 20v173l55 11v-214q-81 -40 -177 -40q-130 0 -207 74
t-77 204q0 122 78 198q79 77 206 77q68 0 137 -25z" />
    <glyph glyph-name="Gbreve.smcp.alt" unicode="&#xe035;" horiz-adv-x="624" 
d="M204 709l38 11q21 -107 109 -107t109 107l38 -11q-10 -67 -49 -106t-98 -39q-57 0 -96.5 39t-50.5 106zM504 516v-50q-62 24 -134 24q-102 0 -166 -61q-63 -61 -63 -162q0 -112 65 -171q65 -58 170 -58q64 0 113 20v167h-152l6 47h201v-244q-81 -40 -177 -40
q-130 0 -207 74t-77 204q0 122 78 198q79 77 206 77q68 0 137 -25z" />
    <glyph glyph-name="Gcircumflex.alt" unicode="&#xe036;" horiz-adv-x="684" 
d="M570 640v-52q-75 30 -162 30q-128 0 -208 -78q-79 -76 -79 -208q0 -144 80 -218q82 -74 211 -74q84 0 151 26v205h-163l6 49h212v-282q-97 -50 -216 -50q-155 0 -247 91q-93 91 -93 252q0 148 96 244t247 96q88 0 165 -31zM369 700l-106 126l34 13l78 -72l14 -18h6l14 18
l78 72l34 -13l-106 -126h-46z" />
    <glyph glyph-name="Gcircumflex.smcp" unicode="&#xe037;" horiz-adv-x="624" 
d="M504 516v-50q-62 24 -134 24q-102 0 -166 -61q-63 -61 -63 -162q0 -112 65 -171q65 -58 170 -58q64 0 113 20v173l55 11v-214q-81 -40 -177 -40q-130 0 -207 74t-77 204q0 122 78 198q79 77 206 77q68 0 137 -25zM222 586l106 126h46l106 -126l-33 -12l-79 71l-14 18h-6
l-14 -18l-78 -71z" />
    <glyph glyph-name="Gcircumflex.smcp.alt" unicode="&#xe038;" horiz-adv-x="624" 
d="M504 516v-50q-62 24 -134 24q-102 0 -166 -61q-63 -61 -63 -162q0 -112 65 -171q65 -58 170 -58q64 0 113 20v167h-152l6 47h201v-244q-81 -40 -177 -40q-130 0 -207 74t-77 204q0 122 78 198q79 77 206 77q68 0 137 -25zM222 586l106 126h46l106 -126l-33 -12l-79 71
l-14 18h-6l-14 -18l-78 -71z" />
    <glyph glyph-name="Gcommaaccent.alt" unicode="&#xe039;" horiz-adv-x="684" 
d="M359 -36h54q20 -95 -45 -182l-33 13q49 73 24 169zM570 640v-52q-75 30 -162 30q-128 0 -208 -78q-79 -76 -79 -208q0 -144 80 -218q82 -74 211 -74q84 0 151 26v205h-163l6 49h212v-282q-97 -50 -216 -50q-155 0 -247 91q-93 91 -93 252q0 148 96 244t247 96
q88 0 165 -31z" />
    <glyph glyph-name="Gcommaaccent.smcp" unicode="&#xe03a;" horiz-adv-x="624" 
d="M323 -36h54q20 -95 -45 -182l-33 13q49 73 24 169zM504 516v-50q-62 24 -134 24q-102 0 -166 -61q-63 -61 -63 -162q0 -112 65 -171q65 -58 170 -58q64 0 113 20v173l55 11v-214q-81 -40 -177 -40q-130 0 -207 74t-77 204q0 122 78 198q79 77 206 77q68 0 137 -25z" />
    <glyph glyph-name="Gcommaaccent.smcp.alt" unicode="&#xe03b;" horiz-adv-x="624" 
d="M323 -36h54q20 -95 -45 -182l-33 13q49 73 24 169zM504 516v-50q-62 24 -134 24q-102 0 -166 -61q-63 -61 -63 -162q0 -112 65 -171q65 -58 170 -58q64 0 113 20v167h-152l6 47h201v-244q-81 -40 -177 -40q-130 0 -207 74t-77 204q0 122 78 198q79 77 206 77
q68 0 137 -25z" />
    <glyph glyph-name="Gdotaccent.alt" unicode="&#xe03c;" horiz-adv-x="684" 
d="M570 640v-52q-75 30 -162 30q-128 0 -208 -78q-79 -76 -79 -208q0 -144 80 -218q82 -74 211 -74q84 0 151 26v205h-163l6 49h212v-282q-97 -50 -216 -50q-155 0 -247 91q-93 91 -93 252q0 148 96 244t247 96q88 0 165 -31zM360 740q-12 13 -12 31t12 30q13 13 31 13
t30 -13q13 -12 13 -30t-13 -31q-12 -12 -30 -12t-31 12z" />
    <glyph glyph-name="Gdotaccent.smcp" unicode="&#xe03d;" horiz-adv-x="624" 
d="M504 516v-50q-62 24 -134 24q-102 0 -166 -61q-63 -61 -63 -162q0 -112 65 -171q65 -58 170 -58q64 0 113 20v173l55 11v-214q-81 -40 -177 -40q-130 0 -207 74t-77 204q0 122 78 198q79 77 206 77q68 0 137 -25zM324 614q-12 13 -12 31t12 30q13 13 31 13t30 -13
q13 -12 13 -30t-13 -31q-12 -12 -30 -12t-31 12z" />
    <glyph glyph-name="Gdotaccent.smcp.alt" unicode="&#xe03e;" horiz-adv-x="624" 
d="M504 516v-50q-62 24 -134 24q-102 0 -166 -61q-63 -61 -63 -162q0 -112 65 -171q65 -58 170 -58q64 0 113 20v167h-152l6 47h201v-244q-81 -40 -177 -40q-130 0 -207 74t-77 204q0 122 78 198q79 77 206 77q68 0 137 -25zM324 614q-12 13 -12 31t12 30q13 13 31 13
t30 -13q13 -12 13 -30t-13 -31q-12 -12 -30 -12t-31 12z" />
    <glyph glyph-name="H.smcp" unicode="&#xe03f;" horiz-adv-x="676" 
d="M129 0v535h55v-236h308v236h55v-535h-55v250h-308v-250h-55z" />
    <glyph glyph-name="Hbar.smcp" unicode="&#xe040;" horiz-adv-x="676" 
d="M129 435v100h55v-100h308v100h55v-100h28v-40h-28v-395h-55v250h-308v-250h-55v395h-28v40h28zM492 395h-308v-96h308v96z" />
    <glyph glyph-name="Hcircumflex.smcp" unicode="&#xe041;" horiz-adv-x="676" 
d="M209 586l106 126h46l106 -126l-33 -12l-79 71l-14 18h-6l-14 -18l-78 -71zM129 0v535h55v-236h308v236h55v-535h-55v250h-308v-250h-55z" />
    <glyph glyph-name="I.alt" unicode="&#xe042;" horiz-adv-x="336" 
d="M32 618v43h272v-43h-108v-573h108v-45h-272v45h108v573h-108z" />
    <glyph glyph-name="I.smcp" unicode="&#xe043;" horiz-adv-x="313" 
d="M129 0v535h55v-535h-55z" />
    <glyph glyph-name="IJ.alt" unicode="&#xe044;" horiz-adv-x="480" 
d="M332 53v608h56v-601q0 -80 -16 -132q-10 -35 -31 -63q-44 -62 -145 -85l-11 44q49 17 80 38q67 43 67 191zM92 0v661h56v-661h-56z" />
    <glyph glyph-name="IJ.alt1" unicode="&#xe045;" horiz-adv-x="635" 
d="M32 618v43h272v-43h-108v-573h108v-45h-272v45h108v573h-108zM487 188v473h56v-474q0 -76 -29 -129q-38 -70 -163 -70l-10 46q79 0 112.5 34t33.5 120z" />
    <glyph glyph-name="IJ.alt2" unicode="&#xe046;" horiz-adv-x="576" 
d="M32 618v43h272v-43h-108v-573h108v-45h-272v45h108v573h-108zM428 53v608h56v-601q0 -80 -16 -132q-10 -35 -31 -63q-44 -62 -145 -85l-11 44q49 17 80 38q67 43 67 191z" />
    <glyph glyph-name="IJ.smcp" unicode="&#xe047;" horiz-adv-x="633" 
d="M449 158v377h55v-374q0 -52 -14 -90q-29 -83 -153 -83l-10 44q66 0 94 27.5t28 98.5zM129 0v535h55v-535h-55z" />
    <glyph glyph-name="IJ.smcp.alt" unicode="&#xe048;" horiz-adv-x="626" 
d="M442 53v482h55v-483q0 -76 -18 -129q-32 -106 -177 -143l-10 45q42 13 65.5 26.5t43.5 37.5q41 45 41 164zM129 0v535h55v-535h-55z" />
    <glyph glyph-name="Iacute.alt" unicode="&#xe049;" horiz-adv-x="336" 
d="M32 618v43h272v-43h-108v-573h108v-45h-272v45h108v573h-108zM134 696l-22 27l129 121l36 -44z" />
    <glyph glyph-name="Iacute.smcp" unicode="&#xe04a;" horiz-adv-x="313" 
d="M129 0v535h55v-535h-55zM125 563l-24 27l127 123l37 -42z" />
    <glyph glyph-name="Ibreve.alt" unicode="&#xe04b;" horiz-adv-x="336" 
d="M32 618v43h272v-43h-108v-573h108v-45h-272v45h108v573h-108zM16 843l38 12q19 -106 114 -106t114 106l38 -12q-11 -65 -53 -104t-99 -39t-99 39t-53 104z" />
    <glyph glyph-name="Ibreve.smcp" unicode="&#xe04c;" horiz-adv-x="313" 
d="M9 709l39 11q20 -107 108 -107q89 0 109 107l39 -11q-11 -66 -51 -105.5t-97 -39.5t-96.5 39t-50.5 106zM128 0v535h55v-535h-55z" />
    <glyph glyph-name="Icircumflex.alt" unicode="&#xe04d;" horiz-adv-x="336" 
d="M39 713l106 126h46l106 -126l-34 -13l-78 72l-14 18h-6l-14 -18l-78 -72zM32 618v43h272v-43h-108v-573h108v-45h-272v45h108v573h-108z" />
    <glyph glyph-name="Icircumflex.smcp" unicode="&#xe04e;" horiz-adv-x="313" 
d="M27 586l106 126h46l106 -126l-33 -12l-79 71l-14 18h-6l-14 -18l-78 -71zM129 0v535h55v-535h-55z" />
    <glyph glyph-name="Idieresis.alt" unicode="&#xe04f;" horiz-adv-x="336" 
d="M32 618v43h272v-43h-108v-573h108v-45h-272v45h108v573h-108zM227 740q-12 13 -12 30t12 29q13 13 30 13t29 -13q13 -12 13 -29t-13 -30q-12 -12 -29 -12t-30 12zM49 740q-12 13 -12 30t12 29q13 13 30 13t29 -13q13 -12 13 -29t-13 -30q-12 -12 -29 -12t-30 12z" />
    <glyph glyph-name="Idieresis.smcp" unicode="&#xe050;" horiz-adv-x="313" 
d="M38 665q16 20 39.5 11.5t29.5 -30t-11 -39.5q-12 -12 -29 -12t-29 12t-12 29t12 29zM216 665q16 20 39.5 11.5t29.5 -30t-11 -39.5q-12 -12 -29 -12t-29 12t-12 29t12 29zM129 0v535h55v-535h-55z" />
    <glyph glyph-name="Idotaccent.alt" unicode="&#xe051;" horiz-adv-x="336" 
d="M32 618v43h272v-43h-108v-573h108v-45h-272v45h108v573h-108zM137 740q-12 13 -12 31t12 30q13 13 31 13t30 -13q13 -12 13 -30t-13 -31q-12 -12 -30 -12t-31 12z" />
    <glyph glyph-name="Idotaccent.smcp" unicode="&#xe052;" horiz-adv-x="313" 
d="M126 614q-12 13 -12 31t12 30q13 13 31 13t30 -13q13 -12 13 -30t-13 -31q-12 -12 -30 -12t-31 12zM129 0v535h55v-535h-55z" />
    <glyph glyph-name="Igrave.alt" unicode="&#xe053;" horiz-adv-x="336" 
d="M32 618v43h272v-43h-108v-573h108v-45h-272v45h108v573h-108zM59 800l36 44l129 -121l-23 -27z" />
    <glyph glyph-name="Igrave.smcp" unicode="&#xe054;" horiz-adv-x="313" 
d="M48 671l37 42l127 -123l-24 -27zM129 0v535h55v-535h-55z" />
    <glyph glyph-name="Imacron.alt" unicode="&#xe055;" horiz-adv-x="336" 
d="M32 618v43h272v-43h-108v-573h108v-45h-272v45h108v573h-108zM7 746v47h321v-47h-321z" />
    <glyph glyph-name="Imacron.smcp" unicode="&#xe056;" horiz-adv-x="313" 
d="M14 627v44h284v-44h-284zM129 0v535h55v-535h-55z" />
    <glyph glyph-name="Iogonek.alt" unicode="&#xe057;" horiz-adv-x="336" 
d="M32 618v43h272v-43h-108v-573h108v-45q-78 -42 -78 -119q0 -30 19.5 -45.5t43.5 -14t46 10.5l-3 -41q-33 -13 -70 -13t-62.5 26.5t-25.5 70.5q0 77 72 125h-214v45h108v573h-108z" />
    <glyph glyph-name="Iogonek.smcp" unicode="&#xe058;" horiz-adv-x="313" 
d="M129 6v529h55v-535q-35 -9 -59.5 -34.5t-24.5 -59.5q0 -37 36.5 -45t69.5 11l-3 -39q-49 -24 -101 -6q-51 17 -51 72q0 73 78 107z" />
    <glyph glyph-name="Itilde.alt" unicode="&#xe059;" horiz-adv-x="336" 
d="M32 618v43h272v-43h-108v-573h108v-45h-272v45h108v573h-108zM14 725h-7l-2 41q36 50 96 50q25 0 79 -23t71 -23q46 0 70 45h7l2 -41q-36 -50 -95 -50q-22 0 -77 23q-54 23 -71 23q-49 0 -73 -45z" />
    <glyph glyph-name="Itilde.smcp" unicode="&#xe05a;" horiz-adv-x="313" 
d="M9 600h-7l-2 40q35 50 95 50q22 0 73 -23q48 -22 67 -22q45 0 68 45h7l3 -40q-35 -50 -94 -50q-24 0 -72 22q-51 23 -66 23q-48 0 -72 -45zM129 0v535h55v-535h-55z" />
    <glyph glyph-name="J.alt" unicode="&#xe05b;" horiz-adv-x="240" 
d="M92 53v608h56v-601q0 -80 -16 -132q-10 -35 -31 -63q-44 -62 -145 -85l-11 44q49 17 80 38q67 43 67 191z" />
    <glyph glyph-name="J.smcp" unicode="&#xe05c;" horiz-adv-x="320" 
d="M136 158v377h55v-374q0 -52 -14 -90q-29 -83 -153 -83l-10 44q66 0 94 27.5t28 98.5z" />
    <glyph glyph-name="J.smcp.alt" unicode="&#xe05d;" horiz-adv-x="313" 
d="M129 53v482h55v-483q0 -76 -18 -129q-32 -106 -177 -143l-10 45q42 13 65.5 26.5t43.5 37.5q41 45 41 164z" />
    <glyph glyph-name="Jcircumflex.alt" unicode="&#xe05e;" horiz-adv-x="240" 
d="M-9 713l106 126h46l106 -126l-34 -13l-78 72l-14 18h-6l-14 -18l-78 -72zM92 53v608h56v-601q0 -80 -16 -132q-10 -35 -31 -63q-44 -62 -145 -85l-11 44q49 17 80 38q67 43 67 191z" />
    <glyph glyph-name="Jcircumflex.smcp" unicode="&#xe05f;" horiz-adv-x="320" 
d="M34 586l106 126h46l106 -126l-33 -12l-79 71l-14 18h-6l-14 -18l-78 -71zM136 158v377h55v-374q0 -52 -14 -90q-29 -83 -153 -83l-10 44q66 0 94 27.5t28 98.5z" />
    <glyph glyph-name="Jcircumflex.smcp.alt" unicode="&#xe060;" horiz-adv-x="313" 
d="M27 586l106 126h46l106 -126l-33 -12l-79 71l-14 18h-6l-14 -18l-78 -71zM129 53v482h55v-483q0 -76 -18 -129q-32 -106 -177 -143l-10 45q42 13 65.5 26.5t43.5 37.5q41 45 41 164z" />
    <glyph glyph-name="K.alt" unicode="&#xe061;" horiz-adv-x="549" 
d="M92 0v661h56v-303h27l229 244l47 59h66l-50 -65l-243 -256l257 -264l61 -76h-66l-300 312h-28v-312h-56z" />
    <glyph glyph-name="K.smcp" unicode="&#xe062;" horiz-adv-x="556" 
d="M129 0v535h55v-535h-55zM391 487l38 48h62l-41 -53l-196 -207l208 -213l49 -62h-62l-260 271z" />
    <glyph glyph-name="K.smcp.alt" unicode="&#xe063;" horiz-adv-x="556" 
d="M129 0v535h55v-242h25l182 194l38 48h62l-41 -53l-196 -207l208 -213l49 -62h-62l-238 248h-27v-248h-55z" />
    <glyph glyph-name="Kcommaaccent.alt" unicode="&#xe064;" horiz-adv-x="549" 
d="M92 0v661h56v-303h27l229 244l47 59h66l-50 -65l-243 -256l257 -264l61 -76h-66l-300 312h-28v-312h-56zM284 -36h54q20 -95 -45 -182l-32 13q49 73 23 169z" />
    <glyph glyph-name="Kcommaaccent.smcp" unicode="&#xe065;" horiz-adv-x="556" 
d="M284 -36h54q20 -95 -45 -182l-32 13q49 73 23 169zM129 0v535h55v-535h-55zM391 487l38 48h62l-41 -53l-196 -207l208 -213l49 -62h-62l-260 271z" />
    <glyph glyph-name="Kcommaaccent.smcp.alt" unicode="&#xe066;" horiz-adv-x="556" 
d="M129 0v535h55v-242h25l182 194l38 48h62l-41 -53l-196 -207l208 -213l49 -62h-62l-238 248h-27v-248h-55zM284 -36h54q20 -95 -45 -182l-32 13q49 73 23 169z" />
    <glyph glyph-name="Kgreenlandic" unicode="&#xe067;" horiz-adv-x="682" 
d="M638 737l35 -19q-24 -39 -30 -85q-10 -82 26 -132l-65 -21q-23 35 -15 116q7 79 49 141zM92 0v661h56v-661h-56zM404 602l47 59h66l-50 -65l-243 -256l257 -264l61 -76h-66l-322 335z" />
    <glyph glyph-name="Kgreenlandic.alt" unicode="&#xe068;" horiz-adv-x="682" 
d="M92 0v661h56v-303h27l229 244l47 59h66l-50 -65l-243 -256l257 -264l61 -76h-66l-300 312h-28v-312h-56zM638 737l35 -19q-24 -39 -30 -85q-10 -82 26 -132l-65 -21q-23 35 -15 116q7 79 49 141z" />
    <glyph glyph-name="Kgreenlandic.smcp" unicode="&#xe069;" horiz-adv-x="735" 
d="M654 550l35 -19q-23 -26 -28.5 -56.5t2 -53t22.5 -36.5l-65 -22q-22 25 -15 84q7 57 49 103zM129 0v535h55v-535h-55zM391 487l38 48h62l-41 -53l-196 -207l208 -213l49 -62h-62l-260 271z" />
    <glyph glyph-name="Kgreenlandic.smcp.alt" unicode="&#xe06a;" horiz-adv-x="735" 
d="M129 0v535h55v-242h25l182 194l38 48h62l-41 -53l-196 -207l208 -213l49 -62h-62l-238 248h-27v-248h-55zM654 550l35 -19q-23 -26 -28.5 -56.5t2 -53t22.5 -36.5l-65 -22q-22 25 -15 84q7 57 49 103z" />
    <glyph glyph-name="L.smcp" unicode="&#xe06b;" horiz-adv-x="502" 
d="M129 0v535h55v-446l-7 -40h268v-49h-316z" />
    <glyph glyph-name="Lacute.smcp" unicode="&#xe06c;" horiz-adv-x="502" 
d="M125 563l-23 27l126 123l38 -42zM129 0v535h55v-446l-7 -40h268v-49h-316z" />
    <glyph glyph-name="Lcaron.smcp" unicode="&#xe06d;" horiz-adv-x="502" 
d="M347 360v175h59l-18 -175h-41zM129 0v535h55v-446l-7 -40h268v-49h-316z" />
    <glyph glyph-name="Lcommaaccent.smcp" unicode="&#xe06e;" horiz-adv-x="502" 
d="M257 -36h55q18 -97 -45 -182l-33 13q50 75 23 169zM129 0v535h55v-446l-7 -40h268v-49h-316z" />
    <glyph glyph-name="Ldot.smcp" unicode="&#xe06f;" horiz-adv-x="502" 
d="M129 0v535h55v-446l-7 -40h268v-49h-316zM333 262q-12 13 -12 31t12 30q13 13 31 13t30 -13q13 -12 13 -30t-13 -31q-12 -12 -30 -12t-31 12z" />
    <glyph glyph-name="Lslash.smcp" unicode="&#xe070;" horiz-adv-x="502" 
d="M129 283v252h55v-236l168 51l14 -42l-182 -55v-164l-7 -40h268v-49h-316v236l-81 -24l-16 42z" />
    <glyph glyph-name="M.alt" unicode="&#xe071;" horiz-adv-x="887" 
d="M73 0l72 661h69l207 -399q17 -35 20 -55h6q3 19 21 55l207 399h67l72 -661h-62l-55 595h-5q-3 -22 -17 -50l-205 -386h-54l-205 386q-15 28 -17 50h-5l-56 -595h-60z" />
    <glyph glyph-name="M.smcp" unicode="&#xe072;" horiz-adv-x="865" 
d="M99 0l72 535h73l178 -453q6 -16 6 -28h7q0 12 6 28l179 453h74l72 -535h-60l-57 469h-6q-2 -19 -6 -29l-176 -440h-63l-173 440q-5 17 -6 29h-7l-55 -469h-58z" />
    <glyph glyph-name="M.smcp.alt" unicode="&#xe073;" horiz-adv-x="848" 
d="M99 0l59 535h68l179 -323q12 -23 15 -44h7q5 24 17 44l178 323h68l59 -535h-60l-44 477h-6q-1 -20 -12 -40l-174 -311h-58l-176 311q-9 15 -11 40h-6l-45 -477h-58z" />
    <glyph glyph-name="Mdotaccent" unicode="&#xe074;" horiz-adv-x="900" 
d="M63 0l89 661h67l220 -559q7 -18 8 -35h6q1 17 8 35l220 559h68l88 -661h-62l-70 579h-5q-3 -21 -9 -36l-216 -543h-54l-215 543q-6 17 -8 36h-6l-68 -579h-61zM419 740q-12 13 -12 31t12 30q13 13 31 13t30 -13q13 -12 13 -30t-13 -31q-12 -12 -30 -12t-31 12z" />
    <glyph glyph-name="Mdotaccent.alt" unicode="&#xe075;" horiz-adv-x="887" 
d="M442 814q18 0 31 -13t13 -31q0 -17 -13 -29.5t-31 -12.5q-17 0 -29.5 12.5t-12.5 29.5q0 18 12.5 31t29.5 13zM73 0l72 661h69l207 -399q17 -35 20 -55h6q3 19 21 55l207 399h67l72 -661h-62l-55 595h-5q-3 -22 -17 -50l-205 -386h-54l-205 386q-15 28 -17 50h-5
l-56 -595h-60z" />
    <glyph glyph-name="Mdotaccent.smcp" unicode="&#xe076;" horiz-adv-x="865" 
d="M99 0l72 535h73l178 -453q6 -16 6 -28h7q0 12 6 28l179 453h74l72 -535h-60l-57 469h-6q-2 -19 -6 -29l-176 -440h-63l-173 440q-5 17 -6 29h-7l-55 -469h-58zM401 614q-12 13 -12 31t12 30q13 13 31 13t30 -13q13 -12 13 -30t-13 -31q-12 -12 -30 -12t-31 12z" />
    <glyph glyph-name="Mdotaccent.smcp.alt" unicode="&#xe077;" horiz-adv-x="848" 
d="M99 0l59 535h68l179 -323q12 -23 15 -44h7q5 24 17 44l178 323h68l59 -535h-60l-44 477h-6q-1 -20 -12 -40l-174 -311h-58l-176 311q-9 15 -11 40h-6l-45 -477h-58zM393 614q-12 13 -12 31t12 30q13 13 31 13t30 -13q13 -12 13 -30t-13 -31q-12 -12 -30 -12t-31 12z" />
    <glyph glyph-name="N.smcp" unicode="&#xe078;" horiz-adv-x="713" 
d="M129 0v535h72l309 -449q13 -19 14 -29h5v478h55v-535h-73l-309 443q-12 18 -13 29h-5v-472h-55z" />
    <glyph glyph-name="Nacute.smcp" unicode="&#xe079;" horiz-adv-x="713" 
d="M335 563l-24 27l126 123l38 -42zM129 0v535h72l309 -449q13 -19 14 -29h5v478h55v-535h-73l-309 443q-12 18 -13 29h-5v-472h-55z" />
    <glyph glyph-name="Napostrophe" unicode="&#xe07a;" horiz-adv-x="733" 
d="M-19 661h54q19 -95 -45 -183l-32 13q48 77 23 170zM106 0v661h71l385 -560q13 -17 18 -35h5v595h56v-661h-78l-379 552q-12 16 -17 35h-5v-587h-56z" />
    <glyph glyph-name="Napostrophe.smcp" unicode="&#xe07b;" horiz-adv-x="719" 
d="M13 535h54q18 -97 -45 -182l-32 13q49 75 23 169zM135 0v535h72l309 -449q13 -19 14 -29h5v478h55v-535h-73l-309 443q-12 18 -13 29h-5v-472h-55z" />
    <glyph glyph-name="Ncaron.smcp" unicode="&#xe07c;" horiz-adv-x="713" 
d="M129 0v535h72l309 -449q13 -19 14 -29h5v478h55v-535h-73l-309 443q-12 18 -13 29h-5v-472h-55zM332 574l-106 126l34 12l78 -71l14 -18h6l14 18l79 71l33 -12l-106 -126h-46z" />
    <glyph glyph-name="Ncommaaccent.smcp" unicode="&#xe07d;" horiz-adv-x="713" 
d="M329 -36h55q18 -96 -45 -182l-33 13q49 73 23 169zM129 0v535h72l309 -449q13 -19 14 -29h5v478h55v-535h-73l-309 443q-12 18 -13 29h-5v-472h-55z" />
    <glyph glyph-name="Ntilde.smcp" unicode="&#xe07e;" horiz-adv-x="713" 
d="M129 0v535h72l309 -449q13 -19 14 -29h5v478h55v-535h-73l-309 443q-12 18 -13 29h-5v-472h-55zM210 600h-8l-2 40q35 50 95 50q22 0 73 -23q48 -22 67 -22q45 0 68 45h8l2 -40q-35 -50 -94 -50q-24 0 -72 22q-51 23 -66 23q-49 0 -71 -45z" />
    <glyph glyph-name="O.smcp" unicode="&#xe07f;" horiz-adv-x="693" 
d="M346 541q118 0 191 -76t73 -201q0 -118 -74 -198q-74 -78 -190 -78q-118 0 -191 75q-72 77 -72 201q0 121 73 198q73 79 190 79zM346 492q-91 0 -149 -64q-57 -63 -57 -164q0 -100 57 -163t149 -63t149 62q57 63 57 164t-57 164q-57 64 -149 64z" />
    <glyph glyph-name="OE.smcp" unicode="&#xe080;" horiz-adv-x="945" 
d="M555 438v97h298v-48h-248l6 -37v-154h242v-46h-242v-201h259v-49h-315v94q-72 -106 -209 -106q-118 0 -191 75q-72 77 -72 201q0 121 73 198q73 79 190 79q139 0 209 -103zM346 492q-91 0 -149 -64q-57 -63 -57 -164q0 -100 57 -163t149 -63t149 62q57 63 57 164t-57 164
q-57 64 -149 64z" />
    <glyph glyph-name="Oacute.smcp" unicode="&#xe081;" horiz-adv-x="693" 
d="M346 541q118 0 191 -76t73 -201q0 -118 -74 -198q-74 -78 -190 -78q-118 0 -191 75q-72 77 -72 201q0 121 73 198q73 79 190 79zM346 492q-91 0 -149 -64q-57 -63 -57 -164q0 -100 57 -163t149 -63t149 62q57 63 57 164t-57 164q-57 64 -149 64zM302 563l-24 27l127 123
l37 -42z" />
    <glyph glyph-name="Obreve.smcp" unicode="&#xe082;" horiz-adv-x="693" 
d="M200 709l38 12q22 -108 108 -108q90 0 109 108l39 -12q-11 -67 -50 -106t-98 -39q-58 0 -97 39t-49 106zM346 541q118 0 191 -76t73 -201q0 -118 -74 -198q-74 -78 -190 -78q-118 0 -191 75q-72 77 -72 201q0 121 73 198q73 79 190 79zM346 492q-91 0 -149 -64
q-57 -63 -57 -164q0 -100 57 -163t149 -63t149 62q57 63 57 164t-57 164q-57 64 -149 64z" />
    <glyph glyph-name="Ocircumflex.smcp" unicode="&#xe083;" horiz-adv-x="693" 
d="M346 541q118 0 191 -76t73 -201q0 -118 -74 -198q-74 -78 -190 -78q-118 0 -191 75q-72 77 -72 201q0 121 73 198q73 79 190 79zM346 492q-91 0 -149 -64q-57 -63 -57 -164q0 -100 57 -163t149 -63t149 62q57 63 57 164t-57 164q-57 64 -149 64zM217 586l106 126h46
l106 -126l-33 -12l-79 71l-14 18h-6l-14 -18l-78 -71z" />
    <glyph glyph-name="Odieresis.smcp" unicode="&#xe084;" horiz-adv-x="693" 
d="M346 541q118 0 191 -76t73 -201q0 -118 -74 -198q-74 -78 -190 -78q-118 0 -191 75q-72 77 -72 201q0 121 73 198q73 79 190 79zM346 492q-91 0 -149 -64q-57 -63 -57 -164q0 -100 57 -163t149 -63t149 62q57 63 57 164t-57 164q-57 64 -149 64zM228 665q16 20 39.5 11.5
t29.5 -30t-11 -39.5q-12 -12 -29 -12t-29 12t-12 29t12 29zM406 665q16 20 39.5 11.5t29.5 -30t-11 -39.5q-12 -12 -29 -12t-29 12t-12 29t12 29z" />
    <glyph glyph-name="Ograve.smcp" unicode="&#xe085;" horiz-adv-x="693" 
d="M346 541q118 0 191 -76t73 -201q0 -118 -74 -198q-74 -78 -190 -78q-118 0 -191 75q-72 77 -72 201q0 121 73 198q73 79 190 79zM346 492q-91 0 -149 -64q-57 -63 -57 -164q0 -100 57 -163t149 -63t149 62q57 63 57 164t-57 164q-57 64 -149 64zM250 671l38 42l126 -123
l-23 -27z" />
    <glyph glyph-name="Ohungarumlaut.smcp" unicode="&#xe086;" horiz-adv-x="693" 
d="M229 583l91 149l47 -31l-108 -138zM371 583l90 149l47 -31l-108 -138zM346 541q118 0 191 -76t73 -201q0 -118 -74 -198q-74 -78 -190 -78q-118 0 -191 75q-72 77 -72 201q0 121 73 198q73 79 190 79zM346 492q-91 0 -149 -64q-57 -63 -57 -164q0 -100 57 -163t149 -63
t149 62q57 63 57 164t-57 164q-57 64 -149 64z" />
    <glyph glyph-name="Omacron.smcp" unicode="&#xe087;" horiz-adv-x="693" 
d="M204 627v46h284v-46h-284zM346 541q118 0 191 -76t73 -201q0 -118 -74 -198q-74 -78 -190 -78q-118 0 -191 75q-72 77 -72 201q0 121 73 198q73 79 190 79zM346 492q-91 0 -149 -64q-57 -63 -57 -164q0 -100 57 -163t149 -63t149 62q57 63 57 164t-57 164q-57 64 -149 64
z" />
    <glyph glyph-name="Oslash.smcp" unicode="&#xe088;" horiz-adv-x="693" 
d="M476 510l57 95l28 -17l-57 -95q106 -76 106 -229q0 -118 -74 -198q-74 -78 -190 -78q-72 0 -128 29l-56 -94l-30 19l56 93q-105 75 -105 229q0 121 73 198q73 79 190 79q72 0 130 -31zM217 82l232 384q-47 26 -103 26q-91 0 -149 -64q-57 -63 -57 -164q0 -120 77 -182z
M476 447l-230 -385q44 -24 100 -24q92 0 149 62q57 63 57 164q0 120 -76 183z" />
    <glyph glyph-name="Oslashacute.smcp" unicode="&#xe089;" horiz-adv-x="693" 
d="M476 510l57 95l28 -17l-57 -95q106 -76 106 -229q0 -118 -74 -198q-74 -78 -190 -78q-72 0 -128 29l-56 -94l-30 19l56 93q-105 75 -105 229q0 121 73 198q73 79 190 79q72 0 130 -31zM217 82l232 384q-47 26 -103 26q-91 0 -149 -64q-57 -63 -57 -164q0 -120 77 -182z
M476 447l-230 -385q44 -24 100 -24q92 0 149 62q57 63 57 164q0 120 -76 183zM301 563l-23 27l126 123l38 -42z" />
    <glyph glyph-name="Otilde.smcp" unicode="&#xe08a;" horiz-adv-x="693" 
d="M200 600h-8l-2 41q36 50 95 50q22 0 73 -23t67 -23q45 0 68 45h7l3 -41q-36 -50 -94 -50q-24 0 -72 22q-51 23 -66 23q-48 0 -71 -44zM346 541q118 0 191 -76t73 -201q0 -118 -74 -198q-74 -78 -190 -78q-118 0 -191 75q-72 77 -72 201q0 121 73 198q73 79 190 79z
M346 492q-91 0 -149 -64q-57 -63 -57 -164q0 -100 57 -163t149 -63t149 62q57 63 57 164t-57 164q-57 64 -149 64z" />
    <glyph glyph-name="P.smcp" unicode="&#xe08b;" horiz-adv-x="574" 
d="M129 0v535h175q88 0 137.5 -41t49.5 -116q0 -72 -52 -117t-134 -45h-121v-216h-55zM306 488h-122v-228h121q57 0 92.5 32t35.5 86q0 51 -34.5 80.5t-92.5 29.5z" />
    <glyph glyph-name="Pdotaccent" unicode="&#xe08c;" horiz-adv-x="579" 
d="M92 0v661h205q105 0 165.5 -51t60.5 -143q0 -89 -63 -145q-62 -55 -162 -55h-150v-267h-56zM296 611h-148v-298h148q76 0 122 40.5t46 113.5q0 69 -44 106.5t-124 37.5zM252 740q-12 13 -12 31t12 30q13 13 31 13t30 -13q13 -12 13 -30t-13 -31q-12 -12 -30 -12t-31 12z
" />
    <glyph glyph-name="Pdotaccent.smcp" unicode="&#xe08d;" horiz-adv-x="574" 
d="M129 0v535h175q88 0 137.5 -41t49.5 -116q0 -72 -52 -117t-134 -45h-121v-216h-55zM306 488h-122v-228h121q57 0 92.5 32t35.5 86q0 51 -34.5 80.5t-92.5 29.5zM267 614q-12 13 -12 31t12 30q13 13 31 13t30 -13q13 -12 13 -30t-13 -31q-12 -12 -30 -12t-31 12z" />
    <glyph glyph-name="Q.alt" unicode="&#xe08e;" horiz-adv-x="758" 
d="M473 10l224 -60l-14 -51l-306 89q-140 2 -228 95q-88 94 -88 246q0 146 89 244q90 98 229 98q140 0 229 -95t89 -247q0 -115 -61 -200q-59 -84 -163 -119zM121 329q0 -130 71 -210q70 -79 187 -79t187 79q71 80 71 210q0 131 -71 211t-187 80t-187 -80t-71 -211z" />
    <glyph glyph-name="Q.smcp" unicode="&#xe08f;" horiz-adv-x="693" 
d="M609 -120l-14 -43q-121 -29 -202 -1q-43 14 -63 53.5t-13 99.5q-105 10 -170 84q-64 74 -64 191q0 121 73 198q73 79 190 79q118 0 191 -76t73 -201q0 -113 -67 -189q-67 -77 -172 -86q-18 -170 238 -109zM346 492q-91 0 -149 -64q-57 -63 -57 -164q0 -100 57 -163
t149 -63t149 62q57 63 57 164t-57 164q-57 64 -149 64z" />
    <glyph glyph-name="Q.smcp.alt" unicode="&#xe090;" horiz-adv-x="693" 
d="M433 10l177 -45l-13 -49l-251 72q-118 0 -191 75q-72 77 -72 201q0 121 73 198q73 79 190 79q118 0 191 -76t73 -201q0 -90 -46.5 -156.5t-130.5 -97.5zM346 492q-91 0 -149 -64q-57 -63 -57 -164q0 -100 57 -163t149 -63t149 62q57 63 57 164t-57 164q-57 64 -149 64z
" />
    <glyph glyph-name="R.smcp" unicode="&#xe091;" horiz-adv-x="574" 
d="M129 0v535h175q87 0 136.5 -38.5t49.5 -107.5q0 -66 -44 -106.5t-117 -44.5v-4l31 -31l103 -145l36 -58h-58l-168 236h-89v-236h-55zM307 488h-123v-211h126q55 0 88.5 30.5t33.5 81.5q0 46 -33 72.5t-92 26.5z" />
    <glyph glyph-name="Racute.smcp" unicode="&#xe092;" horiz-adv-x="574" 
d="M254 563l-23 27l126 123l37 -42zM129 0v535h175q87 0 136.5 -38.5t49.5 -107.5q0 -66 -44 -106.5t-117 -44.5v-4l31 -31l103 -145l36 -58h-58l-168 236h-89v-236h-55zM307 488h-123v-211h126q55 0 88.5 30.5t33.5 81.5q0 46 -33 72.5t-92 26.5z" />
    <glyph glyph-name="Rcaron.smcp" unicode="&#xe093;" horiz-adv-x="574" 
d="M129 0v535h175q87 0 136.5 -38.5t49.5 -107.5q0 -66 -44 -106.5t-117 -44.5v-4l31 -31l103 -145l36 -58h-58l-168 236h-89v-236h-55zM307 488h-123v-211h126q55 0 88.5 30.5t33.5 81.5q0 46 -33 72.5t-92 26.5zM267 574l-106 126l34 12l78 -71l14 -18h6l14 18l79 71
l33 -12l-106 -126h-46z" />
    <glyph glyph-name="Rcommaaccent.smcp" unicode="&#xe094;" horiz-adv-x="574" 
d="M282 -36h54q20 -95 -45 -182l-32 13q49 73 23 169zM129 0v535h175q87 0 136.5 -38.5t49.5 -107.5q0 -66 -44 -106.5t-117 -44.5v-4l31 -31l103 -145l36 -58h-58l-168 236h-89v-236h-55zM307 488h-123v-211h126q55 0 88.5 30.5t33.5 81.5q0 46 -33 72.5t-92 26.5z" />
    <glyph glyph-name="S.smcp" unicode="&#xe095;" horiz-adv-x="496" 
d="M405 509v-50q-72 35 -146 35q-58 0 -93.5 -22.5t-35.5 -64.5q0 -72 104 -103q26 -7 33 -9t31 -10t33 -13t28 -15.5t27.5 -21t19 -25.5t14.5 -33t4 -40q0 -70 -55 -110q-55 -39 -134 -39q-94 0 -162 31v51q86 -34 159 -34q63 0 100 26.5t37 72.5q0 76 -103 105q-4 1 -14 4
q-32 9 -50 15t-46 19.5t-42.5 29t-26 41t-10.5 57.5q0 66 51 100q53 35 124 35q77 0 153 -32z" />
    <glyph glyph-name="Sacute.smcp" unicode="&#xe096;" horiz-adv-x="496" 
d="M220 563l-23 27l126 123l38 -42zM405 509v-50q-72 35 -146 35q-58 0 -93.5 -22.5t-35.5 -64.5q0 -72 104 -103q26 -7 33 -9t31 -10t33 -13t28 -15.5t27.5 -21t19 -25.5t14.5 -33t4 -40q0 -70 -55 -110q-55 -39 -134 -39q-94 0 -162 31v51q86 -34 159 -34q63 0 100 26.5
t37 72.5q0 76 -103 105q-4 1 -14 4q-32 9 -50 15t-46 19.5t-42.5 29t-26 41t-10.5 57.5q0 66 51 100q53 35 124 35q77 0 153 -32z" />
    <glyph glyph-name="Scaron.smcp" unicode="&#xe097;" horiz-adv-x="496" 
d="M405 509v-50q-72 35 -146 35q-58 0 -93.5 -22.5t-35.5 -64.5q0 -72 104 -103q26 -7 33 -9t31 -10t33 -13t28 -15.5t27.5 -21t19 -25.5t14.5 -33t4 -40q0 -70 -55 -110q-55 -39 -134 -39q-94 0 -162 31v51q86 -34 159 -34q63 0 100 26.5t37 72.5q0 76 -103 105q-4 1 -14 4
q-32 9 -50 15t-46 19.5t-42.5 29t-26 41t-10.5 57.5q0 66 51 100q53 35 124 35q77 0 153 -32zM236 574l-106 126l34 12l78 -71l14 -18h6l14 18l79 71l33 -12l-106 -126h-46z" />
    <glyph glyph-name="Scedilla.smcp" unicode="&#xe098;" horiz-adv-x="496" 
d="M405 509v-50q-72 35 -146 35q-58 0 -93.5 -22.5t-35.5 -64.5q0 -72 104 -103q26 -7 33 -9t31 -10t33 -13t28 -15.5t27.5 -21t19 -25.5t14.5 -33t4 -40q0 -68 -52 -107q-51 -39 -126 -42l1 -29q42 -3 66.5 -26t24.5 -55q0 -98 -172 -98l-8 33q133 4 133 61q0 25 -25 39.5
t-69 15.5l10 60q-81 6 -134 30v51q86 -34 159 -34q63 0 100 26.5t37 72.5q0 76 -103 105q-4 1 -14 4q-32 9 -50 15t-46 19.5t-42.5 29t-26 41t-10.5 57.5q0 66 51 100q53 35 124 35q77 0 153 -32z" />
    <glyph glyph-name="Schwa" unicode="&#xe099;" horiz-adv-x="666" 
d="M78 574l6 53q90 44 196 44q147 0 235 -91q89 -92 89 -251q0 -150 -85 -245q-84 -96 -212 -96q-120 0 -185.5 72.5t-65.5 201.5q0 23 5 53h484q-3 305 -276 305q-102 0 -191 -46zM542 272l-423 -5q0 -119 47 -173t147 -54q83 0 149 57t80 175z" />
    <glyph glyph-name="Schwa.alt" unicode="&#xe09a;" horiz-adv-x="636" 
d="M97 554l-27 43q55 40 107 57t116 17q129 0 212 -92q83 -93 76 -245q-6 -147 -97 -247q-92 -99 -217 -99q-84 0 -133 35.5t-61 98.5q-11 56 13 107t81 88.5t146.5 51.5t210.5 -4q-3 119 -66.5 187t-171.5 68q-104 0 -189 -66zM523 320q-106 17 -185 7.5t-128.5 -39.5
t-70 -71t-10.5 -87q10 -47 43.5 -70t99.5 -23q41 0 82 17t78 50t62 89t29 127z" />
    <glyph glyph-name="Schwa.smcp" unicode="&#xe09b;" horiz-adv-x="599" 
d="M89 457l6 49q78 35 159 35q118 0 190 -74q72 -73 72 -203q0 -120 -69 -198q-67 -78 -171 -78q-97 0 -150 58.5t-53 162.5q0 8 3 44h382q0 117 -54 178t-160 61q-85 0 -155 -35zM456 214l-327 -3q0 -90 37.5 -132.5t113.5 -42.5q60 0 112 44t64 134z" />
    <glyph glyph-name="Schwa.smcp.alt" unicode="&#xe09c;" horiz-adv-x="583" 
d="M119 441l-24 38q83 62 179 62q103 0 171 -74t63 -199q-5 -119 -79 -199q-75 -81 -177 -81q-135 0 -157 109q-9 43 10 84.5t64.5 72t117 42.5t166.5 -2q-3 93 -52.5 145.5t-133.5 52.5q-79 0 -148 -51zM452 254q-154 25 -237 -23q-81 -48 -67 -129q6 -36 31 -52.5
t77 -16.5q70 0 129 56q60 58 67 165z" />
    <glyph glyph-name="Scircumflex.smcp" unicode="&#xe09d;" horiz-adv-x="496" 
d="M405 509v-50q-72 35 -146 35q-58 0 -93.5 -22.5t-35.5 -64.5q0 -72 104 -103q26 -7 33 -9t31 -10t33 -13t28 -15.5t27.5 -21t19 -25.5t14.5 -33t4 -40q0 -70 -55 -110q-55 -39 -134 -39q-94 0 -162 31v51q86 -34 159 -34q63 0 100 26.5t37 72.5q0 76 -103 105q-4 1 -14 4
q-32 9 -50 15t-46 19.5t-42.5 29t-26 41t-10.5 57.5q0 66 51 100q53 35 124 35q77 0 153 -32zM130 586l106 126h46l106 -126l-33 -12l-79 71l-14 18h-6l-14 -18l-78 -71z" />
    <glyph glyph-name="Scommaaccent.smcp" unicode="&#xe09e;" horiz-adv-x="496" 
d="M213 -36h54q20 -95 -45 -182l-33 13q49 73 24 169zM405 509v-50q-72 35 -146 35q-58 0 -93.5 -22.5t-35.5 -64.5q0 -72 104 -103q26 -7 33 -9t31 -10t33 -13t28 -15.5t27.5 -21t19 -25.5t14.5 -33t4 -40q0 -70 -55 -110q-55 -39 -134 -39q-94 0 -162 31v51
q86 -34 159 -34q63 0 100 26.5t37 72.5q0 76 -103 105q-4 1 -14 4q-32 9 -50 15t-46 19.5t-42.5 29t-26 41t-10.5 57.5q0 66 51 100q53 35 124 35q77 0 153 -32z" />
    <glyph glyph-name="Sdotaccent" unicode="&#xe09f;" horiz-adv-x="525" 
d="M454 631v-53q-85 43 -180 43q-77 0 -121 -29.5t-44 -85.5q0 -51 38 -83t92 -49t108.5 -36.5t92.5 -61t38 -106.5q0 -86 -68 -134t-163 -48q-105 0 -199 38v55q102 -41 195 -41q83 0 130.5 34.5t47.5 92.5q0 39 -20.5 66.5t-53 43t-71.5 28.5t-78.5 27.5t-72 34t-53 54.5
t-20.5 84q0 79 63 122q65 44 152 44q103 0 187 -40zM245 740q-12 13 -12 31t12 30q13 13 31 13t30 -13q13 -12 13 -30t-13 -31q-12 -12 -30 -12t-31 12z" />
    <glyph glyph-name="Sdotaccent.smcp" unicode="&#xe0a0;" horiz-adv-x="496" 
d="M405 509v-50q-72 35 -146 35q-58 0 -93.5 -22.5t-35.5 -64.5q0 -72 104 -103q26 -7 33 -9t31 -10t33 -13t28 -15.5t27.5 -21t19 -25.5t14.5 -33t4 -40q0 -70 -55 -110q-55 -39 -134 -39q-94 0 -162 31v51q86 -34 159 -34q63 0 100 26.5t37 72.5q0 76 -103 105q-4 1 -14 4
q-32 9 -50 15t-46 19.5t-42.5 29t-26 41t-10.5 57.5q0 66 51 100q53 35 124 35q77 0 153 -32zM232 614q-12 13 -12 31t12 30q13 13 31 13t30 -13q13 -12 13 -30t-13 -31q-12 -12 -30 -12t-31 12z" />
    <glyph glyph-name="T.smcp" unicode="&#xe0a1;" horiz-adv-x="465" 
d="M22 488v47h421v-47h-183v-488h-56v488h-182z" />
    <glyph glyph-name="T_h" unicode="&#xe0a2;" horiz-adv-x="1126" 
d="M18 611v50h609l54 12v-169q0 -44 -3 -72h6q71 83 175 83q78 0 125.5 -41t47.5 -117v-357h-54v355q0 53 -33 83t-96 30q-53 0 -98.5 -25.5t-69.5 -67.5v-375h-54v611h-329v-611h-56v611h-224z" />
    <glyph glyph-name="Tbar.smcp" unicode="&#xe0a3;" horiz-adv-x="465" 
d="M22 488v47h421v-47h-183v-208h138v-42h-138v-238h-56v238h-138v42h138v208h-182z" />
    <glyph glyph-name="Tbar_h" unicode="&#xe0a4;" horiz-adv-x="1126" 
d="M18 611v50h609l54 12v-169q0 -44 -3 -72h6q71 83 175 83q78 0 125.5 -41t47.5 -117v-357h-54v355q0 53 -33 83t-96 30q-53 0 -98.5 -25.5t-69.5 -67.5v-375h-54v611h-329v-266h174v-43h-174v-302h-56v302h-174v43h174v266h-224z" />
    <glyph glyph-name="Tcaron.smcp" unicode="&#xe0a5;" horiz-adv-x="465" 
d="M209 574l-106 126l34 12l78 -71l14 -18h6l14 18l79 71l33 -12l-106 -126h-46zM22 488v47h421v-47h-183v-488h-56v488h-182z" />
    <glyph glyph-name="Tcaron_h" unicode="&#xe0a6;" horiz-adv-x="1126" 
d="M18 611v50h609l54 12v-169q0 -44 -3 -72h6q71 83 175 83q78 0 125.5 -41t47.5 -117v-357h-54v355q0 53 -33 83t-96 30q-53 0 -98.5 -25.5t-69.5 -67.5v-375h-54v611h-329v-611h-56v611h-224zM247 700l-106 126l34 13l78 -72l14 -18h6l14 18l78 72l34 -13l-106 -126h-46z
" />
    <glyph glyph-name="Tcommaaccent.smcp" unicode="&#xe0a7;" horiz-adv-x="465" 
d="M22 488v47h421v-47h-183v-488h-12l1 -41q42 -3 66.5 -26t24.5 -55q0 -98 -172 -98l-8 33q133 4 133 61q0 25 -25 39.5t-69 15.5l12 71h-7v488h-182z" />
    <glyph glyph-name="Tcommaaccent_h" unicode="&#xe0a8;" horiz-adv-x="1126" 
d="M18 611v50h609l54 12v-169q0 -44 -3 -72h6q71 83 175 83q78 0 125.5 -41t47.5 -117v-357h-54v355q0 53 -33 83t-96 30q-53 0 -98.5 -25.5t-69.5 -67.5v-375h-54v611h-329v-611h-10l1 -41q42 -3 66.5 -26t24.5 -55q0 -98 -172 -98l-8 33q133 4 133 61q0 25 -25 39.5
t-69 15.5l12 71h-9v611h-224z" />
    <glyph glyph-name="Tdotaccent" unicode="&#xe0a9;" horiz-adv-x="540" 
d="M18 611v50h504v-50h-224v-611h-56v611h-224zM239 740q-12 13 -12 31t12 30q13 13 31 13t30 -13q13 -12 13 -30t-13 -31q-12 -12 -30 -12t-31 12z" />
    <glyph glyph-name="Tdotaccent.smcp" unicode="&#xe0aa;" horiz-adv-x="465" 
d="M22 488v47h421v-47h-183v-488h-56v488h-182zM202 614q-12 13 -12 31t12 30q13 13 31 13t30 -13q13 -12 13 -30t-13 -31q-12 -12 -30 -12t-31 12z" />
    <glyph glyph-name="Thorn.smcp" unicode="&#xe0ab;" horiz-adv-x="576" 
d="M129 0v535h55v-95h126q183 0 183 -170q0 -83 -47 -126t-135 -43h-127v-101h-55zM306 391h-122v-243h123q63 0 96 31t33 91q0 59 -33.5 90t-96.5 31z" />
    <glyph glyph-name="U.alt" unicode="&#xe0ac;" horiz-adv-x="680" 
d="M83 193v468h57v-463q0 -73 43.5 -115t126.5 -42q69 0 128.5 31.5t92.5 81.5v507h57v-661h-43l-6 93h-4q-103 -105 -235 -105q-93 0 -155 52q-62 53 -62 153z" />
    <glyph glyph-name="U.smcp" unicode="&#xe0ad;" horiz-adv-x="661" 
d="M118 192v343h55v-344q0 -73 42.5 -113.5t115.5 -40.5q74 0 116 40.5t42 113.5v344h54v-342q0 -97 -57.5 -151t-154.5 -54q-98 0 -155.5 53.5t-57.5 150.5z" />
    <glyph glyph-name="U.smcp.alt" unicode="&#xe0ae;" horiz-adv-x="673" 
d="M118 156v379h55v-373q0 -58 35.5 -91.5t102.5 -33.5q55 0 103 26t75 66v406h55v-535h-44l-5 74h-3q-86 -86 -190 -86q-83 0 -133.5 43.5t-50.5 124.5z" />
    <glyph glyph-name="U2117" unicode="&#xe0af;" horiz-adv-x="635" 
d="M331 578h-72v-134h74q78 0 78 69q0 65 -80 65zM134 634q76 76 183 76t183 -76t76 -183t-76 -183q-76 -75 -183 -75t-183 75q-75 76 -75 183t75 183zM477 611q-66 67 -160 67t-160 -67q-66 -66 -66 -160t66 -160t160 -66t160 66q67 66 67 160t-67 160zM228 298v307h104
q52 0 81.5 -24t29.5 -68t-30 -68.5t-80 -24.5h-74v-122h-31z" />
    <glyph glyph-name="Uacute.alt" unicode="&#xe0b0;" horiz-adv-x="680" 
d="M307 696l-22 27l128 121l37 -44zM83 193v468h57v-463q0 -73 43.5 -115t126.5 -42q69 0 128.5 31.5t92.5 81.5v507h57v-661h-43l-6 93h-4q-103 -105 -235 -105q-93 0 -155 52q-62 53 -62 153z" />
    <glyph glyph-name="Uacute.smcp" unicode="&#xe0b1;" horiz-adv-x="661" 
d="M303 563l-23 27l126 123l37 -42zM118 192v343h55v-344q0 -73 42.5 -113.5t115.5 -40.5q74 0 116 40.5t42 113.5v344h54v-342q0 -97 -57.5 -151t-154.5 -54q-98 0 -155.5 53.5t-57.5 150.5z" />
    <glyph glyph-name="Uacute.smcp.alt" unicode="&#xe0b2;" horiz-adv-x="673" 
d="M303 563l-23 27l126 123l37 -42zM118 156v379h55v-373q0 -58 35.5 -91.5t102.5 -33.5q55 0 103 26t75 66v406h55v-535h-44l-5 74h-3q-86 -86 -190 -86q-83 0 -133.5 43.5t-50.5 124.5z" />
    <glyph glyph-name="Ubreve.alt" unicode="&#xe0b3;" horiz-adv-x="680" 
d="M183 843l38 12q19 -106 113 -106q95 0 114 106l38 -12q-10 -65 -52 -104t-100 -39q-57 0 -98.5 39t-52.5 104zM83 193v468h57v-463q0 -73 43.5 -115t126.5 -42q69 0 128.5 31.5t92.5 81.5v507h57v-661h-43l-6 93h-4q-103 -105 -235 -105q-93 0 -155 52q-62 53 -62 153z
" />
    <glyph glyph-name="Ubreve.smcp" unicode="&#xe0b4;" horiz-adv-x="661" 
d="M118 192v343h55v-344q0 -73 42.5 -113.5t115.5 -40.5q74 0 116 40.5t42 113.5v344h54v-342q0 -97 -57.5 -151t-154.5 -54q-98 0 -155.5 53.5t-57.5 150.5zM184 709l39 11q20 -107 108 -107q89 0 109 107l39 -11q-11 -67 -50 -106t-98 -39q-57 0 -96.5 39t-50.5 106z" />
    <glyph glyph-name="Ubreve.smcp.alt" unicode="&#xe0b5;" horiz-adv-x="673" 
d="M183 709l39 11q20 -107 108 -107q89 0 109 107l39 -11q-11 -66 -51 -105.5t-97 -39.5t-96.5 39t-50.5 106zM118 156v379h55v-373q0 -58 35.5 -91.5t102.5 -33.5q55 0 103 26t75 66v406h55v-535h-44l-5 74h-3q-86 -86 -190 -86q-83 0 -133.5 43.5t-50.5 124.5z" />
    <glyph glyph-name="Ucircumflex.alt" unicode="&#xe0b6;" horiz-adv-x="680" 
d="M83 193v468h57v-463q0 -73 43.5 -115t126.5 -42q69 0 128.5 31.5t92.5 81.5v507h57v-661h-43l-6 93h-4q-103 -105 -235 -105q-93 0 -155 52q-62 53 -62 153zM205 713l106 126h46l106 -126l-34 -13l-78 72l-14 18h-6l-14 -18l-78 -72z" />
    <glyph glyph-name="Ucircumflex.smcp" unicode="&#xe0b7;" horiz-adv-x="661" 
d="M202 586l106 126h46l106 -126l-33 -12l-79 71l-14 18h-6l-14 -18l-78 -71zM118 192v343h55v-344q0 -73 42.5 -113.5t115.5 -40.5q74 0 116 40.5t42 113.5v344h54v-342q0 -97 -57.5 -151t-154.5 -54q-98 0 -155.5 53.5t-57.5 150.5z" />
    <glyph glyph-name="Ucircumflex.smcp.alt" unicode="&#xe0b8;" horiz-adv-x="673" 
d="M118 156v379h55v-373q0 -58 35.5 -91.5t102.5 -33.5q55 0 103 26t75 66v406h55v-535h-44l-5 74h-3q-86 -86 -190 -86q-83 0 -133.5 43.5t-50.5 124.5zM201 586l106 126h46l106 -126l-33 -12l-79 71l-14 18h-6l-14 -18l-78 -71z" />
    <glyph glyph-name="Udieresis.alt" unicode="&#xe0b9;" horiz-adv-x="680" 
d="M216 799q16 20 39.5 11.5t29.5 -29.5t-11 -41q-12 -12 -29 -12t-29 12q-12 13 -12 30t12 29zM465 770q0 -17 -12.5 -29.5t-29.5 -12.5t-29.5 12.5t-12.5 29.5t12.5 29.5t29.5 12.5t29.5 -13t12.5 -29zM83 193v468h57v-463q0 -73 43.5 -115t126.5 -42q69 0 128.5 31.5
t92.5 81.5v507h57v-661h-43l-6 93h-4q-103 -105 -235 -105q-93 0 -155 52q-62 53 -62 153z" />
    <glyph glyph-name="Udieresis.smcp" unicode="&#xe0ba;" horiz-adv-x="661" 
d="M118 192v343h55v-344q0 -73 42.5 -113.5t115.5 -40.5q74 0 116 40.5t42 113.5v344h54v-342q0 -97 -57.5 -151t-154.5 -54q-98 0 -155.5 53.5t-57.5 150.5zM213 665q16 20 39.5 11.5t29.5 -30t-11 -39.5q-12 -12 -29 -12t-29 12t-12 29t12 29zM391 665q16 20 39.5 11.5
t29.5 -30t-11 -39.5q-12 -12 -29 -12t-29 12t-12 29t12 29z" />
    <glyph glyph-name="Udieresis.smcp.alt" unicode="&#xe0bb;" horiz-adv-x="673" 
d="M118 156v379h55v-373q0 -58 35.5 -91.5t102.5 -33.5q55 0 103 26t75 66v406h55v-535h-44l-5 74h-3q-86 -86 -190 -86q-83 0 -133.5 43.5t-50.5 124.5zM212 665q16 20 39.5 11.5t29.5 -30t-11 -39.5q-12 -12 -29 -12t-29 12t-12 29t12 29zM390 665q16 20 39.5 11.5
t29.5 -30t-11 -39.5q-12 -12 -29 -12t-29 12t-12 29t12 29z" />
    <glyph glyph-name="Ugrave.alt" unicode="&#xe0bc;" horiz-adv-x="680" 
d="M221 800l37 44l128 -121l-22 -27zM83 193v468h57v-463q0 -73 43.5 -115t126.5 -42q69 0 128.5 31.5t92.5 81.5v507h57v-661h-43l-6 93h-4q-103 -105 -235 -105q-93 0 -155 52q-62 53 -62 153z" />
    <glyph glyph-name="Ugrave.smcp" unicode="&#xe0bd;" horiz-adv-x="661" 
d="M219 671l37 42l126 -123l-23 -27zM118 192v343h55v-344q0 -73 42.5 -113.5t115.5 -40.5q74 0 116 40.5t42 113.5v344h54v-342q0 -97 -57.5 -151t-154.5 -54q-98 0 -155.5 53.5t-57.5 150.5z" />
    <glyph glyph-name="Ugrave.smcp.alt" unicode="&#xe0be;" horiz-adv-x="673" 
d="M219 671l37 42l127 -123l-24 -27zM118 156v379h55v-373q0 -58 35.5 -91.5t102.5 -33.5q55 0 103 26t75 66v406h55v-535h-44l-5 74h-3q-86 -86 -190 -86q-83 0 -133.5 43.5t-50.5 124.5z" />
    <glyph glyph-name="Uhungarumlaut.alt" unicode="&#xe0bf;" horiz-adv-x="680" 
d="M374 722l120 125l40 -41l-136 -110zM215 721l121 126l39 -40l-135 -111zM83 193v468h57v-463q0 -73 43.5 -115t126.5 -42q69 0 128.5 31.5t92.5 81.5v507h57v-661h-43l-6 93h-4q-103 -105 -235 -105q-93 0 -155 52q-62 53 -62 153z" />
    <glyph glyph-name="Uhungarumlaut.smcp" unicode="&#xe0c0;" horiz-adv-x="661" 
d="M223 583l90 149l47 -31l-108 -138zM364 583l90 149l47 -31l-108 -138zM118 192v343h55v-344q0 -73 42.5 -113.5t115.5 -40.5q74 0 116 40.5t42 113.5v344h54v-342q0 -97 -57.5 -151t-154.5 -54q-98 0 -155.5 53.5t-57.5 150.5z" />
    <glyph glyph-name="Uhungarumlaut.smcp.alt" unicode="&#xe0c1;" horiz-adv-x="673" 
d="M223 583l90 149l47 -31l-108 -138zM364 583l90 149l47 -31l-108 -138zM118 156v379h55v-373q0 -58 35.5 -91.5t102.5 -33.5q55 0 103 26t75 66v406h55v-535h-44l-5 74h-3q-86 -86 -190 -86q-83 0 -133.5 43.5t-50.5 124.5z" />
    <glyph glyph-name="Umacron.alt" unicode="&#xe0c2;" horiz-adv-x="680" 
d="M83 193v468h57v-463q0 -73 43.5 -115t126.5 -42q69 0 128.5 31.5t92.5 81.5v507h57v-661h-43l-6 93h-4q-103 -105 -235 -105q-93 0 -155 52q-62 53 -62 153zM174 746v47h320v-47h-320z" />
    <glyph glyph-name="Umacron.smcp" unicode="&#xe0c3;" horiz-adv-x="661" 
d="M189 627v46h284v-46h-284zM118 192v343h55v-344q0 -73 42.5 -113.5t115.5 -40.5q74 0 116 40.5t42 113.5v344h54v-342q0 -97 -57.5 -151t-154.5 -54q-98 0 -155.5 53.5t-57.5 150.5z" />
    <glyph glyph-name="Umacron.smcp.alt" unicode="&#xe0c4;" horiz-adv-x="673" 
d="M188 627v46h284v-46h-284zM118 156v379h55v-373q0 -58 35.5 -91.5t102.5 -33.5q55 0 103 26t75 66v406h55v-535h-44l-5 74h-3q-86 -86 -190 -86q-83 0 -133.5 43.5t-50.5 124.5z" />
    <glyph glyph-name="Uogonek.alt" unicode="&#xe0c5;" horiz-adv-x="680" 
d="M83 193v468h57v-463q0 -73 43.5 -115t126.5 -42q69 0 128.5 31.5t92.5 81.5v507h57v-661q-42 -11 -79 -42q-38 -32 -38 -78q0 -43 42.5 -55t74.5 7l-3 -41q-35 -13 -73 -13t-65.5 27t-27.5 70q0 49 35 87t90 54l-5 77h-4q-103 -105 -235 -105q-93 0 -155 52
q-62 53 -62 153z" />
    <glyph glyph-name="Uogonek.smcp" unicode="&#xe0c6;" horiz-adv-x="661" 
d="M118 192v343h55v-344q0 -73 42.5 -113.5t115.5 -40.5q74 0 116 40.5t42 113.5v344h54v-342q0 -68 -29.5 -116t-83.5 -70q-49 -26 -72.5 -49.5t-23.5 -51.5q0 -25 20.5 -37t48 -10t54.5 13l-3 -39q-54 -24 -112 -6q-57 17 -57 72q0 52 52 89h-6q-98 0 -155.5 53.5
t-57.5 150.5z" />
    <glyph glyph-name="Uogonek.smcp.alt" unicode="&#xe0c7;" horiz-adv-x="673" 
d="M118 156v379h55v-373q0 -58 35.5 -91.5t102.5 -33.5q55 0 103 26t75 66v406h55v-535q-42 -3 -79 -27q-37 -25 -37 -67q0 -25 19.5 -37t45.5 -10t51 13l-3 -39q-52 -24 -107 -6q-55 16 -55 72q0 41 34 75t86 47l-4 53h-3q-86 -86 -190 -86q-83 0 -133.5 43.5t-50.5 124.5z
" />
    <glyph glyph-name="Uring.alt" unicode="&#xe0c8;" horiz-adv-x="680" 
d="M83 193v468h57v-463q0 -73 43.5 -115t126.5 -42q69 0 128.5 31.5t92.5 81.5v507h57v-661h-43l-6 93h-4q-103 -105 -235 -105q-93 0 -155 52q-62 53 -62 153zM263 725q-29 30 -29 71t29 70q30 30 71 30t70 -30q30 -29 30 -70t-30 -71q-29 -29 -70 -29t-71 29zM289 840
q-18 -18 -18 -44t18 -45q19 -18 45 -18t44 18q19 19 19 45t-19 44q-18 19 -44 19t-45 -19z" />
    <glyph glyph-name="Uring.smcp" unicode="&#xe0c9;" horiz-adv-x="661" 
d="M332 764q41 0 70 -29t29 -72q0 -41 -29 -70t-70 -29t-71 29t-30 70q0 42 29.5 71.5t71.5 29.5zM331 726q-26 0 -44 -18.5t-18 -44.5q0 -25 18 -43t44 -18q27 0 44.5 17.5t17.5 43.5q0 27 -17.5 45t-44.5 18zM118 192v343h55v-344q0 -73 42.5 -113.5t115.5 -40.5
q74 0 116 40.5t42 113.5v344h54v-342q0 -97 -57.5 -151t-154.5 -54q-98 0 -155.5 53.5t-57.5 150.5z" />
    <glyph glyph-name="Uring.smcp.alt" unicode="&#xe0ca;" horiz-adv-x="673" 
d="M331 764q41 0 70 -29t29 -72q0 -41 -29 -70t-70 -29t-71 29t-30 70q0 42 29.5 71.5t71.5 29.5zM330 726q-26 0 -44 -18.5t-18 -44.5q0 -25 18 -43t44 -18q27 0 44.5 17.5t17.5 43.5q0 27 -17.5 45t-44.5 18zM118 156v379h55v-373q0 -58 35.5 -91.5t102.5 -33.5
q55 0 103 26t75 66v406h55v-535h-44l-5 74h-3q-86 -86 -190 -86q-83 0 -133.5 43.5t-50.5 124.5z" />
    <glyph glyph-name="Utilde.alt" unicode="&#xe0cb;" horiz-adv-x="680" 
d="M83 193v468h57v-463q0 -73 43.5 -115t126.5 -42q69 0 128.5 31.5t92.5 81.5v507h57v-661h-43l-6 93h-4q-103 -105 -235 -105q-93 0 -155 52q-62 53 -62 153zM181 725h-8l-2 41q38 50 97 50q24 0 78 -23t71 -23q47 0 71 45h7l2 -41q-38 -50 -95 -50q-23 0 -77 23t-71 23
q-49 0 -73 -45z" />
    <glyph glyph-name="Utilde.smcp" unicode="&#xe0cc;" horiz-adv-x="661" 
d="M184 600h-7l-2 40q35 50 95 50q22 0 73 -23q48 -22 67 -22q46 0 68 45h7l2 -40q-35 -50 -93 -50q-24 0 -72 22q-51 23 -66 23q-50 0 -72 -45zM118 192v343h55v-344q0 -73 42.5 -113.5t115.5 -40.5q74 0 116 40.5t42 113.5v344h54v-342q0 -97 -57.5 -151t-154.5 -54
q-98 0 -155.5 53.5t-57.5 150.5z" />
    <glyph glyph-name="Utilde.smcp.alt" unicode="&#xe0cd;" horiz-adv-x="673" 
d="M183 600h-7l-2 40q35 50 95 50q22 0 73 -23q48 -22 67 -22q45 0 68 45h7l2 -40q-35 -50 -93 -50q-24 0 -72 22q-51 23 -66 23q-49 0 -72 -45zM118 156v379h55v-373q0 -58 35.5 -91.5t102.5 -33.5q55 0 103 26t75 66v406h55v-535h-44l-5 74h-3q-86 -86 -190 -86
q-83 0 -133.5 43.5t-50.5 124.5z" />
    <glyph glyph-name="V.smcp" unicode="&#xe0ce;" horiz-adv-x="617" 
d="M276 0l-211 535h62l174 -454q6 -18 6 -30h7q0 17 6 30l171 454h61l-209 -535h-67z" />
    <glyph glyph-name="W.smcp" unicode="&#xe0cf;" horiz-adv-x="891" 
d="M245 0l-181 535h60l148 -451q4 -11 4 -29h7q0 17 4 29l127 450h67l125 -450q4 -12 4 -29h7q0 20 3 29l150 451h57l-182 -535h-68l-126 446q-2 16 -2 29h-8q0 -17 -3 -29l-126 -446h-67z" />
    <glyph glyph-name="Wacute.smcp" unicode="&#xe0d0;" horiz-adv-x="891" 
d="M414 563l-24 27l126 123l38 -42zM245 0l-181 535h60l148 -451q4 -11 4 -29h7q0 17 4 29l127 450h67l125 -450q4 -12 4 -29h7q0 20 3 29l150 451h57l-182 -535h-68l-126 446q-2 16 -2 29h-8q0 -17 -3 -29l-126 -446h-67z" />
    <glyph glyph-name="Wcircumflex.smcp" unicode="&#xe0d1;" horiz-adv-x="891" 
d="M245 0l-181 535h60l148 -451q4 -11 4 -29h7q0 17 4 29l127 450h67l125 -450q4 -12 4 -29h7q0 20 3 29l150 451h57l-182 -535h-68l-126 446q-2 16 -2 29h-8q0 -17 -3 -29l-126 -446h-67zM318 586l106 126h46l106 -126l-33 -12l-79 71l-14 18h-6l-14 -18l-78 -71z" />
    <glyph glyph-name="Wdieresis.smcp" unicode="&#xe0d2;" horiz-adv-x="891" 
d="M245 0l-181 535h60l148 -451q4 -11 4 -29h7q0 17 4 29l127 450h67l125 -450q4 -12 4 -29h7q0 20 3 29l150 451h57l-182 -535h-68l-126 446q-2 16 -2 29h-8q0 -17 -3 -29l-126 -446h-67zM328 665q16 20 39.5 11.5t29.5 -30t-11 -39.5q-12 -12 -29 -12t-29 12t-12 29t12 29
zM506 665q16 20 39.5 11.5t29.5 -30t-11 -39.5q-12 -12 -29 -12t-29 12t-12 29t12 29z" />
    <glyph glyph-name="Wgrave.smcp" unicode="&#xe0d3;" horiz-adv-x="891" 
d="M245 0l-181 535h60l148 -451q4 -11 4 -29h7q0 17 4 29l127 450h67l125 -450q4 -12 4 -29h7q0 20 3 29l150 451h57l-182 -535h-68l-126 446q-2 16 -2 29h-8q0 -17 -3 -29l-126 -446h-67zM340 671l38 42l126 -123l-23 -27z" />
    <glyph glyph-name="X.smcp" unicode="&#xe0d4;" horiz-adv-x="560" 
d="M238 271l-183 264h64l133 -193q16 -24 24 -47l6 -2l159 242h64l-183 -264l193 -271h-65l-141 198q-18 23 -26 48l-5 1l-169 -247h-65z" />
    <glyph glyph-name="Y.smcp" unicode="&#xe0d5;" horiz-adv-x="569" 
d="M255 223l-201 312h60l154 -249q10 -15 14 -30h7q3 10 15 30l156 249h55l-201 -312v-223h-59v223z" />
    <glyph glyph-name="Yacute.smcp" unicode="&#xe0d6;" horiz-adv-x="569" 
d="M270 563l-23 27l126 123l38 -42zM255 223l-201 312h60l154 -249q10 -15 14 -30h7q3 10 15 30l156 249h55l-201 -312v-223h-59v223z" />
    <glyph glyph-name="Ycircumflex.smcp" unicode="&#xe0d7;" horiz-adv-x="569" 
d="M255 223l-201 312h60l154 -249q10 -15 14 -30h7q3 10 15 30l156 249h55l-201 -312v-223h-59v223zM158 586l106 126h46l106 -126l-33 -12l-79 71l-14 18h-6l-14 -18l-78 -71z" />
    <glyph glyph-name="Ydieresis.smcp" unicode="&#xe0d8;" horiz-adv-x="569" 
d="M255 223l-201 312h60l154 -249q10 -15 14 -30h7q3 10 15 30l156 249h55l-201 -312v-223h-59v223zM169 665q16 20 39.5 11.5t29.5 -30t-11 -39.5q-12 -12 -29 -12t-29 12t-12 29t12 29zM347 665q16 20 39.5 11.5t29.5 -30t-11 -39.5q-12 -12 -29 -12t-29 12t-12 29t12 29z
" />
    <glyph glyph-name="Ygrave.smcp" unicode="&#xe0d9;" horiz-adv-x="569" 
d="M164 671l37 42l127 -123l-24 -27zM255 223l-201 312h60l154 -249q10 -15 14 -30h7q3 10 15 30l156 249h55l-201 -312v-223h-59v223z" />
    <glyph glyph-name="Z.smcp" unicode="&#xe0da;" horiz-adv-x="549" 
d="M90 488v47h368v-51l-319 -433l3 -6q9 4 29 4h300v-49h-393v52l319 434l-2 5q-9 -3 -30 -3h-275z" />
    <glyph glyph-name="Zacute.smcp" unicode="&#xe0db;" horiz-adv-x="549" 
d="M244 563l-24 27l126 123l38 -42zM90 488v47h368v-51l-319 -433l3 -6q9 4 29 4h300v-49h-393v52l319 434l-2 5q-9 -3 -30 -3h-275z" />
    <glyph glyph-name="Zcaron.smcp" unicode="&#xe0dc;" horiz-adv-x="549" 
d="M90 488v47h368v-51l-319 -433l3 -6q9 4 29 4h300v-49h-393v52l319 434l-2 5q-9 -3 -30 -3h-275zM253 574l-106 126l34 12l78 -71l14 -18h6l14 18l79 71l33 -12l-106 -126h-46z" />
    <glyph glyph-name="Zdotaccent.smcp" unicode="&#xe0dd;" horiz-adv-x="549" 
d="M90 488v47h368v-51l-319 -433l3 -6q9 4 29 4h300v-49h-393v52l319 434l-2 5q-9 -3 -30 -3h-275zM245 614q-12 13 -12 31t12 30q13 13 31 13t30 -13q13 -12 13 -30t-13 -31q-12 -12 -30 -12t-31 12z" />
    <glyph glyph-name="a.alt" unicode="&#xe0de;" horiz-adv-x="588" 
d="M495 473v-373l12 -104l-44 -8l-19 82h-7q-72 -82 -174 -82q-93 0 -151 66q-57 68 -57 178q0 124 72 204q73 79 190 79q94 0 178 -42zM441 128v316q-54 25 -124 25q-96 0 -151.5 -64t-55.5 -172q0 -94 44 -146t122 -52q104 0 165 93z" />
    <glyph glyph-name="aacute.alt" unicode="&#xe0df;" horiz-adv-x="589" 
d="M495 473v-373l12 -104l-44 -8l-19 82h-7q-72 -82 -174 -82q-93 0 -151 66q-57 68 -57 178q0 124 72 204q73 79 190 79q94 0 178 -42zM441 128v316q-54 25 -124 25q-96 0 -151.5 -64t-55.5 -172q0 -94 44 -146t122 -52q104 0 165 93zM253 583l97 145l45 -33l-114 -133z
" />
    <glyph glyph-name="abreve.alt" unicode="&#xe0e0;" horiz-adv-x="588" 
d="M146 716l41 12q20 -116 115 -116q97 0 117 116l40 -12q-10 -71 -52.5 -112t-104.5 -41q-61 0 -103.5 41t-52.5 112zM495 473v-373l12 -104l-44 -8l-19 82h-7q-72 -82 -174 -82q-93 0 -151 66q-57 68 -57 178q0 124 72 204q73 79 190 79q94 0 178 -42zM441 128v316
q-54 25 -124 25q-96 0 -151.5 -64t-55.5 -172q0 -94 44 -146t122 -52q104 0 165 93z" />
    <glyph glyph-name="acircumflex.alt" unicode="&#xe0e1;" horiz-adv-x="588" 
d="M495 473v-373l12 -104l-44 -8l-19 82h-7q-72 -82 -174 -82q-93 0 -151 66q-57 68 -57 178q0 124 72 204q73 79 190 79q94 0 178 -42zM441 128v316q-54 25 -124 25q-96 0 -151.5 -64t-55.5 -172q0 -94 44 -146t122 -52q104 0 165 93zM183 574l102 149h49l102 -149l-34 -12
l-77 90l-12 19h-7l-12 -19l-77 -90z" />
    <glyph glyph-name="acute.caps" unicode="&#xe0e2;" horiz-adv-x="290" 
d="M85 696l-23 27l129 121l37 -44z" />
    <glyph glyph-name="acute.smcp" unicode="&#xe0e3;" horiz-adv-x="289" 
d="M86 563l-24 27l127 123l37 -42z" />
    <glyph glyph-name="adieresis.alt" unicode="&#xe0e4;" horiz-adv-x="588" 
d="M182 613q-12 13 -12 31t12 30q13 13 31 13t30 -13q13 -12 13 -30t-13 -31q-12 -12 -30 -12t-31 12zM368 613q-12 13 -12 31t12 30q13 13 31 13t30 -13q13 -12 13 -30t-13 -31q-12 -12 -30 -12t-31 12zM495 473v-373l12 -104l-44 -8l-19 82h-7q-72 -82 -174 -82
q-93 0 -151 66q-57 68 -57 178q0 124 72 204q73 79 190 79q94 0 178 -42zM441 128v316q-54 25 -124 25q-96 0 -151.5 -64t-55.5 -172q0 -94 44 -146t122 -52q104 0 165 93z" />
    <glyph glyph-name="ae.alt" unicode="&#xe0e5;" horiz-adv-x="892" 
d="M495 473v-67q34 51 84 80t107 29q129 0 149 -104q17 -91 -76 -153t-263 -36q3 -87 50 -136.5t126 -49.5q44 0 75 10.5t66 37.5l24 -39q-78 -57 -172 -57q-62 0 -113 29.5t-80 83.5q-86 -113 -209 -113q-93 0 -151 66q-57 68 -57 178q0 124 72 204q73 79 190 79
q94 0 178 -42zM441 128v316q-54 25 -124 25q-96 0 -151.5 -64t-55.5 -172q0 -94 44 -146t122 -52q104 0 165 93zM496 261q149 -23 224 23q78 46 64 122q-12 64 -102 64q-68 0 -123 -54q-55 -52 -63 -155z" />
    <glyph glyph-name="aeacute.alt" unicode="&#xe0e6;" horiz-adv-x="892" 
d="M446 583l97 145l46 -33l-114 -133zM495 473v-67q34 51 84 80t107 29q129 0 149 -104q17 -91 -76 -153t-263 -36q3 -87 50 -136.5t126 -49.5q44 0 75 10.5t66 37.5l24 -39q-78 -57 -172 -57q-62 0 -113 29.5t-80 83.5q-86 -113 -209 -113q-93 0 -151 66q-57 68 -57 178
q0 124 72 204q73 79 190 79q94 0 178 -42zM441 128v316q-54 25 -124 25q-96 0 -151.5 -64t-55.5 -172q0 -94 44 -146t122 -52q104 0 165 93zM496 261q149 -23 224 23q78 46 64 122q-12 64 -102 64q-68 0 -123 -54q-55 -52 -63 -155z" />
    <glyph glyph-name="aemacron" unicode="&#xe0e7;" horiz-adv-x="872" 
d="M95 436l5 47q73 32 162 32q162 0 186 -101q66 101 182 101q92 0 143 -56t51 -155q0 -29 -4 -42h-366q0 -111 52 -169t154 -58q82 0 147 35l-5 -48q-67 -34 -151 -34q-152 0 -215 117q-74 -117 -207 -117q-77 0 -126 40.5t-49 109.5q0 79 53.5 120.5t145.5 41.5
q39 0 147 -11v72q0 56 -33.5 82t-112.5 26q-86 0 -159 -33zM400 121v127q-83 11 -144 11q-148 0 -148 -118q0 -53 35.5 -80.5t97.5 -27.5q104 0 159 88zM457 301l312 4q0 165 -143 165q-61 0 -110 -43q-48 -41 -59 -126zM298 620v47h320v-47h-320z" />
    <glyph glyph-name="aemacron.alt" unicode="&#xe0e8;" horiz-adv-x="892" 
d="M495 473v-67q34 51 84 80t107 29q129 0 149 -104q17 -91 -76 -153t-263 -36q3 -87 50 -136.5t126 -49.5q44 0 75 10.5t66 37.5l24 -39q-78 -57 -172 -57q-62 0 -113 29.5t-80 83.5q-86 -113 -209 -113q-93 0 -151 66q-57 68 -57 178q0 124 72 204q73 79 190 79
q94 0 178 -42zM441 128v316q-54 25 -124 25q-96 0 -151.5 -64t-55.5 -172q0 -94 44 -146t122 -52q104 0 165 93zM496 261q149 -23 224 23q78 46 64 122q-12 64 -102 64q-68 0 -123 -54q-55 -52 -63 -155zM312 620v47h320v-47h-320z" />
    <glyph glyph-name="agrave.alt" unicode="&#xe0e9;" horiz-adv-x="588" 
d="M366 562l-114 133l45 33l97 -145zM495 473v-373l12 -104l-44 -8l-19 82h-7q-72 -82 -174 -82q-93 0 -151 66q-57 68 -57 178q0 124 72 204q73 79 190 79q94 0 178 -42zM441 128v316q-54 25 -124 25q-96 0 -151.5 -64t-55.5 -172q0 -94 44 -146t122 -52q104 0 165 93z" />
    <glyph glyph-name="amacron.alt" unicode="&#xe0ea;" horiz-adv-x="588" 
d="M495 473v-373l12 -104l-44 -8l-19 82h-7q-72 -82 -174 -82q-93 0 -151 66q-57 68 -57 178q0 124 72 204q73 79 190 79q94 0 178 -42zM441 128v316q-54 25 -124 25q-96 0 -151.5 -64t-55.5 -172q0 -94 44 -146t122 -52q104 0 165 93zM148 620v47h320v-47h-320z" />
    <glyph glyph-name="ampersand.alt1" unicode="&#xe0eb;" horiz-adv-x="700" 
d="M459 638l17 7h14l-6 -146v-114h189v-44h-189v-180q0 -71 20.5 -98.5t77.5 -27.5q45 0 90 20l-3 -46q-51 -21 -101 -21q-77 0 -109 41q-82 -41 -174 -41q-99 0 -163 52q-63 52 -63 149q0 63 36.5 110t94.5 61v7q-52 13 -82 52.5t-30 96.5q0 84 61 126q61 43 148 43
q96 0 172 -47zM428 155l1 186h-148q-68 0 -118 -41q-49 -40 -49 -108q0 -76 48.5 -116t129.5 -40q88 0 146 33q-10 30 -10 86zM284 385h146l1 112l8 101q-65 38 -151 38q-71 0 -114 -30.5t-43 -89.5q0 -62 45 -97q46 -34 108 -34z" />
    <glyph glyph-name="ampersand.alt2" unicode="&#xe0ec;" horiz-adv-x="831" 
d="M563 305l12 132l33 13h14l-5 -144h185l-14 -47l-171 7v-298q0 -71 20.5 -98.5t76.5 -27.5q43 0 91 20l-3 -46q-52 -21 -102 -21q-78 0 -108.5 40.5t-30.5 125.5l2 301h-455q0 -111 52 -169t154 -58q82 0 147 35l-5 -48q-68 -34 -151 -34q-113 0 -182 70q-68 71 -68 194
q0 115 65 189q66 74 164 74q94 0 143 -56.5t51 -161.5zM111 301l312 4q0 165 -143 165q-61 0 -110 -43q-48 -41 -59 -126z" />
    <glyph glyph-name="ampersand.alt3" unicode="&#xe0ed;" horiz-adv-x="727" 
d="M537 593v7h40q73 -87 89.5 -195.5t-23.5 -199.5q-37 -96 -127 -156.5t-211 -60.5q-113 0 -182 70q-68 71 -68 194q0 115 65 189q66 74 164 74q92 0 143 -56t51 -155q0 -22 -4 -42h-366q0 -111 53 -169t153 -58q86 0 154.5 37t105 98t48.5 133.5t-10 149.5t-75 140z
M111 301l312 4q0 165 -143 165q-61 0 -110 -43q-48 -41 -59 -126z" />
    <glyph glyph-name="ampersand.alt4" unicode="&#xe0ee;" horiz-adv-x="726" 
d="M636 515h43q-3 -100 -41 -216q-37 -112 -109 -193q69 -79 103 -175q36 -99 36 -192h-12l-31 8q0 87 -33.5 174.5t-94.5 152.5q-95 -86 -219 -86q-99 0 -160 70t-52 190q9 113 83 190q75 77 174 77q129 0 146 -104q8 -55 -29 -104.5t-108 -73.5q94 -28 167 -97
q65 72 99 177q37 107 38 202zM120 261q147 -24 227 23q81 46 70 122q-10 64 -100 64q-67 0 -126 -54q-59 -53 -71 -155zM214 213q-48 0 -96 8q-1 -87 44.5 -136t123.5 -49q104 0 181 70q-108 99 -253 107z" />
    <glyph glyph-name="ampersand.alt5" unicode="&#xe0ef;" horiz-adv-x="695" 
d="M476 648v-50q-78 37 -163 37q-62 0 -99.5 -30.5t-37.5 -86.5q0 -98 81 -199q79 -98 204 -185q46 90 18 208v14h179l-11 -43l-117 2q20 -117 -30 -206q78 -49 148 -77l-8 -44h-14q-67 23 -154 81q-68 -81 -188 -81q-100 0 -162 58q-63 58 -63 147q0 115 109 172
q-45 79 -45 151q0 80 54 124q54 45 134 45q84 0 165 -37zM434 93q-164 116 -247 241q-73 -46 -73 -139q0 -74 48.5 -116.5t127.5 -42.5q94 0 144 57z" />
    <glyph glyph-name="ampersand.alt6" unicode="&#xe0f0;" horiz-adv-x="801" 
d="M537 305l12 132l34 13h14l-6 -144h185l-14 -47l-171 7v-298q0 -71 21 -98.5t77 -27.5q42 0 90 20l-3 -46q-51 -21 -102 -21q-78 0 -108.5 40.5t-30.5 125.5l2 300h-156q-97 -66 -267 -39q2 -87 49 -136.5t126 -49.5q44 0 75 10.5t66 37.5l24 -39q-78 -57 -172 -57
q-99 0 -163 70q-64 71 -59 190q5 115 74 190q71 77 169 77q129 0 149 -104q10 -63 -30 -112zM113 261q149 -23 224 23q78 46 64 122q-6 33 -29.5 48.5t-72.5 15.5q-65 3 -121.5 -53t-64.5 -156z" />
    <glyph glyph-name="ampersand.smcp" unicode="&#xe0f1;" horiz-adv-x="923" 
d="M576 516v-50q-78 25 -177 25q-93 0 -172 -49q-40 -25 -63 -73.5t-23 -111.5q0 -60 23 -104t62.5 -68t85.5 -35t99 -11q100 0 174 53q73 54 79 163h-249v45h488l-12 -45h-174q-6 -120 -92 -194q-85 -73 -221 -73q-138 0 -230 68q-91 67 -91 201q0 133 87 208q88 76 228 76
q93 0 178 -25z" />
    <glyph glyph-name="ampersand.smcp.alt" unicode="&#xe0f2;" horiz-adv-x="923" 
d="M640 300h263l-12 -45h-174q-6 -120 -92 -194q-85 -73 -221 -73q-138 0 -230 68q-91 67 -91 201q0 133 87 208q88 76 227 76q49 0 102 -16q43 -14 71 -36q32 -25 52.5 -75t17.5 -114zM415 255v45h173q2 51 -12 90t-36 59q-18 18 -51 29q-43 13 -93 13q-92 0 -169 -49
q-40 -25 -63 -73.5t-23 -111.5q0 -60 23 -104t62.5 -68t85.5 -35t99 -11q100 0 174 53q73 54 79 163h-249z" />
    <glyph glyph-name="aogonek.alt" unicode="&#xe0f3;" horiz-adv-x="588" 
d="M495 473v-373l12 -104q-43 -13 -80 -43q-36 -30 -36 -76q0 -44 41.5 -55.5t74.5 7.5l-3 -37q-90 -32 -137 13q-27 25 -27 69q0 42 33 79t85 56l-14 61h-7q-72 -82 -174 -82q-93 0 -151 66q-57 68 -57 178q0 124 72 204q73 79 190 79q94 0 178 -42zM441 128v316
q-54 25 -124 25q-96 0 -151.5 -64t-55.5 -172q0 -94 44 -146t122 -52q104 0 165 93z" />
    <glyph glyph-name="apple" unicode="&#xe0f4;" horiz-adv-x="781" 
d="M50 -9v678h681v-678h-681zM355 397h-81v-253h90v44l-2 22h4q17 -5 33 -5q40 0 65.5 26.5t25.5 71.5q0 44 -20 70t-55 26t-51 -31h-4zM364 259v53q4 28 19 28q16 0 16 -40q0 -49 -20 -49q-2 0 -15 8zM328 463h-217v-61h64v-182h93v182h60v61zM670 463h-175v-243h93v83h76
v62h-76v37h82v61z" />
    <glyph glyph-name="approxequal.caps" unicode="&#xe0f5;" horiz-adv-x="606" 
d="M81 376v56q37 42 115 42q41 0 113 -28q75 -27 100 -27q76 0 116 49v-56q-42 -42 -116 -42q-37 0 -114 27t-100 27q-77 0 -114 -48zM81 189v56q37 42 115 42q41 0 113 -28q75 -27 100 -27q76 0 116 49v-56q-42 -42 -116 -42q-37 0 -114 27t-100 27q-77 0 -114 -48z" />
    <glyph glyph-name="aring.alt" unicode="&#xe0f6;" horiz-adv-x="588" 
d="M495 473v-373l12 -104l-44 -8l-19 82h-7q-72 -82 -174 -82q-93 0 -151 66q-57 68 -57 178q0 124 72 204q73 79 190 79q94 0 178 -42zM441 128v316q-54 25 -124 25q-96 0 -151.5 -64t-55.5 -172q0 -94 44 -146t122 -52q104 0 165 93zM239 591q-29 29 -29 70t29 70
q30 30 71 30t70 -30q30 -29 30 -70t-30 -70q-29 -29 -70 -29t-71 29zM354 705q-18 19 -44 19t-44 -19q-18 -18 -18 -44t18 -44t44 -18t44 18q19 18 19 44t-19 44z" />
    <glyph glyph-name="aringacute.alt" unicode="&#xe0f7;" horiz-adv-x="588" 
d="M495 473v-373l12 -104l-44 -8l-19 82h-7q-72 -82 -174 -82q-93 0 -151 66q-57 68 -57 178q0 124 72 204q73 79 190 79q94 0 178 -42zM441 128v316q-54 25 -124 25q-96 0 -151.5 -64t-55.5 -172q0 -94 44 -146t122 -52q104 0 165 93zM254 748l127 122l36 -42l-90 -70
q33 -8 55 -35t22 -62q0 -41 -29.5 -70t-70.5 -29t-70.5 29t-29.5 70q0 58 50 87zM348 705q-18 19 -44 19t-44 -19q-18 -18 -18 -44t18 -44t44 -18t44 18q19 18 19 44t-19 44z" />
    <glyph glyph-name="arrow.angle.left.below" unicode="&#xe0f8;" horiz-adv-x="527" 
d="M50 115l11 227l50 -3l-7 -132l335 335l38 -38l-333 -333l128 7l5 -52z" />
    <glyph glyph-name="arrow.angle.left.top" unicode="&#xe0f9;" horiz-adv-x="527" 
d="M61 315l-11 227l227 -11l-5 -52l-128 6l333 -332l-38 -38l-335 335l7 -132z" />
    <glyph glyph-name="arrow.angle.right.below" unicode="&#xe0fa;" horiz-adv-x="527" 
d="M50 504l38 38l335 -335l-7 132l50 3l11 -227l-227 11l5 52l127 -7z" />
    <glyph glyph-name="arrow.angle.right.top" unicode="&#xe0fb;" horiz-adv-x="527" 
d="M255 479l-5 52l227 11l-11 -227l-50 3l7 132l-335 -335l-38 38l332 332z" />
    <glyph glyph-name="arrow.below" unicode="&#xe0fc;" horiz-adv-x="406" 
d="M176 143v473h54v-471l86 96l40 -33l-153 -168l-153 168l38 33z" />
    <glyph glyph-name="arrow.left" unicode="&#xe0fd;" horiz-adv-x="676" 
d="M218 175l-168 153l168 153l33 -38l-98 -88h473v-54h-471l96 -86z" />
    <glyph glyph-name="arrow.right" unicode="&#xe0fe;" horiz-adv-x="676" 
d="M50 301v54h472l-97 88l33 38l168 -153l-168 -153l-33 40l95 86h-470z" />
    <glyph glyph-name="arrow.top" unicode="&#xe0ff;" horiz-adv-x="406" 
d="M50 448l153 168l153 -168l-40 -33l-86 95v-470h-54v472l-88 -97z" />
    <glyph glyph-name="asciitilde.caps" unicode="&#xe100;" horiz-adv-x="604" 
d="M80 282v56q38 42 116 42q41 0 113 -28q75 -27 100 -27q75 0 115 49v-56q-42 -42 -115 -42q-37 0 -114 27t-100 27q-77 0 -115 -48z" />
    <glyph glyph-name="asterisk.smcp" unicode="&#xe101;" horiz-adv-x="443" 
d="M60 407l17 50l126 -54l-7 132h51l-7 -132l127 54l16 -50l-131 -41l89 -113l-43 -29l-77 124l-76 -124l-43 29l90 113z" />
    <glyph glyph-name="at.alt" unicode="&#xe102;" horiz-adv-x="962" 
d="M646 447v-328l7 -59q95 10 150 84q56 74 56 181q0 73 -30.5 131t-83.5 93q-101 70 -237 70q-105 0 -198 -44q-90 -43 -147 -131q-57 -87 -57 -199q0 -169 105 -263q107 -96 261 -96q135 0 235 55l-8 -47q-104 -52 -230 -52q-177 0 -295 109q-119 110 -119 294
q0 118 62 216q63 96 166.5 149.5t224.5 53.5q152 0 270 -84q59 -41 94 -108t35 -147q0 -132 -83 -220q-83 -86 -211 -86l-17 73h-5q-63 -73 -152 -73q-83 0 -132 58q-50 59 -50 157q0 110 64 180t167 70q85 0 158 -37zM594 146v272q-50 22 -106 22q-81 0 -129.5 -56
t-48.5 -149q0 -80 38 -125.5t104 -45.5q89 0 142 82z" />
    <glyph glyph-name="at.alt.caps" unicode="&#xe103;" horiz-adv-x="974" 
d="M652 524v-328l7 -59q95 11 150 84q56 74 56 181q0 73 -30.5 131t-83.5 93q-101 70 -237 70q-105 0 -198 -44q-90 -43 -147 -131q-57 -87 -57 -199q0 -168 105 -264q107 -95 261 -95q135 0 235 55l-8 -47q-104 -52 -230 -52q-177 0 -295 109q-119 110 -119 294
q0 118 62 216q63 96 166.5 149.5t224.5 53.5q152 0 270 -84q59 -41 94 -108t35 -147q0 -132 -83 -220q-83 -86 -211 -86l-17 73h-5q-63 -73 -152 -73q-83 0 -132 58q-50 59 -50 157q0 110 64 180t167 70q85 0 158 -37zM600 223v272q-50 22 -106 22q-81 0 -129.5 -56
t-48.5 -149q0 -80 38 -125.5t104 -45.5q89 0 142 82z" />
    </font>
</defs>
</svg>
